SplineFontDB: 3.0
FontName: Fenix
FullName: Fenix
FamilyName: Fenix
Weight: Book
Copyright: Copyright (c) 2012 by Fernando Di'az. All rights reserved.
Version: 001.000
ItalicAngle: 0
UnderlinePosition: -82
UnderlineWidth: 58
Ascent: 750
Descent: 250
sfntRevision: 0x00010000
LayerCount: 2
Layer: 0 1 "Back"  1
Layer: 1 1 "Fore"  0
XUID: [1021 156 176782246 9094623]
FSType: 4
OS2Version: 2
OS2_WeightWidthSlopeOnly: 0
OS2_UseTypoMetrics: 1
CreationTime: 1332859869
ModificationTime: 1348472969
PfmFamily: 17
TTFWeight: 400
TTFWidth: 5
LineGap: 18
VLineGap: 0
Panose: 2 0 5 3 0 0 0 2 0 3
OS2TypoAscent: 750
OS2TypoAOffset: 0
OS2TypoDescent: -250
OS2TypoDOffset: 0
OS2TypoLinegap: 400
OS2WinAscent: 772
OS2WinAOffset: 0
OS2WinDescent: 228
OS2WinDOffset: 0
HheadAscent: 698
HheadAOffset: 0
HheadDescent: -228
HheadDOffset: 0
OS2SubXSize: 700
OS2SubYSize: 650
OS2SubXOff: 0
OS2SubYOff: 140
OS2SupXSize: 700
OS2SupYSize: 650
OS2SupXOff: 0
OS2SupYOff: 477
OS2StrikeYSize: 58
OS2StrikeYPos: 225
OS2Vendor: 'PYRS'
OS2CodePages: 00000001.00000000
OS2UnicodeRanges: 800000af.4000004a.00000000.00000000
Lookup: 4 0 1 "'liga' Standard Ligatures in Latin lookup 0"  {"'liga' Standard Ligatures in Latin lookup 0 subtable"  } ['liga' ('latn' <'dflt' > ) ]
Lookup: 258 0 0 "'kern' Horizontal Kerning in Latin lookup 0"  {"'kern' Horizontal Kerning in Latin lookup 0 subtable"  } ['kern' ('latn' <'dflt' > ) ]
DEI: 91125
TtTable: prep
PUSHW_1
 511
SCANCTRL
PUSHB_1
 4
SCANTYPE
EndTTInstrs
ShortTable: maxp 16
  1
  0
  235
  904
  19
  0
  0
  2
  0
  1
  1
  0
  64
  0
  0
  0
EndShort
LangName: 1033 "Copyright (c) 2012 by Fernando D+AO0A-az. All rights reserved." "" "Regular" "FernandoDiaz: Fenix: 2012" "" "001.000" "" "Fenix is a trademark of Fernando D+AO0A-az." "Fernando D+AO0A-az" "Fernando D+AO0A-az" "Copyright (c) 2012 by Fernando D+AO0A-az. All rights reserved." "http://www.tipotype.com" "http://www.ferfolio.com" 
GaspTable: 1 65535 15 1
Encoding: UnicodeBmp
UnicodeInterp: none

StartChar: .notdef
Encoding: 65536 -1 0
Width: 568
Flags: W
LayerCount: 2
Fore
SplineSet
186 469 m 1,0,-1
 149 432 l 1,1,-1
 247 334 l 1,2,-1
 148 235 l 1,3,-1
 185 198 l 1,4,-1
 284 296 l 1,5,-1
 383 198 l 1,6,-1
 420 235 l 1,7,-1
 321 334 l 1,8,-1
 419 432 l 1,9,-1
 382 469 l 1,10,-1
 284 371 l 1,11,-1
 186 469 l 1,0,-1
50 0 m 1,12,-1
 50 680 l 1,13,-1
 518 680 l 1,14,-1
 518 0 l 1,15,-1
 50 0 l 1,12,-1
EndSplineSet
EndChar

StartChar: exclam
Encoding: 33 33 4
Width: 230
GlyphClass: 2
Flags: W
LayerCount: 2
Fore
SplineSet
62 678 m 1,0,-1
 154 688 l 1,1,-1
 166 677 l 1,2,-1
 132 191 l 1,3,-1
 107 187 l 1,4,-1
 94 189 l 1,5,-1
 62 678 l 1,0,-1
75.5 7.5 m 128,-1,7
 60 23 60 23 60 46.5 c 128,-1,8
 60 70 60 70 75.5 86 c 128,-1,9
 91 102 91 102 114.5 102 c 128,-1,10
 138 102 138 102 154 86 c 128,-1,11
 170 70 170 70 170 46.5 c 128,-1,12
 170 23 170 23 154 7.5 c 128,-1,13
 138 -8 138 -8 114.5 -8 c 128,-1,6
 91 -8 91 -8 75.5 7.5 c 128,-1,7
EndSplineSet
EndChar

StartChar: quotedbl
Encoding: 34 34 5
Width: 333
GlyphClass: 2
Flags: W
LayerCount: 2
Fore
SplineSet
50 670 m 1,0,-1
 126 680 l 1,1,-1
 138 669 l 1,2,-1
 110 462 l 1,3,-1
 76 458 l 1,4,-1
 50 670 l 1,0,-1
195 670 m 1,5,-1
 271 680 l 1,6,-1
 283 669 l 1,7,-1
 255 462 l 1,8,-1
 221 458 l 1,9,-1
 195 670 l 1,5,-1
EndSplineSet
EndChar

StartChar: numbersign
Encoding: 35 35 6
Width: 689
GlyphClass: 2
Flags: W
LayerCount: 2
Fore
SplineSet
103 412 m 1,0,-1
 121 451 l 1,1,-1
 239 451 l 1,2,-1
 263 628 l 1,3,-1
 319 638 l 1,4,-1
 330 627 l 1,5,-1
 303 451 l 1,6,-1
 422 453 l 1,7,-1
 445 628 l 1,8,-1
 501 638 l 1,9,-1
 512 627 l 1,10,-1
 485 454 l 1,11,-1
 605 456 l 1,12,-1
 614 444 l 1,13,-1
 596 397 l 1,14,15
 545 397 545 397 477 398 c 1,16,-1
 457 251 l 1,17,-1
 576 253 l 1,18,-1
 585 241 l 1,19,-1
 568 195 l 1,20,21
 517 195 517 195 449 196 c 1,22,-1
 427 22 l 1,23,-1
 370 12 l 1,24,-1
 360 23 l 1,25,26
 373 114 373 114 386 196 c 1,27,28
 347 197 347 197 268 197 c 1,29,-1
 245 22 l 1,30,-1
 188 12 l 1,31,-1
 178 23 l 1,32,-1
 204 197 l 1,33,34
 148 198 148 198 84 198 c 1,35,-1
 75 210 l 1,36,-1
 92 249 l 1,37,-1
 212 249 l 1,38,-1
 233 399 l 1,39,40
 177 400 177 400 113 400 c 1,41,-1
 103 412 l 1,0,-1
295 399 m 1,42,-1
 275 249 l 1,43,44
 316 250 316 250 394 250 c 1,45,-1
 414 398 l 1,46,47
 375 399 375 399 295 399 c 1,42,-1
EndSplineSet
EndChar

StartChar: dollar
Encoding: 36 36 7
Width: 558
GlyphClass: 2
Flags: W
LayerCount: 2
Fore
SplineSet
369 540 m 1,0,1
 344 554 344 554 279 554 c 128,-1,2
 214 554 214 554 186 521 c 0,3,4
 173 505 173 505 173 481 c 0,5,6
 173 418 173 418 239 396 c 2,7,-1
 351 358 l 2,8,9
 417 336 417 336 448 291 c 128,-1,10
 479 246 479 246 479 200 c 0,11,12
 479 130 479 130 422 88 c 0,13,14
 376 55 376 55 309 48 c 1,15,-1
 322 -77 l 1,16,-1
 262 -87 l 1,17,-1
 250 -76 l 1,18,-1
 263 47 l 1,19,20
 198 50 198 50 150.5 74.5 c 128,-1,21
 103 99 103 99 80 126 c 1,22,-1
 139 221 l 1,23,-1
 163 215 l 1,24,-1
 167 133 l 1,25,26
 212 105 212 105 285 105 c 0,27,28
 388 105 388 105 399 173 c 0,29,30
 400 180 400 180 400 186 c 0,31,32
 400 246 400 246 308 275 c 1,33,-1
 199 312 l 2,34,35
 151 328 151 328 124.5 365.5 c 128,-1,36
 98 403 98 403 98 454 c 0,37,38
 98 523 98 523 144.5 562 c 128,-1,39
 191 601 191 601 260 608 c 1,40,-1
 249 725 l 1,41,-1
 309 735 l 1,42,-1
 321 724 l 1,43,-1
 310 609 l 1,44,45
 397 604 397 604 465 539 c 1,46,-1
 402 448 l 1,47,-1
 379 455 l 1,48,-1
 369 540 l 1,0,1
EndSplineSet
EndChar

StartChar: percent
Encoding: 37 37 8
Width: 737
GlyphClass: 2
Flags: W
LayerCount: 2
Fore
SplineSet
472 164 m 0,0,1
 472 47 472 47 557 47 c 0,2,3
 589 47 589 47 611 58 c 1,4,5
 629 97 629 97 629 152 c 0,6,7
 629 270 629 270 545 270 c 0,8,9
 513 270 513 270 491 259 c 1,10,11
 472 219 472 219 472 164 c 0,0,1
447.5 35 m 128,-1,13
 410 70 410 70 410 148.5 c 128,-1,14
 410 227 410 227 453.5 272 c 128,-1,15
 497 317 497 317 556 317 c 128,-1,16
 615 317 615 317 653.5 277.5 c 128,-1,17
 692 238 692 238 692 159.5 c 128,-1,18
 692 81 692 81 649 40.5 c 128,-1,19
 606 0 606 0 545.5 0 c 128,-1,12
 485 0 485 0 447.5 35 c 128,-1,13
112 497 m 0,20,21
 112 380 112 380 197 380 c 0,22,23
 229 380 229 380 251 391 c 1,24,25
 269 430 269 430 269 485 c 0,26,27
 269 603 269 603 185 603 c 0,28,29
 153 603 153 603 131 592 c 1,30,31
 112 552 112 552 112 497 c 0,20,21
87.5 368 m 128,-1,33
 50 403 50 403 50 481.5 c 128,-1,34
 50 560 50 560 93.5 605 c 128,-1,35
 137 650 137 650 196 650 c 128,-1,36
 255 650 255 650 293.5 610.5 c 128,-1,37
 332 571 332 571 332 492.5 c 128,-1,38
 332 414 332 414 289 373.5 c 128,-1,39
 246 333 246 333 185.5 333 c 128,-1,32
 125 333 125 333 87.5 368 c 128,-1,33
624 638 m 1,40,-1
 636 627 l 1,41,42
 394 320 394 320 178 27 c 1,43,-1
 114 12 l 1,44,-1
 102 23 l 1,45,46
 344 330 344 330 560 623 c 1,47,-1
 624 638 l 1,40,-1
EndSplineSet
EndChar

StartChar: ampersand
Encoding: 38 38 9
Width: 639
GlyphClass: 2
Flags: W
LayerCount: 2
Fore
SplineSet
431 115 m 1,0,1
 459 147 459 147 459 189.5 c 128,-1,2
 459 232 459 232 434.5 267.5 c 128,-1,3
 410 303 410 303 376 311 c 1,4,-1
 365 323 l 1,5,-1
 377 362 l 1,6,7
 481 362 481 362 588 368 c 2,8,-1
 623 370 l 1,9,-1
 634 358 l 1,10,-1
 623 306 l 1,11,12
 539 308 539 308 468 309 c 1,13,14
 522 258 522 258 520.5 194 c 128,-1,15
 519 130 519 130 465 77 c 1,16,17
 498 43 498 43 521 33.5 c 128,-1,18
 544 24 544 24 561 24 c 128,-1,19
 578 24 578 24 590 26 c 1,20,-1
 592 0 l 1,21,-1
 494 -40 l 1,22,23
 454 -21 454 -21 403 33 c 1,24,25
 327 -8 327 -8 235.5 -8 c 128,-1,26
 144 -8 144 -8 82 33 c 128,-1,27
 20 74 20 74 20 151 c 0,28,29
 20 209 20 209 54.5 253.5 c 128,-1,30
 89 298 89 298 150 344 c 1,31,32
 105 403 105 403 85 442 c 128,-1,33
 65 481 65 481 65 521 c 0,34,35
 65 587 65 587 115 622.5 c 128,-1,36
 165 658 165 658 233.5 658 c 128,-1,37
 302 658 302 658 346 626 c 0,38,39
 393 592 393 592 393 531 c 0,40,41
 393 455 393 455 302 387 c 2,42,-1
 248 347 l 1,43,-1
 342 228 l 2,44,45
 348 221 348 221 364.5 199.5 c 128,-1,46
 381 178 381 178 398.5 156 c 128,-1,47
 416 134 416 134 431 115 c 1,0,1
146 82.5 m 128,-1,49
 188 46 188 46 255 46 c 0,50,51
 314 46 314 46 368 70 c 1,52,53
 337 106 337 106 266 196 c 2,54,-1
 182 304 l 1,55,56
 154 283 154 283 130 250 c 1,57,58
 104 212 104 212 104 165.5 c 128,-1,48
 104 119 104 119 146 82.5 c 128,-1,49
146 587 m 1,59,60
 134 571 134 571 134 542 c 128,-1,61
 134 513 134 513 154 477.5 c 128,-1,62
 174 442 174 442 218 386 c 1,63,-1
 269 428 l 2,64,65
 320 470 320 470 320 515 c 0,66,67
 320 550 320 550 296 575 c 0,68,69
 268 605 268 605 221 605 c 128,-1,70
 174 605 174 605 146 587 c 1,59,60
EndSplineSet
EndChar

StartChar: quotesingle
Encoding: 39 39 10
Width: 188
GlyphClass: 2
Flags: W
LayerCount: 2
Fore
SplineSet
50 670 m 1,0,-1
 126 680 l 1,1,-1
 138 669 l 1,2,-1
 110 462 l 1,3,-1
 76 458 l 1,4,-1
 50 670 l 1,0,-1
EndSplineSet
EndChar

StartChar: parenleft
Encoding: 40 40 11
Width: 348
GlyphClass: 2
Flags: W
LayerCount: 2
Fore
SplineSet
65 292 m 128,-1,1
 65 379 65 379 85.5 457 c 128,-1,2
 106 535 106 535 133.5 584 c 128,-1,3
 161 633 161 633 196 674 c 0,4,5
 246 731 246 731 289 758 c 1,6,-1
 303 741 l 1,7,8
 146 562 146 562 146 295 c 128,-1,9
 146 28 146 28 303 -151 c 1,10,-1
 289 -168 l 1,11,12
 269 -155 269 -155 251 -140.5 c 128,-1,13
 233 -126 233 -126 195.5 -84.5 c 128,-1,14
 158 -43 158 -43 132.5 4 c 128,-1,15
 107 51 107 51 86 128 c 128,-1,0
 65 205 65 205 65 292 c 128,-1,1
EndSplineSet
EndChar

StartChar: parenright
Encoding: 41 41 12
Width: 348
GlyphClass: 2
Flags: W
LayerCount: 2
Fore
SplineSet
283 292 m 128,-1,1
 283 205 283 205 262 128 c 128,-1,2
 241 51 241 51 215.5 4 c 128,-1,3
 190 -43 190 -43 152.5 -84.5 c 128,-1,4
 115 -126 115 -126 97 -140.5 c 128,-1,5
 79 -155 79 -155 59 -168 c 1,6,-1
 45 -151 l 1,7,8
 202 28 202 28 202 295 c 128,-1,9
 202 562 202 562 45 741 c 1,10,-1
 59 758 l 1,11,12
 102 731 102 731 144.5 682 c 128,-1,13
 187 633 187 633 214.5 584 c 128,-1,14
 242 535 242 535 262.5 457 c 128,-1,0
 283 379 283 379 283 292 c 128,-1,1
EndSplineSet
EndChar

StartChar: asterisk
Encoding: 42 42 13
Width: 519
GlyphClass: 2
Flags: W
LayerCount: 2
Fore
SplineSet
241 688 m 1,0,-1
 278 688 l 1,1,-1
 293 546 l 1,2,-1
 431 578 l 1,3,-1
 444 545 l 1,4,-1
 312 484 l 1,5,-1
 385 362 l 1,6,-1
 356 341 l 1,7,-1
 260 446 l 1,8,-1
 163 341 l 1,9,-1
 134 362 l 1,10,-1
 207 484 l 1,11,-1
 75 545 l 1,12,-1
 88 578 l 1,13,-1
 226 546 l 1,14,-1
 241 688 l 1,0,-1
EndSplineSet
EndChar

StartChar: plus
Encoding: 43 43 14
Width: 628
GlyphClass: 2
Flags: W
LayerCount: 2
Fore
SplineSet
90 309 m 1,0,-1
 102 354 l 1,1,-1
 285 354 l 1,2,3
 286 417 286 417 286 543 c 1,4,-1
 331 555 l 1,5,-1
 343 544 l 1,6,-1
 343 354 l 1,7,-1
 527 356 l 1,8,-1
 538 344 l 1,9,-1
 527 295 l 1,10,11
 439 295 439 295 344 296 c 1,12,-1
 345 108 l 1,13,-1
 296 97 l 1,14,-1
 284 108 l 1,15,16
 285 190 285 190 285 296 c 1,17,18
 197 297 197 297 101 297 c 1,19,-1
 90 309 l 1,0,-1
EndSplineSet
EndChar

StartChar: comma
Encoding: 44 44 15
Width: 213
GlyphClass: 2
Flags: W
LayerCount: 2
Fore
SplineSet
152.5 64.5 m 128,-1,1
 163 39 163 39 163 4.5 c 128,-1,2
 163 -30 163 -30 133.5 -67 c 128,-1,3
 104 -104 104 -104 61 -127 c 1,4,-1
 45 -109 l 1,5,6
 102 -64 102 -64 102 -19 c 128,-1,7
 102 26 102 26 56 57 c 1,8,-1
 53 77 l 1,9,-1
 109 103 l 1,10,-1
 129 103 l 1,11,0
 142 90 142 90 152.5 64.5 c 128,-1,1
EndSplineSet
EndChar

StartChar: hyphen
Encoding: 45 45 16
Width: 379
GlyphClass: 2
Flags: W
LayerCount: 2
Fore
SplineSet
50 217 m 1,0,-1
 62 256 l 1,1,2
 166 256 166 256 280 262 c 2,3,-1
 318 264 l 1,4,-1
 329 252 l 1,5,-1
 318 200 l 1,6,7
 91 205 91 205 61 205 c 1,8,-1
 50 217 l 1,0,-1
EndSplineSet
EndChar

StartChar: period
Encoding: 46 46 17
Width: 210
GlyphClass: 2
Flags: W
LayerCount: 2
Fore
SplineSet
65.5 7.5 m 128,-1,1
 50 23 50 23 50 46.5 c 128,-1,2
 50 70 50 70 65.5 86 c 128,-1,3
 81 102 81 102 104.5 102 c 128,-1,4
 128 102 128 102 144 86 c 128,-1,5
 160 70 160 70 160 46.5 c 128,-1,6
 160 23 160 23 144 7.5 c 128,-1,7
 128 -8 128 -8 104.5 -8 c 128,-1,0
 81 -8 81 -8 65.5 7.5 c 128,-1,1
EndSplineSet
EndChar

StartChar: slash
Encoding: 47 47 18
Width: 452
GlyphClass: 2
Flags: W
LayerCount: 2
Fore
SplineSet
341 701 m 1,0,-1
 400 711 l 1,1,-1
 412 700 l 1,2,3
 250 317 250 317 111 -21 c 1,4,-1
 52 -31 l 1,5,-1
 40 -20 l 1,6,7
 155 250 155 250 341 701 c 1,0,-1
EndSplineSet
EndChar

StartChar: zero
Encoding: 48 48 19
Width: 603
GlyphClass: 2
Flags: W
LayerCount: 2
Fore
SplineSet
196 572 m 1,0,1
 148 497 148 497 148 353 c 0,2,3
 148 54 148 54 310 54 c 0,4,5
 364 54 364 54 407 78 c 1,6,7
 455 153 455 153 455 297 c 0,8,9
 455 596 455 596 293 596 c 0,10,11
 239 596 239 596 196 572 c 1,0,1
116 85 m 128,-1,13
 55 178 55 178 55 328.5 c 128,-1,14
 55 479 55 479 117.5 568.5 c 128,-1,15
 180 658 180 658 300.5 658 c 128,-1,16
 421 658 421 658 484.5 564.5 c 128,-1,17
 548 471 548 471 548 321.5 c 128,-1,18
 548 172 548 172 482.5 82 c 128,-1,19
 417 -8 417 -8 297 -8 c 128,-1,12
 177 -8 177 -8 116 85 c 128,-1,13
EndSplineSet
EndChar

StartChar: one
Encoding: 49 49 20
Width: 373
GlyphClass: 2
Flags: W
LayerCount: 2
Fore
SplineSet
152 91 m 2,0,-1
 152 545 l 1,1,2
 87 539 87 539 41 531 c 1,3,-1
 35 553 l 1,4,-1
 218 658 l 1,5,-1
 237 650 l 1,6,-1
 237 61 l 1,7,-1
 333 22 l 1,8,-1
 327 0 l 1,9,-1
 52 0 l 1,10,-1
 46 22 l 1,11,-1
 121 53 l 2,12,13
 139 60 139 60 145.5 68 c 128,-1,14
 152 76 152 76 152 91 c 2,0,-1
EndSplineSet
EndChar

StartChar: two
Encoding: 50 50 21
Width: 543
GlyphClass: 2
Flags: W
LayerCount: 2
Fore
SplineSet
293 287 m 128,-1,1
 359 372 359 372 359 443 c 0,2,3
 359 584 359 584 230 584 c 0,4,5
 176 584 176 584 144 569 c 1,6,-1
 139 485 l 1,7,-1
 115 478 l 1,8,-1
 50 568 l 1,9,10
 60 579 60 579 80.5 596 c 128,-1,11
 101 613 101 613 152.5 635.5 c 128,-1,12
 204 658 204 658 256 658 c 0,13,14
 341 658 341 658 396.5 605.5 c 128,-1,15
 452 553 452 553 452 469 c 0,16,17
 452 352 452 352 328 220 c 0,18,19
 284 174 284 174 253.5 146 c 128,-1,20
 223 118 223 118 170 71 c 1,21,-1
 406 73 l 1,22,-1
 453 159 l 1,23,-1
 483 152 l 1,24,-1
 473 0 l 1,25,-1
 57 0 l 1,26,-1
 45 44 l 1,27,0
 227 202 227 202 293 287 c 128,-1,1
EndSplineSet
EndChar

StartChar: three
Encoding: 51 51 22
Width: 502
GlyphClass: 2
Flags: W
LayerCount: 2
Fore
SplineSet
428 487 m 0,0,1
 428 435 428 435 401 393.5 c 128,-1,2
 374 352 374 352 329 326 c 1,3,4
 378 307 378 307 407.5 267 c 128,-1,5
 437 227 437 227 437 178 c 0,6,7
 437 101 437 101 362.5 46.5 c 128,-1,8
 288 -8 288 -8 154 -8 c 0,9,10
 92 -8 92 -8 60 0 c 1,11,-1
 49 19 l 1,12,-1
 65 81 l 1,13,14
 126 65 126 65 202.5 65 c 128,-1,15
 279 65 279 65 330 88 c 1,16,17
 348 114 348 114 348 160.5 c 128,-1,18
 348 207 348 207 320 246.5 c 128,-1,19
 292 286 292 286 238 293 c 1,20,21
 217 290 217 290 193.5 290 c 128,-1,22
 170 290 170 290 148 297 c 1,23,-1
 137 309 l 1,24,-1
 147 347 l 1,25,26
 176 353 176 353 200 353 c 128,-1,27
 224 353 224 353 234 353 c 1,28,29
 339 376 339 376 339 469 c 0,30,31
 339 521 339 521 305 554.5 c 128,-1,32
 271 588 271 588 210 588 c 128,-1,33
 149 588 149 588 114 573 c 1,34,-1
 109 489 l 1,35,-1
 85 482 l 1,36,-1
 25 582 l 1,37,38
 116 658 116 658 229 658 c 0,39,40
 316 658 316 658 372 609.5 c 128,-1,41
 428 561 428 561 428 487 c 0,0,1
EndSplineSet
EndChar

StartChar: four
Encoding: 52 52 23
Width: 526
GlyphClass: 2
Flags: W
LayerCount: 2
Fore
SplineSet
421 172 m 2,0,1
 398 172 398 172 398 150 c 2,2,-1
 400 0 l 1,3,-1
 323 -8 l 1,4,-1
 311 3 l 1,5,6
 314 74 314 74 314 170 c 1,7,-1
 44 170 l 1,8,-1
 30 212 l 1,9,-1
 313 640 l 1,10,-1
 375 658 l 1,11,-1
 395 650 l 1,12,13
 395 596 395 596 398 245 c 1,14,-1
 490 248 l 1,15,-1
 501 236 l 1,16,-1
 490 172 l 1,17,-1
 421 172 l 2,0,1
292 240 m 2,18,19
 314 240 314 240 314 264 c 2,20,-1
 315 533 l 1,21,-1
 120 240 l 1,22,-1
 292 240 l 2,18,19
EndSplineSet
EndChar

StartChar: five
Encoding: 53 53 24
Width: 470
GlyphClass: 2
Flags: W
LayerCount: 2
Fore
SplineSet
425 202 m 0,0,1
 425 116 425 116 355.5 54 c 128,-1,2
 286 -8 286 -8 169 -8 c 0,3,4
 96 -8 96 -8 46 17 c 1,5,-1
 35 36 l 1,6,-1
 52 95 l 1,7,8
 127 63 127 63 186 63 c 128,-1,9
 245 63 245 63 291 77 c 1,10,11
 317 94 317 94 332.5 124.5 c 128,-1,12
 348 155 348 155 348 177 c 128,-1,13
 348 199 348 199 346 212 c 0,14,15
 324 346 324 346 84 346 c 0,16,17
 78 346 78 346 73 346 c 1,18,-1
 62 358 l 1,19,-1
 75 650 l 1,20,21
 209 650 209 650 341 656 c 2,22,-1
 385 658 l 1,23,-1
 396 646 l 1,24,-1
 383 575 l 1,25,26
 230 579 230 579 131 579 c 1,27,-1
 124 427 l 1,28,29
 402 414 402 414 423 230 c 0,30,31
 425 215 425 215 425 202 c 0,0,1
EndSplineSet
EndChar

StartChar: six
Encoding: 54 54 25
Width: 514
GlyphClass: 2
Flags: W
LayerCount: 2
Fore
SplineSet
290 389 m 0,0,1
 341 389 341 389 380 372 c 128,-1,2
 419 355 419 355 441 326 c 0,3,4
 484 269 484 269 484 182.5 c 128,-1,5
 484 96 484 96 421.5 44 c 128,-1,6
 359 -8 359 -8 266 -8 c 0,7,8
 148 -8 148 -8 94 75 c 0,9,10
 50 144 50 144 50 246 c 0,11,12
 50 359 50 359 86.5 436 c 128,-1,13
 123 513 123 513 173 555 c 0,14,15
 267 634 267 634 401 658 c 1,16,-1
 413 625 l 1,17,18
 305 586 305 586 238 523.5 c 128,-1,19
 171 461 171 461 149 348 c 1,20,21
 210 389 210 389 290 389 c 0,0,1
397 173 m 0,22,23
 397 320 397 320 258 320 c 0,24,25
 190 320 190 320 141 283 c 1,26,27
 140 265 140 265 140 248 c 0,28,29
 140 170 140 170 166 118 c 1,30,31
 199 56 199 56 283 56 c 1,32,33
 331 57 331 57 368 71 c 1,34,35
 397 106 397 106 397 173 c 0,22,23
EndSplineSet
EndChar

StartChar: seven
Encoding: 55 55 26
Width: 478
GlyphClass: 2
Flags: W
LayerCount: 2
Fore
SplineSet
446 650 m 1,0,-1
 458 606 l 1,1,2
 365 455 365 455 307 315.5 c 128,-1,3
 249 176 249 176 207 1 c 1,4,-1
 122 -8 l 1,5,-1
 102 0 l 1,6,7
 168 190 168 190 229.5 317 c 128,-1,8
 291 444 291 444 380 579 c 1,9,-1
 107 577 l 1,10,-1
 60 491 l 1,11,-1
 30 498 l 1,12,-1
 40 650 l 1,13,-1
 446 650 l 1,0,-1
EndSplineSet
EndChar

StartChar: eight
Encoding: 56 56 27
Width: 527
GlyphClass: 2
Flags: W
LayerCount: 2
Fore
SplineSet
118.5 608.5 m 128,-1,1
 175 658 175 658 262 658 c 128,-1,2
 349 658 349 658 404 612.5 c 128,-1,3
 459 567 459 567 459 499 c 0,4,5
 459 448 459 448 426.5 406 c 128,-1,6
 394 364 394 364 337 339 c 1,7,8
 477 280 477 280 477 165 c 0,9,10
 477 89 477 89 417.5 40.5 c 128,-1,11
 358 -8 358 -8 260 -8 c 128,-1,12
 162 -8 162 -8 106 35 c 128,-1,13
 50 78 50 78 50 145.5 c 128,-1,14
 50 213 50 213 89.5 257 c 128,-1,15
 129 301 129 301 179 323 c 1,16,17
 124 345 124 345 93 387.5 c 128,-1,18
 62 430 62 430 62 484 c 0,19,0
 62 559 62 559 118.5 608.5 c 128,-1,1
134 166 m 0,20,21
 134 111 134 111 171.5 82.5 c 128,-1,22
 209 54 209 54 272.5 54 c 128,-1,23
 336 54 336 54 378 79 c 1,24,25
 397 105 397 105 397 151 c 128,-1,26
 397 197 397 197 366 228.5 c 128,-1,27
 335 260 335 260 241 297 c 1,28,29
 134 243 134 243 134 166 c 0,20,21
342 569 m 128,-1,31
 309 596 309 596 254.5 596 c 128,-1,32
 200 596 200 596 161 573 c 1,33,34
 142 544 142 544 142 501 c 128,-1,35
 142 458 142 458 167.5 428.5 c 128,-1,36
 193 399 193 399 273 365 c 1,37,38
 375 417 375 417 375 492 c 0,39,30
 375 542 375 542 342 569 c 128,-1,31
EndSplineSet
EndChar

StartChar: nine
Encoding: 57 57 28
Width: 512
GlyphClass: 2
Flags: W
LayerCount: 2
Fore
SplineSet
245 262 m 0,0,1
 146 262 146 262 98 319.5 c 128,-1,2
 50 377 50 377 50 462.5 c 128,-1,3
 50 548 50 548 112.5 603 c 128,-1,4
 175 658 175 658 267 658 c 0,5,6
 381 658 381 658 436 574 c 0,7,8
 482 503 482 503 482 396 c 0,9,10
 482 298 482 298 455 231 c 128,-1,11
 428 164 428 164 395 126 c 128,-1,12
 362 88 362 88 316 60 c 0,13,14
 238 13 238 13 133 -8 c 1,15,-1
 121 25 l 1,16,17
 174 46 174 46 210.5 65.5 c 128,-1,18
 247 85 247 85 286 117 c 0,19,20
 364 181 364 181 386 304 c 1,21,22
 324 262 324 262 245 262 c 0,0,1
172.5 366.5 m 128,-1,24
 208 331 208 331 272.5 331 c 128,-1,25
 337 331 337 331 394 368 c 1,26,27
 395 385 395 385 395 401 c 0,28,29
 395 594 395 594 247 594 c 0,30,31
 200 594 200 594 168 579 c 1,32,33
 137 541 137 541 137 471.5 c 128,-1,23
 137 402 137 402 172.5 366.5 c 128,-1,24
EndSplineSet
EndChar

StartChar: colon
Encoding: 58 58 29
Width: 210
GlyphClass: 2
Flags: W
LayerCount: 2
Fore
SplineSet
65.5 363.5 m 128,-1,1
 50 379 50 379 50 402.5 c 128,-1,2
 50 426 50 426 65.5 442 c 128,-1,3
 81 458 81 458 104.5 458 c 128,-1,4
 128 458 128 458 144 442 c 128,-1,5
 160 426 160 426 160 402.5 c 128,-1,6
 160 379 160 379 144 363.5 c 128,-1,7
 128 348 128 348 104.5 348 c 128,-1,0
 81 348 81 348 65.5 363.5 c 128,-1,1
65.5 7.5 m 128,-1,9
 50 23 50 23 50 46.5 c 128,-1,10
 50 70 50 70 65.5 86 c 128,-1,11
 81 102 81 102 104.5 102 c 128,-1,12
 128 102 128 102 144 86 c 128,-1,13
 160 70 160 70 160 46.5 c 128,-1,14
 160 23 160 23 144 7.5 c 128,-1,15
 128 -8 128 -8 104.5 -8 c 128,-1,8
 81 -8 81 -8 65.5 7.5 c 128,-1,9
EndSplineSet
EndChar

StartChar: semicolon
Encoding: 59 59 30
Width: 213
GlyphClass: 2
Flags: W
LayerCount: 2
Fore
SplineSet
152.5 64.5 m 128,-1,1
 163 39 163 39 163 4.5 c 128,-1,2
 163 -30 163 -30 133.5 -67 c 128,-1,3
 104 -104 104 -104 61 -127 c 1,4,-1
 45 -109 l 1,5,6
 102 -64 102 -64 102 -19 c 128,-1,7
 102 26 102 26 56 57 c 1,8,-1
 53 77 l 1,9,-1
 109 103 l 1,10,-1
 129 103 l 1,11,0
 142 90 142 90 152.5 64.5 c 128,-1,1
68.5 363.5 m 128,-1,13
 53 379 53 379 53 402.5 c 128,-1,14
 53 426 53 426 68.5 442 c 128,-1,15
 84 458 84 458 107.5 458 c 128,-1,16
 131 458 131 458 147 442 c 128,-1,17
 163 426 163 426 163 402.5 c 128,-1,18
 163 379 163 379 147 363.5 c 128,-1,19
 131 348 131 348 107.5 348 c 128,-1,12
 84 348 84 348 68.5 363.5 c 128,-1,13
EndSplineSet
EndChar

StartChar: less
Encoding: 60 60 31
Width: 565
GlyphClass: 2
Flags: W
LayerCount: 2
Fore
SplineSet
97 342 m 1,0,-1
 421 545 l 1,1,-1
 436 538 l 1,2,-1
 450 499 l 1,3,-1
 175 315 l 1,4,-1
 446 133 l 1,5,-1
 447 117 l 1,6,-1
 421 85 l 1,7,-1
 90 292 l 1,8,-1
 90 309 l 1,9,-1
 97 342 l 1,0,-1
EndSplineSet
EndChar

StartChar: equal
Encoding: 61 61 32
Width: 628
GlyphClass: 2
Flags: W
LayerCount: 2
Fore
SplineSet
110 389 m 1,0,-1
 122 434 l 1,1,-1
 507 436 l 1,2,-1
 518 424 l 1,3,-1
 507 375 l 1,4,5
 152 377 152 377 121 377 c 1,6,-1
 110 389 l 1,0,-1
110 229 m 1,7,-1
 122 274 l 1,8,-1
 507 276 l 1,9,-1
 518 264 l 1,10,-1
 507 215 l 1,11,12
 152 217 152 217 121 217 c 1,13,-1
 110 229 l 1,7,-1
EndSplineSet
EndChar

StartChar: greater
Encoding: 62 62 33
Width: 565
GlyphClass: 2
Flags: W
LayerCount: 2
Fore
SplineSet
468 288 m 1,0,-1
 144 85 l 1,1,-1
 129 92 l 1,2,-1
 115 131 l 1,3,-1
 390 315 l 1,4,-1
 119 497 l 1,5,-1
 118 513 l 1,6,-1
 144 545 l 1,7,-1
 475 338 l 1,8,-1
 475 321 l 1,9,-1
 468 288 l 1,0,-1
EndSplineSet
EndChar

StartChar: question
Encoding: 63 63 34
Width: 406
GlyphClass: 2
Flags: W
LayerCount: 2
Fore
SplineSet
240 391 m 128,-1,1
 278 423 278 423 278 483.5 c 128,-1,2
 278 544 278 544 245 573 c 1,3,4
 213 585 213 585 151 585 c 128,-1,5
 89 585 89 585 36 568 c 1,6,-1
 25 622 l 1,7,-1
 36 640 l 1,8,9
 72 658 72 658 133 658 c 0,10,11
 229 658 229 658 292.5 609 c 128,-1,12
 356 560 356 560 356 481.5 c 128,-1,13
 356 403 356 403 308 356 c 128,-1,14
 260 309 260 309 166 268 c 1,15,-1
 158 182 l 1,16,-1
 120 180 l 1,17,-1
 106 318 l 1,18,0
 202 359 202 359 240 391 c 128,-1,1
90 48 m 128,-1,20
 90 72 90 72 105.5 87.5 c 128,-1,21
 121 103 121 103 145 103 c 128,-1,22
 169 103 169 103 184.5 87 c 128,-1,23
 200 71 200 71 200 48 c 128,-1,24
 200 25 200 25 184 9 c 128,-1,25
 168 -7 168 -7 144.5 -7 c 128,-1,26
 121 -7 121 -7 105.5 8.5 c 128,-1,19
 90 24 90 24 90 48 c 128,-1,20
EndSplineSet
EndChar

StartChar: at
Encoding: 64 64 35
Width: 1084
GlyphClass: 2
Flags: W
LayerCount: 2
Fore
SplineSet
742 450 m 1,0,1
 704 106 704 106 704 87 c 128,-1,2
 704 68 704 68 721 53.5 c 128,-1,3
 738 39 738 39 767 39 c 0,4,5
 835 39 835 39 872.5 110 c 128,-1,6
 910 181 910 181 910 282 c 0,7,8
 910 433 910 433 824 527.5 c 128,-1,9
 738 622 738 622 589 622 c 0,10,11
 415 622 415 622 296 498 c 128,-1,12
 177 374 177 374 177 175 c 0,13,14
 177 7 177 7 265.5 -84.5 c 128,-1,15
 354 -176 354 -176 496 -176 c 0,16,17
 613 -176 613 -176 721 -120 c 1,18,-1
 736 -149 l 1,19,20
 720 -162 720 -162 695 -177 c 128,-1,21
 670 -192 670 -192 606 -212.5 c 128,-1,22
 542 -233 542 -233 482 -233 c 128,-1,23
 422 -233 422 -233 370.5 -221 c 128,-1,24
 319 -209 319 -209 267.5 -180.5 c 128,-1,25
 216 -152 216 -152 177 -108.5 c 128,-1,26
 138 -65 138 -65 114 3.5 c 128,-1,27
 90 72 90 72 90 162.5 c 128,-1,28
 90 253 90 253 119 336.5 c 128,-1,29
 148 420 148 420 198.5 481.5 c 128,-1,30
 249 543 249 543 316 588 c 0,31,32
 448 678 448 678 616 678 c 128,-1,33
 784 678 784 678 889 574.5 c 128,-1,34
 994 471 994 471 994 298 c 0,35,36
 994 217 994 217 969.5 154.5 c 128,-1,37
 945 92 945 92 906 58 c 1,38,39
 827 -8 827 -8 744 -8 c 0,40,41
 701 -8 701 -8 672 10.5 c 128,-1,42
 643 29 643 29 633 60 c 1,43,44
 605 32 605 32 563.5 12 c 128,-1,45
 522 -8 522 -8 481 -8 c 0,46,47
 413 -8 413 -8 378 46.5 c 128,-1,48
 343 101 343 101 343 185 c 0,49,50
 343 298 343 298 404 378 c 128,-1,51
 465 458 465 458 575 458 c 0,52,53
 630 458 630 458 684 445 c 1,54,-1
 723 458 l 1,55,-1
 742 450 l 1,0,1
657 380 m 1,56,57
 617 399 617 399 570 399 c 128,-1,58
 523 399 523 399 480 384 c 1,59,60
 453 354 453 354 439.5 303 c 128,-1,61
 426 252 426 252 426 189.5 c 128,-1,62
 426 127 426 127 452 91.5 c 128,-1,63
 478 56 478 56 521 56 c 0,64,65
 579 56 579 56 627 106 c 1,66,-1
 657 380 l 1,56,57
EndSplineSet
EndChar

StartChar: A
Encoding: 65 65 36
Width: 682
GlyphClass: 2
Flags: W
LayerCount: 2
Fore
SplineSet
490 70 m 0,0,1
 490 76 490 76 487 83 c 2,2,-1
 442 210 l 1,3,-1
 210 210 l 1,4,-1
 157 57 l 1,5,-1
 243 22 l 1,6,-1
 237 0 l 1,7,-1
 16 0 l 1,8,-1
 10 22 l 1,9,-1
 65 45 l 2,10,11
 82 52 82 52 86.5 58 c 128,-1,12
 91 64 91 64 98 83 c 2,13,-1
 298 640 l 1,14,-1
 359 658 l 1,15,-1
 379 650 l 1,16,-1
 594 54 l 1,17,-1
 672 22 l 1,18,-1
 666 0 l 1,19,-1
 421 0 l 1,20,-1
 415 22 l 1,21,-1
 470 45 l 2,22,23
 490 53 490 53 490 70 c 0,0,1
325 542 m 1,24,-1
 227 261 l 1,25,-1
 424 261 l 1,26,-1
 325 542 l 1,24,-1
EndSplineSet
EndChar

StartChar: B
Encoding: 66 66 37
Width: 621
GlyphClass: 2
Flags: W
LayerCount: 2
Fore
SplineSet
131 83 m 2,0,-1
 131 593 l 1,1,-1
 45 628 l 1,2,-1
 51 650 l 1,3,4
 246 658 246 658 307 658 c 0,5,6
 556 658 556 658 556 489 c 0,7,8
 556 388 556 388 465 339 c 1,9,10
 586 297 586 297 586 172 c 0,11,12
 586 127 586 127 568.5 93.5 c 128,-1,13
 551 60 551 60 524 41 c 128,-1,14
 497 22 497 22 456 10 c 0,15,16
 391 -8 391 -8 321 -8 c 128,-1,17
 251 -8 251 -8 51 0 c 1,18,-1
 45 22 l 1,19,-1
 100 45 l 2,20,21
 118 52 118 52 124.5 60 c 128,-1,22
 131 68 131 68 131 83 c 2,0,-1
340 305 m 2,23,-1
 243 305 l 2,24,25
 216 305 216 305 216 280 c 2,26,-1
 216 53 l 1,27,28
 242 49 242 49 319 49 c 128,-1,29
 396 49 396 49 454 67 c 1,30,31
 493 97 493 97 493 165 c 0,32,33
 493 305 493 305 340 305 c 2,23,-1
325 603 m 2,34,-1
 243 603 l 2,35,36
 216 603 216 603 216 578 c 2,37,-1
 216 360 l 1,38,39
 242 356 242 356 310 356 c 128,-1,40
 378 356 378 356 427 376 c 1,41,42
 463 403 463 403 463 464.5 c 128,-1,43
 463 526 463 526 431.5 564.5 c 128,-1,44
 400 603 400 603 325 603 c 2,34,-1
EndSplineSet
EndChar

StartChar: C
Encoding: 67 67 38
Width: 583
GlyphClass: 2
Flags: W
LayerCount: 2
Fore
SplineSet
339 -8 m 0,0,1
 206 -8 206 -8 120.5 79 c 128,-1,2
 35 166 35 166 35 324 c 128,-1,3
 35 482 35 482 128 570 c 128,-1,4
 221 658 221 658 351 658 c 0,5,6
 444 658 444 658 496 617 c 0,7,8
 531 589 531 589 544 567 c 1,9,-1
 479 477 l 1,10,-1
 455 484 l 1,11,-1
 450 578 l 1,12,13
 404 594 404 594 334 594 c 128,-1,14
 264 594 264 594 214 572 c 1,15,16
 124 488 124 488 124 334 c 0,17,18
 124 199 124 199 194 126.5 c 128,-1,19
 264 54 264 54 371 54 c 0,20,21
 452 54 452 54 538 97 c 1,22,-1
 553 68 l 1,23,24
 527 42 527 42 470.5 17 c 128,-1,25
 414 -8 414 -8 339 -8 c 0,0,1
EndSplineSet
EndChar

StartChar: D
Encoding: 68 68 39
Width: 704
GlyphClass: 2
Flags: W
LayerCount: 2
Fore
SplineSet
131 83 m 2,0,-1
 131 593 l 1,1,-1
 45 628 l 1,2,-1
 51 650 l 1,3,4
 277 658 277 658 335 658 c 0,5,6
 669 658 669 658 669 316 c 0,7,8
 669 138 669 138 574.5 65 c 128,-1,9
 480 -8 480 -8 276 -8 c 0,10,11
 251 -8 251 -8 51 0 c 1,12,-1
 45 22 l 1,13,-1
 100 45 l 2,14,15
 118 52 118 52 124.5 60 c 128,-1,16
 131 68 131 68 131 83 c 2,0,-1
350 603 m 2,17,-1
 243 603 l 2,18,19
 216 603 216 603 216 578 c 2,20,-1
 216 53 l 1,21,22
 255 49 255 49 316 49 c 0,23,24
 448 49 448 49 514 92 c 1,25,26
 576 168 576 168 576 306.5 c 128,-1,27
 576 445 576 445 518 524 c 128,-1,28
 460 603 460 603 350 603 c 2,17,-1
EndSplineSet
EndChar

StartChar: E
Encoding: 69 69 40
Width: 561
GlyphClass: 2
Flags: W
LayerCount: 2
Fore
SplineSet
216 568 m 2,0,-1
 216 352 l 1,1,2
 311 352 311 352 408 361 c 2,3,-1
 441 364 l 1,4,-1
 452 352 l 1,5,-1
 441 296 l 1,6,7
 322 303 322 303 216 303 c 1,8,-1
 216 52 l 1,9,-1
 433 56 l 1,10,-1
 481 144 l 1,11,-1
 511 137 l 1,12,-1
 511 0 l 1,13,-1
 51 0 l 1,14,-1
 45 22 l 1,15,-1
 100 45 l 2,16,17
 118 52 118 52 124.5 60 c 128,-1,18
 131 68 131 68 131 83 c 2,19,-1
 131 593 l 1,20,-1
 45 628 l 1,21,-1
 51 650 l 1,22,-1
 506 650 l 1,23,-1
 506 513 l 1,24,-1
 476 506 l 1,25,-1
 428 594 l 1,26,-1
 243 598 l 2,27,28
 216 598 216 598 216 568 c 2,0,-1
EndSplineSet
EndChar

StartChar: F
Encoding: 70 70 41
Width: 541
GlyphClass: 2
Flags: W
LayerCount: 2
Fore
SplineSet
216 306 m 1,0,-1
 216 58 l 1,1,-1
 305 22 l 1,2,-1
 299 0 l 1,3,-1
 51 0 l 1,4,-1
 45 22 l 1,5,-1
 100 45 l 2,6,7
 118 52 118 52 124.5 60 c 128,-1,8
 131 68 131 68 131 83 c 2,9,-1
 131 593 l 1,10,-1
 45 628 l 1,11,-1
 51 650 l 1,12,-1
 516 650 l 1,13,-1
 516 513 l 1,14,-1
 486 506 l 1,15,-1
 438 594 l 1,16,-1
 243 598 l 2,17,18
 216 598 216 598 216 567 c 2,19,-1
 216 359 l 1,20,-1
 376 359 l 1,21,-1
 408 428 l 1,22,-1
 430 422 l 1,23,-1
 430 236 l 1,24,-1
 408 230 l 1,25,-1
 389 275 l 2,26,27
 382 293 382 293 374 299.5 c 128,-1,28
 366 306 366 306 351 306 c 2,29,-1
 216 306 l 1,0,-1
EndSplineSet
EndChar

StartChar: G
Encoding: 71 71 42
Width: 647
GlyphClass: 2
Flags: W
LayerCount: 2
Fore
SplineSet
563 200 m 2,0,-1
 563 55 l 1,1,2
 474 -8 474 -8 343 -8 c 128,-1,3
 212 -8 212 -8 123.5 77 c 128,-1,4
 35 162 35 162 35 318 c 0,5,6
 35 404 35 404 64 471.5 c 128,-1,7
 93 539 93 539 142 578 c 0,8,9
 241 658 241 658 376.5 658 c 128,-1,10
 512 658 512 658 571 567 c 1,11,-1
 506 477 l 1,12,-1
 482 484 l 1,13,-1
 477 578 l 1,14,15
 431 594 431 594 353.5 594 c 128,-1,16
 276 594 276 594 227 572 c 1,17,18
 124 481 124 481 124 338 c 128,-1,19
 124 195 124 195 197.5 124.5 c 128,-1,20
 271 54 271 54 389 54 c 0,21,22
 419 54 419 54 444 58 c 0,23,24
 481 65 481 65 481 95 c 2,25,-1
 481 225 l 1,26,-1
 395 257 l 1,27,-1
 401 279 l 1,28,-1
 625 279 l 1,29,-1
 632 253 l 1,30,-1
 594 238 l 2,31,32
 576 231 576 231 569.5 223 c 128,-1,33
 563 215 563 215 563 200 c 2,0,-1
EndSplineSet
EndChar

StartChar: H
Encoding: 72 72 43
Width: 755
GlyphClass: 2
Flags: W
LayerCount: 2
Fore
SplineSet
624 567 m 2,0,-1
 624 57 l 1,1,-1
 710 22 l 1,2,-1
 704 0 l 1,3,-1
 459 0 l 1,4,-1
 453 22 l 1,5,-1
 508 45 l 2,6,7
 526 52 526 52 532.5 60 c 128,-1,8
 539 68 539 68 539 83 c 2,9,-1
 539 304 l 1,10,-1
 216 304 l 1,11,-1
 216 57 l 1,12,-1
 302 22 l 1,13,-1
 296 0 l 1,14,-1
 51 0 l 1,15,-1
 45 22 l 1,16,-1
 100 45 l 2,17,18
 118 52 118 52 124.5 60 c 128,-1,19
 131 68 131 68 131 83 c 2,20,-1
 131 593 l 1,21,-1
 45 628 l 1,22,-1
 51 650 l 1,23,-1
 296 650 l 1,24,-1
 302 628 l 1,25,-1
 247 605 l 2,26,27
 229 598 229 598 222.5 590 c 128,-1,28
 216 582 216 582 216 567 c 2,29,-1
 216 361 l 1,30,-1
 539 361 l 1,31,-1
 539 593 l 1,32,-1
 453 628 l 1,33,-1
 459 650 l 1,34,-1
 704 650 l 1,35,-1
 710 628 l 1,36,-1
 655 605 l 2,37,38
 637 598 637 598 630.5 590 c 128,-1,39
 624 582 624 582 624 567 c 2,0,-1
EndSplineSet
EndChar

StartChar: I
Encoding: 73 73 44
Width: 347
GlyphClass: 2
Flags: W
LayerCount: 2
Fore
SplineSet
216 567 m 2,0,-1
 216 57 l 1,1,-1
 302 22 l 1,2,-1
 296 0 l 1,3,-1
 51 0 l 1,4,-1
 45 22 l 1,5,-1
 100 45 l 2,6,7
 118 52 118 52 124.5 60 c 128,-1,8
 131 68 131 68 131 83 c 2,9,-1
 131 593 l 1,10,-1
 45 628 l 1,11,-1
 51 650 l 1,12,-1
 296 650 l 1,13,-1
 302 628 l 1,14,-1
 247 605 l 2,15,16
 229 598 229 598 222.5 590 c 128,-1,17
 216 582 216 582 216 567 c 2,0,-1
EndSplineSet
EndChar

StartChar: J
Encoding: 74 74 45
Width: 307
GlyphClass: 2
Flags: W
LayerCount: 2
Fore
SplineSet
206 567 m 2,0,-1
 206 -8 l 2,1,2
 206 -159 206 -159 64 -238 c 1,3,-1
 46 -215 l 1,4,5
 87 -167 87 -167 104 -120.5 c 128,-1,6
 121 -74 121 -74 121 0 c 2,7,-1
 121 593 l 1,8,-1
 35 628 l 1,9,-1
 41 650 l 1,10,-1
 286 650 l 1,11,-1
 292 628 l 1,12,-1
 237 605 l 2,13,14
 219 598 219 598 212.5 590 c 128,-1,15
 206 582 206 582 206 567 c 2,0,-1
EndSplineSet
EndChar

StartChar: K
Encoding: 75 75 46
Width: 667
GlyphClass: 2
Flags: W
LayerCount: 2
Fore
SplineSet
503 0 m 1,0,-1
 237 341 l 1,1,-1
 485 593 l 1,2,-1
 399 628 l 1,3,-1
 405 650 l 1,4,-1
 633 650 l 1,5,-1
 639 628 l 1,6,-1
 584 605 l 2,7,8
 576 602 576 602 573 600 c 128,-1,9
 570 598 570 598 566.5 597 c 128,-1,10
 563 596 563 596 559.5 592.5 c 128,-1,11
 556 589 556 589 554 587.5 c 128,-1,12
 552 586 552 586 545.5 579 c 128,-1,13
 539 572 539 572 534 567 c 2,14,-1
 331 360 l 1,15,-1
 566 57 l 1,16,-1
 652 22 l 1,17,-1
 646 0 l 1,18,-1
 503 0 l 1,0,-1
216 567 m 2,19,-1
 216 57 l 1,20,-1
 302 22 l 1,21,-1
 296 0 l 1,22,-1
 51 0 l 1,23,-1
 45 22 l 1,24,-1
 100 45 l 2,25,26
 118 52 118 52 124.5 60 c 128,-1,27
 131 68 131 68 131 83 c 2,28,-1
 131 593 l 1,29,-1
 45 628 l 1,30,-1
 51 650 l 1,31,-1
 296 650 l 1,32,-1
 302 628 l 1,33,-1
 247 605 l 2,34,35
 229 598 229 598 222.5 590 c 128,-1,36
 216 582 216 582 216 567 c 2,19,-1
EndSplineSet
EndChar

StartChar: L
Encoding: 76 76 47
Width: 541
GlyphClass: 2
Flags: W
LayerCount: 2
Fore
SplineSet
216 567 m 2,0,-1
 216 52 l 1,1,-1
 438 56 l 1,2,-1
 486 144 l 1,3,-1
 516 137 l 1,4,-1
 516 0 l 1,5,-1
 51 0 l 1,6,-1
 45 22 l 1,7,-1
 100 45 l 2,8,9
 118 52 118 52 124.5 60 c 128,-1,10
 131 68 131 68 131 83 c 2,11,-1
 131 593 l 1,12,-1
 45 628 l 1,13,-1
 51 650 l 1,14,-1
 296 650 l 1,15,-1
 302 628 l 1,16,-1
 247 605 l 2,17,18
 229 598 229 598 222.5 590 c 128,-1,19
 216 582 216 582 216 567 c 2,0,-1
EndSplineSet
EndChar

StartChar: M
Encoding: 77 77 48
Width: 904
GlyphClass: 2
Flags: W
LayerCount: 2
Fore
SplineSet
755 567 m 2,0,-1
 778 57 l 1,1,-1
 864 22 l 1,2,-1
 858 0 l 1,3,-1
 621 0 l 1,4,-1
 615 22 l 1,5,-1
 660 44 l 2,6,7
 692 59 692 59 691 83 c 2,8,-1
 669 573 l 1,9,-1
 477 20 l 1,10,-1
 415 0 l 1,11,-1
 396 10 l 1,12,-1
 209 572 l 1,13,-1
 181 57 l 1,14,-1
 257 22 l 1,15,-1
 251 0 l 1,16,-1
 41 0 l 1,17,-1
 35 22 l 1,18,-1
 90 45 l 2,19,20
 115 56 115 56 118 67 c 0,21,22
 120 72 120 72 121 83 c 2,23,-1
 146 593 l 1,24,-1
 60 628 l 1,25,-1
 66 650 l 1,26,-1
 268 650 l 1,27,-1
 281 640 l 1,28,-1
 450 118 l 1,29,-1
 627 650 l 1,30,-1
 835 650 l 1,31,-1
 841 628 l 1,32,-1
 786 605 l 2,33,34
 754 592 754 592 755 567 c 2,0,-1
EndSplineSet
EndChar

StartChar: N
Encoding: 78 78 49
Width: 750
GlyphClass: 2
Flags: W
LayerCount: 2
Fore
SplineSet
639 567 m 2,0,-1
 639 0 l 1,1,-1
 567 -8 l 1,2,-1
 197 518 l 1,3,-1
 197 57 l 1,4,-1
 283 22 l 1,5,-1
 277 0 l 1,6,-1
 51 0 l 1,7,-1
 45 22 l 1,8,-1
 100 45 l 2,9,10
 118 52 118 52 124.5 60 c 128,-1,11
 131 68 131 68 131 83 c 2,12,-1
 131 593 l 1,13,-1
 45 628 l 1,14,-1
 51 650 l 1,15,-1
 218 650 l 1,16,-1
 572 146 l 1,17,-1
 572 144 l 1,18,-1
 573 146 l 1,19,-1
 573 593 l 1,20,-1
 487 628 l 1,21,-1
 493 650 l 1,22,-1
 719 650 l 1,23,-1
 725 628 l 1,24,-1
 670 605 l 2,25,26
 652 598 652 598 645.5 590 c 128,-1,27
 639 582 639 582 639 567 c 2,0,-1
EndSplineSet
EndChar

StartChar: O
Encoding: 79 79 50
Width: 683
GlyphClass: 2
Flags: W
LayerCount: 2
Fore
SplineSet
190 557 m 1,0,1
 128 472 128 472 128 338 c 128,-1,2
 128 204 128 204 184.5 129 c 128,-1,3
 241 54 241 54 348 54 c 0,4,5
 437 54 437 54 493 91 c 1,6,7
 555 167 555 167 555 305.5 c 128,-1,8
 555 444 555 444 498.5 519 c 128,-1,9
 442 594 442 594 336 594 c 0,10,11
 248 594 248 594 190 557 c 1,0,1
35 320 m 0,12,13
 35 404 35 404 61 470 c 128,-1,14
 87 536 87 536 132 576 c 0,15,16
 223 658 223 658 352.5 658 c 128,-1,17
 482 658 482 658 565 570 c 128,-1,18
 648 482 648 482 648 328 c 0,19,20
 648 244 648 244 622 178.5 c 128,-1,21
 596 113 596 113 552 73 c 0,22,23
 461 -8 461 -8 331 -8 c 128,-1,24
 201 -8 201 -8 118 79 c 128,-1,25
 35 166 35 166 35 320 c 0,12,13
EndSplineSet
EndChar

StartChar: P
Encoding: 80 80 51
Width: 551
GlyphClass: 2
Flags: W
LayerCount: 2
Fore
SplineSet
284 273 m 0,0,1
 262 273 262 273 216 275 c 1,2,-1
 216 61 l 1,3,-1
 312 22 l 1,4,-1
 306 0 l 1,5,-1
 51 0 l 1,6,-1
 45 22 l 1,7,-1
 100 45 l 2,8,9
 118 52 118 52 124.5 60 c 128,-1,10
 131 68 131 68 131 83 c 2,11,-1
 131 593 l 1,12,-1
 45 628 l 1,13,-1
 51 650 l 1,14,15
 210 658 210 658 273 658 c 0,16,17
 404 658 404 658 467.5 611.5 c 128,-1,18
 531 565 531 565 531 468 c 0,19,20
 531 273 531 273 284 273 c 0,0,1
290 603 m 2,21,-1
 243 603 l 2,22,23
 216 603 216 603 216 578 c 2,24,-1
 216 330 l 1,25,26
 242 326 242 326 276 326 c 0,27,28
 346 326 346 326 402 349 c 1,29,30
 438 377 438 377 438 452 c 0,31,32
 438 603 438 603 290 603 c 2,21,-1
EndSplineSet
EndChar

StartChar: Q
Encoding: 81 81 52
Width: 698
GlyphClass: 2
Flags: W
LayerCount: 2
Fore
SplineSet
35 320 m 0,0,1
 35 404 35 404 61 470 c 128,-1,2
 87 536 87 536 132 576 c 0,3,4
 223 658 223 658 353 658 c 128,-1,5
 483 658 483 658 565.5 569.5 c 128,-1,6
 648 481 648 481 648 320 c 0,7,8
 648 261 648 261 635 213.5 c 128,-1,9
 622 166 622 166 605 137.5 c 128,-1,10
 588 109 588 109 557.5 83.5 c 128,-1,11
 527 58 527 58 508 47 c 128,-1,12
 489 36 489 36 455 19 c 1,13,-1
 483 9 l 1,14,15
 526 -3 526 -3 576 -35 c 128,-1,16
 626 -67 626 -67 670 -94 c 1,17,18
 723 -128 723 -128 754.5 -128 c 128,-1,19
 786 -128 786 -128 825 -110 c 1,20,-1
 839 -131 l 1,21,-1
 739 -198 l 1,22,23
 692 -195 692 -195 656 -175.5 c 128,-1,24
 620 -156 620 -156 545.5 -99.5 c 128,-1,25
 471 -43 471 -43 434.5 -29.5 c 128,-1,26
 398 -16 398 -16 323 -14 c 1,27,28
 321 -7 321 -7 317 -7 c 2,29,-1
 307 -7 l 1,30,31
 184 2 184 2 109.5 88 c 128,-1,32
 35 174 35 174 35 320 c 0,0,1
190 557 m 1,33,34
 128 472 128 472 128 338 c 128,-1,35
 128 204 128 204 184.5 129 c 128,-1,36
 241 54 241 54 348 54 c 0,37,38
 437 54 437 54 493 91 c 1,39,40
 555 167 555 167 555 305.5 c 128,-1,41
 555 444 555 444 498.5 519 c 128,-1,42
 442 594 442 594 336 594 c 0,43,44
 248 594 248 594 190 557 c 1,33,34
EndSplineSet
EndChar

StartChar: R
Encoding: 82 82 53
Width: 601
GlyphClass: 2
Flags: W
LayerCount: 2
Fore
SplineSet
274 282 m 2,0,-1
 216 282 l 1,1,-1
 216 57 l 1,2,-1
 299 22 l 1,3,-1
 293 0 l 1,4,-1
 51 0 l 1,5,-1
 45 22 l 1,6,-1
 100 45 l 2,7,8
 118 52 118 52 124.5 60 c 128,-1,9
 131 68 131 68 131 83 c 2,10,-1
 131 593 l 1,11,-1
 45 628 l 1,12,-1
 51 650 l 1,13,14
 216 658 216 658 277 658 c 0,15,16
 536 658 536 658 536 472 c 0,17,18
 536 325 536 325 378 290 c 1,19,20
 389 280 389 280 398 261 c 0,21,22
 466 122 466 122 499 81 c 128,-1,23
 532 40 532 40 601 25 c 1,24,-1
 594 0 l 1,25,-1
 482 -8 l 1,26,27
 428 36 428 36 400.5 79 c 128,-1,28
 373 122 373 122 310 255 c 0,29,30
 297 282 297 282 274 282 c 2,0,-1
216 578 m 2,31,-1
 216 333 l 1,32,-1
 281 333 l 2,33,34
 355 333 355 333 397 350 c 1,35,36
 419 366 419 366 431 387.5 c 128,-1,37
 443 409 443 409 443 451 c 0,38,39
 443 516 443 516 408.5 559.5 c 128,-1,40
 374 603 374 603 295 603 c 2,41,-1
 243 603 l 2,42,43
 216 603 216 603 216 578 c 2,31,-1
EndSplineSet
EndChar

StartChar: S
Encoding: 83 83 54
Width: 505
GlyphClass: 2
Flags: W
LayerCount: 2
Fore
SplineSet
358 578 m 1,0,1
 325 596 325 596 255.5 596 c 128,-1,2
 186 596 186 596 142 559 c 1,3,4
 130 540 130 540 130 504 c 0,5,6
 130 427 130 427 212 396 c 2,7,-1
 342 346 l 2,8,9
 470 297 470 297 470 169 c 0,10,11
 470 82 470 82 409 37 c 128,-1,12
 348 -8 348 -8 251 -8 c 0,13,14
 117 -8 117 -8 30 74 c 1,15,-1
 94 183 l 1,16,-1
 118 176 l 1,17,-1
 133 80 l 1,18,19
 170 54 170 54 240 54 c 0,20,21
 389 54 389 54 389 155 c 0,22,23
 389 196 389 196 363 222 c 128,-1,24
 337 248 337 248 282 269 c 2,25,-1
 167 313 l 2,26,27
 50 358 50 358 50 475 c 0,28,29
 50 563 50 563 112 610.5 c 128,-1,30
 174 658 174 658 270 658 c 0,31,32
 387 658 387 658 458 576 c 1,33,-1
 387 477 l 1,34,-1
 363 484 l 1,35,-1
 358 578 l 1,0,1
EndSplineSet
EndChar

StartChar: T
Encoding: 84 84 55
Width: 535
GlyphClass: 2
Flags: W
LayerCount: 2
Fore
SplineSet
520 650 m 1,0,-1
 520 513 l 1,1,-1
 496 506 l 1,2,-1
 446 599 l 1,3,-1
 337 602 l 2,4,5
 324 603 324 603 317 595 c 128,-1,6
 310 587 310 587 310 576 c 2,7,-1
 310 57 l 1,8,-1
 396 22 l 1,9,-1
 390 0 l 1,10,-1
 145 0 l 1,11,-1
 139 22 l 1,12,-1
 194 45 l 2,13,14
 212 52 212 52 218.5 60 c 128,-1,15
 225 68 225 68 225 83 c 2,16,-1
 225 603 l 1,17,-1
 89 599 l 1,18,-1
 39 506 l 1,19,-1
 15 513 l 1,20,-1
 15 650 l 1,21,-1
 520 650 l 1,0,-1
EndSplineSet
EndChar

StartChar: U
Encoding: 85 85 56
Width: 692
GlyphClass: 2
Flags: W
LayerCount: 2
Fore
SplineSet
596 567 m 2,0,-1
 596 255 l 2,1,2
 596 114 596 114 538 53 c 128,-1,3
 480 -8 480 -8 357 -8 c 0,4,5
 96 -8 96 -8 96 252 c 2,6,-1
 96 597 l 1,7,-1
 20 628 l 1,8,-1
 26 650 l 1,9,-1
 261 650 l 1,10,-1
 262 628 l 1,11,-1
 212 605 l 1,12,13
 194 598 194 598 187.5 590 c 128,-1,14
 181 582 181 582 181 567 c 2,15,-1
 181 257 l 2,16,17
 181 160 181 160 227.5 107 c 128,-1,18
 274 54 274 54 353 54 c 128,-1,19
 432 54 432 54 480 78 c 1,20,21
 530 131 530 131 530 252 c 2,22,-1
 530 593 l 1,23,-1
 444 628 l 1,24,-1
 450 650 l 1,25,-1
 666 650 l 1,26,-1
 672 628 l 1,27,-1
 627 609 l 1,28,29
 596 597 596 597 596 567 c 2,0,-1
EndSplineSet
EndChar

StartChar: V
Encoding: 86 86 57
Width: 682
GlyphClass: 2
Flags: W
LayerCount: 2
Fore
SplineSet
192 580 m 0,0,1
 192 574 192 574 195 567 c 2,2,-1
 357 108 l 1,3,-1
 525 593 l 1,4,-1
 439 628 l 1,5,-1
 445 650 l 1,6,-1
 666 650 l 1,7,-1
 672 628 l 1,8,-1
 617 605 l 2,9,10
 600 598 600 598 595.5 592 c 128,-1,11
 591 586 591 586 584 567 c 2,12,-1
 384 10 l 1,13,-1
 323 -8 l 1,14,-1
 303 0 l 1,15,-1
 88 596 l 1,16,-1
 10 628 l 1,17,-1
 16 650 l 1,18,-1
 261 650 l 1,19,-1
 267 628 l 1,20,-1
 212 605 l 2,21,22
 192 597 192 597 192 580 c 0,0,1
EndSplineSet
EndChar

StartChar: W
Encoding: 87 87 58
Width: 1016
GlyphClass: 2
Flags: W
LayerCount: 2
Fore
SplineSet
193 580 m 0,0,1
 193 574 193 574 195 567 c 2,2,-1
 328 108 l 1,3,-1
 480 630 l 1,4,-1
 541 650 l 1,5,-1
 560 640 l 1,6,-1
 717 108 l 1,7,-1
 858 593 l 1,8,-1
 772 628 l 1,9,-1
 778 650 l 1,10,-1
 1000 650 l 1,11,-1
 1006 628 l 1,12,-1
 951 605 l 2,13,14
 934 598 934 598 929 591.5 c 128,-1,15
 924 585 924 585 918 567 c 2,16,-1
 749 10 l 1,17,-1
 675 -8 l 1,18,-1
 655 0 l 1,19,-1
 507 499 l 1,20,-1
 366 10 l 1,21,-1
 289 -8 l 1,22,-1
 269 0 l 1,23,-1
 88 596 l 1,24,-1
 10 628 l 1,25,-1
 16 650 l 1,26,-1
 261 650 l 1,27,-1
 267 628 l 1,28,-1
 212 605 l 2,29,30
 193 597 193 597 193 580 c 0,0,1
EndSplineSet
EndChar

StartChar: X
Encoding: 88 88 59
Width: 673
GlyphClass: 2
Flags: W
LayerCount: 2
Fore
SplineSet
456 45 m 2,0,1
 470 51 470 51 470 61 c 128,-1,2
 470 71 470 71 461 83 c 2,3,-1
 324 273 l 1,4,-1
 167 57 l 1,5,-1
 253 22 l 1,6,-1
 247 0 l 1,7,-1
 21 0 l 1,8,-1
 15 22 l 1,9,-1
 70 45 l 2,10,11
 87 52 87 52 93 59 c 128,-1,12
 99 66 99 66 104 74 c 128,-1,13
 109 82 109 82 110 83 c 2,14,-1
 286 326 l 1,15,-1
 92 596 l 1,16,-1
 20 628 l 1,17,-1
 26 650 l 1,18,-1
 271 650 l 1,19,-1
 277 628 l 1,20,-1
 222 605 l 2,21,22
 208 599 208 599 208 589 c 128,-1,23
 208 579 208 579 217 567 c 2,24,-1
 346 387 l 1,25,-1
 491 593 l 1,26,-1
 405 628 l 1,27,-1
 411 650 l 1,28,-1
 637 650 l 1,29,-1
 643 628 l 1,30,-1
 588 605 l 2,31,32
 576 600 576 600 573 597.5 c 128,-1,33
 570 595 570 595 568.5 594 c 128,-1,34
 567 593 567 593 563.5 588.5 c 128,-1,35
 560 584 560 584 559 583 c 128,-1,36
 558 582 558 582 554 575.5 c 128,-1,37
 550 569 550 569 548 567 c 2,38,-1
 384 334 l 1,39,-1
 586 54 l 1,40,-1
 658 22 l 1,41,-1
 652 0 l 1,42,-1
 407 0 l 1,43,-1
 401 22 l 1,44,-1
 456 45 l 2,0,1
EndSplineSet
EndChar

StartChar: Y
Encoding: 89 89 60
Width: 633
GlyphClass: 2
Flags: W
LayerCount: 2
Fore
SplineSet
273 83 m 2,0,-1
 273 298 l 1,1,-1
 75 596 l 1,2,-1
 5 628 l 1,3,-1
 11 650 l 1,4,-1
 252 650 l 1,5,-1
 258 628 l 1,6,-1
 211 605 l 2,7,8
 189 595 189 595 189 581 c 0,9,10
 189 574 189 574 194 567 c 2,11,-1
 330 365 l 1,12,-1
 478 593 l 1,13,-1
 392 628 l 1,14,-1
 398 650 l 1,15,-1
 622 650 l 1,16,-1
 628 628 l 1,17,-1
 573 605 l 2,18,19
 554 597 554 597 545.5 587.5 c 128,-1,20
 537 578 537 578 530 567 c 2,21,-1
 358 301 l 1,22,-1
 358 57 l 1,23,-1
 444 22 l 1,24,-1
 438 0 l 1,25,-1
 193 0 l 1,26,-1
 187 22 l 1,27,-1
 242 45 l 2,28,29
 260 52 260 52 266.5 60 c 128,-1,30
 273 68 273 68 273 83 c 2,0,-1
EndSplineSet
EndChar

StartChar: Z
Encoding: 90 90 61
Width: 564
GlyphClass: 2
Flags: W
LayerCount: 2
Fore
SplineSet
518 0 m 1,0,-1
 41 0 l 1,1,-1
 35 29 l 1,2,-1
 409 598 l 1,3,-1
 145 596 l 1,4,-1
 96 506 l 1,5,-1
 66 513 l 1,6,-1
 66 650 l 1,7,-1
 518 650 l 1,8,-1
 524 617 l 1,9,-1
 155 52 l 1,10,-1
 439 54 l 1,11,-1
 488 144 l 1,12,-1
 518 137 l 1,13,-1
 518 0 l 1,0,-1
EndSplineSet
EndChar

StartChar: bracketleft
Encoding: 91 91 62
Width: 311
GlyphClass: 2
Flags: W
LayerCount: 2
Fore
SplineSet
158 295 m 128,-1,1
 158 90 158 90 160 -115 c 1,2,-1
 276 -124 l 1,3,-1
 276 -160 l 1,4,-1
 97 -168 l 1,5,-1
 85 -157 l 1,6,7
 88 69 88 69 88 295 c 128,-1,8
 88 521 88 521 85 747 c 1,9,-1
 97 758 l 1,10,-1
 276 750 l 1,11,-1
 276 714 l 1,12,-1
 160 705 l 1,13,0
 158 500 158 500 158 295 c 128,-1,1
EndSplineSet
EndChar

StartChar: backslash
Encoding: 92 92 63
Width: 442
GlyphClass: 2
Flags: W
LayerCount: 2
Fore
SplineSet
90 709 m 1,0,-1
 106 701 l 1,1,2
 147 602 147 602 204 462 c 1,3,4
 329 161 329 161 402 -8 c 1,5,-1
 352 -31 l 1,6,-1
 336 -23 l 1,7,8
 56 650 56 650 40 686 c 1,9,-1
 90 709 l 1,0,-1
EndSplineSet
EndChar

StartChar: bracketright
Encoding: 93 93 64
Width: 311
GlyphClass: 2
Flags: W
LayerCount: 2
Fore
SplineSet
154 295 m 128,-1,1
 154 500 154 500 151 705 c 1,2,-1
 35 714 l 1,3,-1
 35 750 l 1,4,-1
 214 758 l 1,5,-1
 226 747 l 1,6,7
 222 521 222 521 222 295 c 128,-1,8
 222 69 222 69 226 -157 c 1,9,-1
 214 -168 l 1,10,-1
 35 -160 l 1,11,-1
 35 -124 l 1,12,-1
 151 -115 l 1,13,0
 154 90 154 90 154 295 c 128,-1,1
EndSplineSet
EndChar

StartChar: asciicircum
Encoding: 94 94 65
Width: 530
GlyphClass: 2
Flags: W
LayerCount: 2
Fore
SplineSet
80 413 m 1,0,-1
 243 658 l 1,1,-1
 285 658 l 1,2,-1
 450 415 l 1,3,-1
 416 389 l 1,4,-1
 265 561 l 1,5,-1
 114 388 l 1,6,-1
 80 413 l 1,0,-1
EndSplineSet
EndChar

StartChar: underscore
Encoding: 95 95 66
Width: 579
GlyphClass: 2
Flags: W
LayerCount: 2
Fore
SplineSet
50 12 m 1,0,-1
 62 51 l 1,1,-1
 518 51 l 1,2,-1
 529 39 l 1,3,-1
 518 -8 l 1,4,5
 162 0 162 0 61 0 c 1,6,-1
 50 12 l 1,0,-1
EndSplineSet
EndChar

StartChar: grave
Encoding: 96 96 67
Width: 293
GlyphClass: 2
Flags: W
LayerCount: 2
Fore
SplineSet
240 552 m 1,0,-1
 29 629 l 1,1,-1
 72 684 l 1,2,-1
 92 688 l 1,3,-1
 253 572 l 1,4,-1
 240 552 l 1,0,-1
EndSplineSet
EndChar

StartChar: a
Encoding: 97 97 68
Width: 454
GlyphClass: 2
Flags: W
LayerCount: 2
Fore
SplineSet
145 74 m 128,-1,1
 168 57 168 57 198.5 57 c 128,-1,2
 229 57 229 57 280 74 c 1,3,-1
 282 190 l 1,4,5
 154 183 154 183 123 146 c 1,6,7
 122 141 122 141 122 133 c 0,8,0
 122 91 122 91 145 74 c 128,-1,1
281 30 m 1,9,10
 216 -8 216 -8 162 -8 c 128,-1,11
 108 -8 108 -8 76.5 26.5 c 128,-1,12
 45 61 45 61 45 114.5 c 128,-1,13
 45 168 45 168 97.5 197 c 128,-1,14
 150 226 150 226 282 234 c 1,15,-1
 283 299 l 2,16,17
 284 344 284 344 261.5 371.5 c 128,-1,18
 239 399 239 399 200 399 c 128,-1,19
 161 399 161 399 132 390 c 1,20,-1
 124 314 l 1,21,-1
 100 307 l 1,22,-1
 45 385 l 1,23,24
 67 410 67 410 111 434 c 128,-1,25
 155 458 155 458 216 458 c 0,26,27
 365 458 365 458 365 277 c 1,28,-1
 360 54 l 1,29,-1
 429 30 l 1,30,-1
 423 8 l 1,31,-1
 338 -8 l 1,32,-1
 318 0 l 1,33,-1
 286 28 l 1,34,-1
 281 30 l 1,9,10
EndSplineSet
EndChar

StartChar: b
Encoding: 98 98 69
Width: 530
GlyphClass: 2
Flags: W
LayerCount: 2
Fore
SplineSet
170 420 m 1,0,1
 235 458 235 458 316 458 c 128,-1,2
 397 458 397 458 443.5 391 c 128,-1,3
 490 324 490 324 490 218.5 c 128,-1,4
 490 113 490 113 426.5 52.5 c 128,-1,5
 363 -8 363 -8 265 -8 c 0,6,7
 224 -8 224 -8 169.5 1.5 c 128,-1,8
 115 11 115 11 91 23 c 1,9,-1
 91 608 l 1,10,-1
 21 619 l 1,11,-1
 15 641 l 1,12,-1
 150 688 l 1,13,-1
 170 680 l 1,14,-1
 170 420 l 1,0,1
172 70 m 1,15,16
 212 56 212 56 270.5 56 c 128,-1,17
 329 56 329 56 368 71 c 1,18,19
 405 120 405 120 405 214 c 0,20,21
 405 389 405 389 273 389 c 0,22,23
 224 389 224 389 172 376 c 1,24,-1
 172 70 l 1,15,16
EndSplineSet
EndChar

StartChar: c
Encoding: 99 99 70
Width: 446
GlyphClass: 2
Flags: W
LayerCount: 2
Fore
SplineSet
314 390 m 1,0,1
 292 396 292 396 244 396 c 128,-1,2
 196 396 196 396 162 379 c 1,3,4
 124 331 124 331 124 242 c 128,-1,5
 124 153 124 153 166 104.5 c 128,-1,6
 208 56 208 56 274 56 c 128,-1,7
 340 56 340 56 397 82 c 1,8,-1
 411 56 l 1,9,10
 399 44 399 44 382 31.5 c 128,-1,11
 365 19 365 19 327.5 5.5 c 128,-1,12
 290 -8 290 -8 249 -8 c 0,13,14
 156 -8 156 -8 98 53.5 c 128,-1,15
 40 115 40 115 40 225 c 128,-1,16
 40 335 40 335 103.5 396.5 c 128,-1,17
 167 458 167 458 258 458 c 0,18,19
 303 458 303 458 338 441 c 128,-1,20
 373 424 373 424 385 411 c 128,-1,21
 397 398 397 398 404 385 c 1,22,-1
 346 307 l 1,23,-1
 322 314 l 1,24,-1
 314 390 l 1,0,1
EndSplineSet
EndChar

StartChar: d
Encoding: 100 100 71
Width: 533
GlyphClass: 2
Flags: W
LayerCount: 2
Fore
SplineSet
360 30 m 1,0,1
 295 -8 295 -8 214 -8 c 128,-1,2
 133 -8 133 -8 86.5 59 c 128,-1,3
 40 126 40 126 40 231.5 c 128,-1,4
 40 337 40 337 103.5 397.5 c 128,-1,5
 167 458 167 458 265 458 c 0,6,7
 308 458 308 458 344 452 c 1,8,-1
 358 449 l 1,9,-1
 358 608 l 1,10,-1
 288 619 l 1,11,-1
 282 641 l 1,12,-1
 419 688 l 1,13,-1
 439 680 l 1,14,-1
 439 54 l 1,15,-1
 508 22 l 1,16,-1
 502 0 l 1,17,-1
 407 -8 l 1,18,-1
 393 -2 l 1,19,-1
 364 28 l 1,20,-1
 360 30 l 1,0,1
358 380 m 1,21,22
 318 394 318 394 259.5 394 c 128,-1,23
 201 394 201 394 162 379 c 1,24,25
 125 330 125 330 125 236 c 0,26,27
 125 61 125 61 257 61 c 0,28,29
 306 61 306 61 358 74 c 1,30,-1
 358 380 l 1,21,22
EndSplineSet
EndChar

StartChar: e
Encoding: 101 101 72
Width: 460
GlyphClass: 2
Flags: W
LayerCount: 2
Fore
SplineSet
103 396.5 m 128,-1,1
 166 458 166 458 250 458 c 128,-1,2
 334 458 334 458 377 408.5 c 128,-1,3
 420 359 420 359 420 273 c 2,4,-1
 420 240 l 1,5,-1
 405 225 l 1,6,-1
 125 225 l 1,7,8
 127 148 127 148 168 102 c 128,-1,9
 209 56 209 56 273.5 56 c 128,-1,10
 338 56 338 56 397 82 c 1,11,-1
 411 56 l 1,12,13
 399 44 399 44 382 31.5 c 128,-1,14
 365 19 365 19 327.5 5.5 c 128,-1,15
 290 -8 290 -8 249 -8 c 0,16,17
 156 -8 156 -8 98 53.5 c 128,-1,18
 40 115 40 115 40 225 c 128,-1,0
 40 335 40 335 103 396.5 c 128,-1,1
239 394 m 0,19,20
 192 394 192 394 162 379 c 1,21,22
 150 364 150 364 138.5 331 c 128,-1,23
 127 298 127 298 126 268 c 1,24,-1
 340 274 l 1,25,26
 340 394 340 394 239 394 c 0,19,20
EndSplineSet
EndChar

StartChar: f
Encoding: 102 102 73
Width: 334
GlyphClass: 2
Flags: W
LayerCount: 2
Fore
SplineSet
355 610 m 1,0,1
 316 617 316 617 278 617 c 128,-1,2
 240 617 240 617 216 605 c 1,3,4
 202 575 202 575 202 480 c 2,5,-1
 202 450 l 1,6,-1
 311 450 l 1,7,-1
 322 438 l 1,8,-1
 312 400 l 1,9,-1
 202 404 l 1,10,-1
 202 61 l 1,11,-1
 296 22 l 1,12,-1
 290 0 l 1,13,-1
 51 0 l 1,14,-1
 45 22 l 1,15,-1
 90 41 l 2,16,17
 108 48 108 48 114.5 56 c 128,-1,18
 121 64 121 64 121 79 c 2,19,-1
 121 403 l 1,20,-1
 51 402 l 1,21,-1
 45 424 l 1,22,-1
 121 458 l 1,23,24
 127 648 127 648 269 681 c 1,25,26
 301 686 301 686 314 686 c 0,27,28
 348 686 348 686 362 680 c 1,29,-1
 369 659 l 1,30,-1
 355 610 l 1,0,1
EndSplineSet
EndChar

StartChar: g
Encoding: 103 103 74
Width: 469
GlyphClass: 2
Flags: W
LayerCount: 2
Fore
SplineSet
359 406 m 1,0,1
 400 362 400 362 400 291.5 c 128,-1,2
 400 221 400 221 350.5 175.5 c 128,-1,3
 301 130 301 130 223 130 c 0,4,5
 203 130 203 130 185 133 c 1,6,7
 158 107 158 107 158 81 c 0,8,9
 158 72 158 72 172 69.5 c 128,-1,10
 186 67 186 67 298 57 c 0,11,12
 361 51 361 51 402.5 19 c 128,-1,13
 444 -13 444 -13 444 -81 c 128,-1,14
 444 -149 444 -149 384.5 -193.5 c 128,-1,15
 325 -238 325 -238 229.5 -238 c 128,-1,16
 134 -238 134 -238 82 -202.5 c 128,-1,17
 30 -167 30 -167 30 -108 c 0,18,19
 30 -36 30 -36 104 15 c 1,20,21
 88 33 88 33 88 54.5 c 128,-1,22
 88 76 88 76 102 102.5 c 128,-1,23
 116 129 116 129 138 148 c 1,24,25
 96 168 96 168 72.5 206 c 128,-1,26
 49 244 49 244 49 294 c 0,27,28
 49 368 49 368 98 414 c 128,-1,29
 147 460 147 460 224 460 c 0,30,31
 280 460 280 460 323 434 c 1,32,33
 364 485 364 485 392 506 c 1,34,-1
 435 456 l 1,35,-1
 429 441 l 1,36,37
 372 413 372 413 359 406 c 1,0,1
144 -8 m 1,38,39
 107 -42 107 -42 107 -87.5 c 128,-1,40
 107 -133 107 -133 144.5 -157 c 128,-1,41
 182 -181 182 -181 246.5 -181 c 128,-1,42
 311 -181 311 -181 356 -154 c 1,43,44
 372 -131 372 -131 372 -91 c 128,-1,45
 372 -51 372 -51 347 -38 c 128,-1,46
 322 -25 322 -25 274 -20 c 0,47,48
 206 -13 206 -13 167 -13 c 1,49,50
 157 -12 157 -12 144 -8 c 1,38,39
127 293 m 0,51,52
 127 244 127 244 153 216.5 c 128,-1,53
 179 189 179 189 225.5 189 c 128,-1,54
 272 189 272 189 299 205 c 1,55,56
 307 215 307 215 313.5 243 c 128,-1,57
 320 271 320 271 320 297 c 0,58,59
 320 346 320 346 294 373.5 c 128,-1,60
 268 401 268 401 221.5 401 c 128,-1,61
 175 401 175 401 148 385 c 1,62,63
 140 375 140 375 133.5 347 c 128,-1,64
 127 319 127 319 127 293 c 0,51,52
EndSplineSet
EndChar

StartChar: h
Encoding: 104 104 75
Width: 570
GlyphClass: 2
Flags: W
LayerCount: 2
Fore
SplineSet
385 293 m 2,0,1
 385 344 385 344 361.5 366.5 c 128,-1,2
 338 389 338 389 286 389 c 128,-1,3
 234 389 234 389 182 376 c 1,4,-1
 182 54 l 1,5,-1
 261 22 l 1,6,-1
 255 0 l 1,7,-1
 31 0 l 1,8,-1
 25 22 l 1,9,-1
 70 41 l 2,10,11
 88 48 88 48 94.5 56 c 128,-1,12
 101 64 101 64 101 79 c 2,13,-1
 101 608 l 1,14,-1
 31 619 l 1,15,-1
 25 641 l 1,16,-1
 160 688 l 1,17,-1
 180 680 l 1,18,-1
 180 420 l 1,19,20
 249 458 249 458 322 458 c 0,21,22
 466 458 466 458 466 305 c 2,23,-1
 466 54 l 1,24,-1
 545 22 l 1,25,-1
 539 0 l 1,26,-1
 315 0 l 1,27,-1
 309 22 l 1,28,-1
 354 41 l 2,29,30
 372 48 372 48 378.5 56 c 128,-1,31
 385 64 385 64 385 79 c 2,32,-1
 385 293 l 2,0,1
EndSplineSet
EndChar

StartChar: i
Encoding: 105 105 76
Width: 296
GlyphClass: 2
Flags: W
LayerCount: 2
Fore
SplineSet
111 79 m 2,0,-1
 111 378 l 1,1,-1
 41 389 l 1,2,-1
 35 411 l 1,3,-1
 172 458 l 1,4,-1
 192 450 l 1,5,-1
 192 54 l 1,6,-1
 271 22 l 1,7,-1
 265 0 l 1,8,-1
 41 0 l 1,9,-1
 35 22 l 1,10,-1
 80 41 l 2,11,12
 98 48 98 48 104.5 56 c 128,-1,13
 111 64 111 64 111 79 c 2,0,-1
107.5 577.5 m 128,-1,15
 92 593 92 593 92 616.5 c 128,-1,16
 92 640 92 640 107.5 656 c 128,-1,17
 123 672 123 672 146.5 672 c 128,-1,18
 170 672 170 672 186 656 c 128,-1,19
 202 640 202 640 202 616.5 c 128,-1,20
 202 593 202 593 186 577.5 c 128,-1,21
 170 562 170 562 146.5 562 c 128,-1,14
 123 562 123 562 107.5 577.5 c 128,-1,15
EndSplineSet
EndChar

StartChar: j
Encoding: 106 106 77
Width: 262
GlyphClass: 2
Flags: W
LayerCount: 2
Fore
SplineSet
182 0 m 2,0,1
 182 -80 182 -80 143.5 -140.5 c 128,-1,2
 105 -201 105 -201 39 -238 c 1,3,-1
 25 -220 l 1,4,5
 101 -131 101 -131 101 -8 c 2,6,-1
 101 378 l 1,7,-1
 31 389 l 1,8,-1
 25 411 l 1,9,-1
 162 458 l 1,10,-1
 182 450 l 1,11,-1
 182 0 l 2,0,1
97.5 577.5 m 128,-1,13
 82 593 82 593 82 616.5 c 128,-1,14
 82 640 82 640 97.5 656 c 128,-1,15
 113 672 113 672 136.5 672 c 128,-1,16
 160 672 160 672 176 656 c 128,-1,17
 192 640 192 640 192 616.5 c 128,-1,18
 192 593 192 593 176 577.5 c 128,-1,19
 160 562 160 562 136.5 562 c 128,-1,12
 113 562 113 562 97.5 577.5 c 128,-1,13
EndSplineSet
EndChar

StartChar: k
Encoding: 107 107 78
Width: 544
GlyphClass: 2
Flags: W
LayerCount: 2
Fore
SplineSet
396 0 m 1,0,-1
 193 242 l 1,1,-1
 350 396 l 1,2,-1
 279 428 l 1,3,-1
 285 450 l 1,4,-1
 487 450 l 1,5,-1
 493 428 l 1,6,-1
 448 409 l 2,7,8
 424 399 424 399 388 363 c 2,9,-1
 281 259 l 1,10,-1
 453 54 l 1,11,-1
 529 22 l 1,12,-1
 523 0 l 1,13,-1
 396 0 l 1,0,-1
101 79 m 2,14,-1
 101 608 l 1,15,-1
 31 619 l 1,16,-1
 25 641 l 1,17,-1
 162 688 l 1,18,-1
 182 680 l 1,19,-1
 182 54 l 1,20,-1
 261 22 l 1,21,-1
 255 0 l 1,22,-1
 31 0 l 1,23,-1
 25 22 l 1,24,-1
 70 41 l 2,25,26
 88 48 88 48 94.5 56 c 128,-1,27
 101 64 101 64 101 79 c 2,14,-1
EndSplineSet
EndChar

StartChar: l
Encoding: 108 108 79
Width: 286
GlyphClass: 2
Flags: W
LayerCount: 2
Fore
SplineSet
101 79 m 2,0,-1
 101 608 l 1,1,-1
 31 619 l 1,2,-1
 25 641 l 1,3,-1
 162 688 l 1,4,-1
 182 680 l 1,5,-1
 182 54 l 1,6,-1
 261 22 l 1,7,-1
 255 0 l 1,8,-1
 31 0 l 1,9,-1
 25 22 l 1,10,-1
 70 41 l 2,11,12
 88 48 88 48 94.5 56 c 128,-1,13
 101 64 101 64 101 79 c 2,0,-1
EndSplineSet
EndChar

StartChar: m
Encoding: 109 109 80
Width: 874
GlyphClass: 2
Flags: W
LayerCount: 2
Fore
SplineSet
689 293 m 2,0,1
 689 344 689 344 665.5 366.5 c 128,-1,2
 642 389 642 389 589 389 c 128,-1,3
 536 389 536 389 476 373 c 1,4,5
 486 340 486 340 486 305 c 2,6,-1
 486 54 l 1,7,-1
 565 22 l 1,8,-1
 559 0 l 1,9,-1
 335 0 l 1,10,-1
 329 22 l 1,11,-1
 374 41 l 2,12,13
 392 48 392 48 398.5 56 c 128,-1,14
 405 64 405 64 405 79 c 2,15,-1
 405 293 l 2,16,17
 405 344 405 344 381.5 366.5 c 128,-1,18
 358 389 358 389 306 389 c 128,-1,19
 254 389 254 389 202 376 c 1,20,-1
 202 54 l 1,21,-1
 281 22 l 1,22,-1
 275 0 l 1,23,-1
 51 0 l 1,24,-1
 45 22 l 1,25,-1
 90 41 l 2,26,27
 108 48 108 48 114.5 56 c 128,-1,28
 121 64 121 64 121 79 c 2,29,-1
 121 378 l 1,30,-1
 51 389 l 1,31,-1
 45 411 l 1,32,-1
 174 458 l 1,33,-1
 194 450 l 1,34,-1
 196 422 l 1,35,-1
 200 420 l 1,36,37
 269 458 269 458 344 458 c 128,-1,38
 419 458 419 458 455 413 c 1,39,40
 543 458 543 458 622 458 c 0,41,42
 770 458 770 458 770 305 c 2,43,-1
 770 54 l 1,44,-1
 849 22 l 1,45,-1
 843 0 l 1,46,-1
 619 0 l 1,47,-1
 613 22 l 1,48,-1
 658 41 l 2,49,50
 676 48 676 48 682.5 56 c 128,-1,51
 689 64 689 64 689 79 c 2,52,-1
 689 293 l 2,0,1
EndSplineSet
EndChar

StartChar: n
Encoding: 110 110 81
Width: 575
GlyphClass: 2
Flags: W
LayerCount: 2
Fore
SplineSet
395 293 m 2,0,1
 395 344 395 344 371.5 366.5 c 128,-1,2
 348 389 348 389 296 389 c 128,-1,3
 244 389 244 389 192 376 c 1,4,-1
 192 54 l 1,5,-1
 271 22 l 1,6,-1
 265 0 l 1,7,-1
 41 0 l 1,8,-1
 35 22 l 1,9,-1
 80 41 l 2,10,11
 98 48 98 48 104.5 56 c 128,-1,12
 111 64 111 64 111 79 c 2,13,-1
 111 378 l 1,14,-1
 41 389 l 1,15,-1
 35 411 l 1,16,-1
 164 458 l 1,17,-1
 184 450 l 1,18,-1
 186 422 l 1,19,-1
 190 420 l 1,20,21
 259 458 259 458 332 458 c 0,22,23
 476 458 476 458 476 305 c 2,24,-1
 476 54 l 1,25,-1
 555 22 l 1,26,-1
 549 0 l 1,27,-1
 325 0 l 1,28,-1
 319 22 l 1,29,-1
 364 41 l 2,30,31
 382 48 382 48 388.5 56 c 128,-1,32
 395 64 395 64 395 79 c 2,33,-1
 395 293 l 2,0,1
EndSplineSet
EndChar

StartChar: o
Encoding: 111 111 82
Width: 510
GlyphClass: 2
Flags: W
LayerCount: 2
Fore
SplineSet
125 236 m 0,0,1
 125 56 125 56 262 56 c 0,2,3
 312 56 312 56 348 71 c 1,4,5
 385 119 385 119 385 214 c 0,6,7
 385 394 385 394 248 394 c 0,8,9
 198 394 198 394 162 379 c 1,10,11
 125 331 125 331 125 236 c 0,0,1
98 53 m 128,-1,13
 40 114 40 114 40 225.5 c 128,-1,14
 40 337 40 337 104 397.5 c 128,-1,15
 168 458 168 458 261 458 c 128,-1,16
 354 458 354 458 412 397 c 128,-1,17
 470 336 470 336 470 224.5 c 128,-1,18
 470 113 470 113 406 52.5 c 128,-1,19
 342 -8 342 -8 249 -8 c 128,-1,12
 156 -8 156 -8 98 53 c 128,-1,13
EndSplineSet
EndChar

StartChar: p
Encoding: 112 112 83
Width: 525
GlyphClass: 2
Flags: W
LayerCount: 2
Fore
SplineSet
304 458 m 0,0,1
 392 458 392 458 438.5 390.5 c 128,-1,2
 485 323 485 323 485 218 c 128,-1,3
 485 113 485 113 421.5 52.5 c 128,-1,4
 358 -8 358 -8 263 -8 c 0,5,6
 217 -8 217 -8 167 1 c 1,7,-1
 167 -174 l 1,8,-1
 246 -206 l 1,9,-1
 240 -228 l 1,10,-1
 16 -228 l 1,11,-1
 10 -206 l 1,12,-1
 55 -187 l 2,13,14
 73 -180 73 -180 79.5 -172 c 128,-1,15
 86 -164 86 -164 86 -149 c 2,16,-1
 86 378 l 1,17,-1
 16 389 l 1,18,-1
 10 411 l 1,19,-1
 139 458 l 1,20,-1
 159 450 l 1,21,-1
 161 422 l 1,22,-1
 165 420 l 1,23,24
 233 458 233 458 304 458 c 0,0,1
167 70 m 1,25,26
 207 56 207 56 265.5 56 c 128,-1,27
 324 56 324 56 363 71 c 1,28,29
 400 120 400 120 400 214 c 0,30,31
 400 389 400 389 268 389 c 0,32,33
 219 389 219 389 167 376 c 1,34,-1
 167 70 l 1,25,26
EndSplineSet
EndChar

StartChar: q
Encoding: 113 113 84
Width: 528
GlyphClass: 2
Flags: W
LayerCount: 2
Fore
SplineSet
358 -149 m 2,0,-1
 358 29 l 1,1,2
 291 -8 291 -8 221 -8 c 0,3,4
 134 -8 134 -8 87 59.5 c 128,-1,5
 40 127 40 127 40 232 c 128,-1,6
 40 337 40 337 103.5 397.5 c 128,-1,7
 167 458 167 458 262 458 c 0,8,9
 323 458 323 458 379 445 c 1,10,-1
 420 458 l 1,11,-1
 439 450 l 1,12,-1
 439 -174 l 1,13,-1
 518 -206 l 1,14,-1
 512 -228 l 1,15,-1
 288 -228 l 1,16,-1
 282 -206 l 1,17,-1
 327 -187 l 2,18,19
 345 -180 345 -180 351.5 -172 c 128,-1,20
 358 -164 358 -164 358 -149 c 2,0,-1
358 380 m 1,21,22
 318 394 318 394 259.5 394 c 128,-1,23
 201 394 201 394 162 379 c 1,24,25
 125 330 125 330 125 236 c 0,26,27
 125 61 125 61 257 61 c 0,28,29
 306 61 306 61 358 74 c 1,30,-1
 358 380 l 1,21,22
EndSplineSet
EndChar

StartChar: r
Encoding: 114 114 85
Width: 402
GlyphClass: 2
Flags: W
LayerCount: 2
Fore
SplineSet
303 392 m 1,0,1
 277 392 277 392 241.5 384.5 c 128,-1,2
 206 377 206 377 192 371 c 1,3,-1
 192 54 l 1,4,-1
 281 22 l 1,5,-1
 275 0 l 1,6,-1
 41 0 l 1,7,-1
 35 22 l 1,8,-1
 80 41 l 2,9,10
 98 48 98 48 104.5 56 c 128,-1,11
 111 64 111 64 111 79 c 2,12,-1
 111 378 l 1,13,-1
 41 389 l 1,14,-1
 35 411 l 1,15,-1
 164 458 l 1,16,-1
 184 450 l 1,17,-1
 188 413 l 1,18,-1
 192 411 l 1,19,20
 206 422 206 422 249.5 438.5 c 128,-1,21
 293 455 293 455 314 458 c 1,22,23
 335 452 335 452 359 432.5 c 128,-1,24
 383 413 383 413 392 396 c 1,25,-1
 327 309 l 1,26,-1
 303 316 l 1,27,-1
 303 392 l 1,0,1
EndSplineSet
EndChar

StartChar: s
Encoding: 115 115 86
Width: 392
GlyphClass: 2
Flags: W
LayerCount: 2
Fore
SplineSet
265 394 m 1,0,1
 242 404 242 404 194.5 404 c 128,-1,2
 147 404 147 404 123 380 c 1,3,4
 114 366 114 366 114 347 c 0,5,6
 114 305 114 305 165 286 c 2,7,-1
 267 250 l 2,8,9
 310 235 310 235 336 201.5 c 128,-1,10
 362 168 362 168 362 123 c 0,11,12
 362 60 362 60 314 26 c 128,-1,13
 266 -8 266 -8 201.5 -8 c 128,-1,14
 137 -8 137 -8 93.5 13.5 c 128,-1,15
 50 35 50 35 30 59 c 1,16,-1
 81 142 l 1,17,-1
 106 135 l 1,18,-1
 110 68 l 1,19,20
 145 48 145 48 199 48 c 0,21,22
 290 48 290 48 290 110 c 0,23,24
 290 135 290 135 274 150 c 128,-1,25
 258 165 258 165 222 177 c 2,26,-1
 130 207 l 2,27,28
 89 221 89 221 67 253 c 128,-1,29
 45 285 45 285 45 325 c 0,30,31
 45 388 45 388 95 423 c 128,-1,32
 145 458 145 458 211 458 c 0,33,34
 251 458 251 458 286 442 c 0,35,36
 335 421 335 421 352 395 c 1,37,-1
 297 317 l 1,38,-1
 273 324 l 1,39,-1
 265 394 l 1,0,1
EndSplineSet
EndChar

StartChar: t
Encoding: 116 116 87
Width: 317
GlyphClass: 2
Flags: W
LayerCount: 2
Fore
SplineSet
81 89 m 2,0,-1
 81 402 l 1,1,-1
 11 402 l 1,2,-1
 5 424 l 1,3,-1
 81 458 l 1,4,-1
 125 551 l 1,5,-1
 162 544 l 1,6,-1
 162 450 l 1,7,-1
 281 450 l 1,8,-1
 292 438 l 1,9,-1
 282 400 l 1,10,-1
 162 404 l 1,11,-1
 162 112 l 2,12,13
 162 75 162 75 177 57.5 c 128,-1,14
 192 40 192 40 230 40 c 2,15,-1
 287 40 l 1,16,-1
 292 12 l 1,17,18
 229 -8 229 -8 181 -8 c 128,-1,19
 133 -8 133 -8 107 19 c 128,-1,20
 81 46 81 46 81 89 c 2,0,-1
EndSplineSet
EndChar

StartChar: u
Encoding: 117 117 88
Width: 550
GlyphClass: 2
Flags: W
LayerCount: 2
Fore
SplineSet
235 -8 m 0,0,1
 91 -8 91 -8 91 145 c 2,2,-1
 91 378 l 1,3,-1
 21 389 l 1,4,-1
 15 411 l 1,5,-1
 152 458 l 1,6,-1
 172 450 l 1,7,-1
 172 157 l 2,8,9
 172 106 172 106 195.5 83.5 c 128,-1,10
 219 61 219 61 271 61 c 128,-1,11
 323 61 323 61 375 74 c 1,12,-1
 375 378 l 1,13,-1
 305 389 l 1,14,-1
 299 411 l 1,15,-1
 436 458 l 1,16,-1
 456 450 l 1,17,-1
 456 54 l 1,18,-1
 525 30 l 1,19,-1
 519 8 l 1,20,-1
 434 -8 l 1,21,-1
 414 0 l 1,22,-1
 382 28 l 1,23,-1
 377 30 l 1,24,25
 308 -8 308 -8 235 -8 c 0,0,1
EndSplineSet
EndChar

StartChar: v
Encoding: 118 118 89
Width: 509
GlyphClass: 2
Flags: W
LayerCount: 2
Fore
SplineSet
182 409 m 2,0,1
 164 402 164 402 164 388 c 128,-1,2
 164 374 164 374 168 363 c 2,3,-1
 267 96 l 1,4,-1
 379 396 l 1,5,-1
 308 428 l 1,6,-1
 314 450 l 1,7,-1
 508 450 l 1,8,-1
 514 428 l 1,9,-1
 465 407 l 2,10,11
 446 399 446 399 438 382 c 0,12,13
 435 376 435 376 430 363 c 2,14,-1
 287 0 l 1,15,-1
 241 -8 l 1,16,-1
 221 0 l 1,17,-1
 66 396 l 1,18,-1
 -5 428 l 1,19,-1
 1 450 l 1,20,-1
 221 450 l 1,21,-1
 227 428 l 1,22,-1
 182 409 l 2,0,1
EndSplineSet
EndChar

StartChar: w
Encoding: 119 119 90
Width: 747
GlyphClass: 2
Flags: W
LayerCount: 2
Fore
SplineSet
387 454 m 1,0,-1
 406 446 l 1,1,2
 507 142 507 142 526 92 c 1,3,-1
 623 396 l 1,4,-1
 552 428 l 1,5,-1
 558 450 l 1,6,-1
 746 450 l 1,7,-1
 752 428 l 1,8,-1
 703 407 l 2,9,10
 685 400 685 400 676 382 c 0,11,12
 674 376 674 376 670 363 c 2,13,-1
 555 0 l 1,14,-1
 495 -8 l 1,15,-1
 475 0 l 1,16,17
 430 126 430 126 384 251 c 1,18,19
 353 149 353 149 304 38 c 2,20,-1
 287 0 l 1,21,-1
 227 -8 l 1,22,-1
 207 0 l 1,23,-1
 66 396 l 1,24,-1
 -5 428 l 1,25,-1
 1 450 l 1,26,-1
 221 450 l 1,27,-1
 227 428 l 1,28,-1
 182 409 l 2,29,30
 152 396 152 396 168 363 c 1,31,-1
 258 92 l 1,32,33
 329 254 329 254 349 347 c 1,34,-1
 312 443 l 1,35,-1
 387 454 l 1,0,-1
EndSplineSet
EndChar

StartChar: x
Encoding: 120 120 91
Width: 541
GlyphClass: 2
Flags: W
LayerCount: 2
Fore
SplineSet
411 373 m 2,0,-1
 313 238 l 1,1,-1
 441 52 l 1,2,-1
 516 22 l 1,3,-1
 510 0 l 1,4,-1
 380 0 l 1,5,-1
 254 181 l 1,6,-1
 166 54 l 1,7,-1
 242 22 l 1,8,-1
 236 0 l 1,9,-1
 31 0 l 1,10,-1
 25 22 l 1,11,-1
 74 43 l 2,12,13
 103 55 103 55 118 77 c 2,14,-1
 223 223 l 1,15,-1
 105 396 l 1,16,-1
 29 428 l 1,17,-1
 35 450 l 1,18,-1
 163 450 l 1,19,-1
 280 279 l 1,20,-1
 364 396 l 1,21,-1
 288 428 l 1,22,-1
 294 450 l 1,23,-1
 499 450 l 1,24,-1
 505 428 l 1,25,-1
 456 407 l 2,26,27
 427 395 427 395 411 373 c 2,0,-1
EndSplineSet
EndChar

StartChar: y
Encoding: 121 121 92
Width: 519
GlyphClass: 2
Flags: W
LayerCount: 2
Fore
SplineSet
182 409 m 2,0,1
 163 401 163 401 163 387.5 c 128,-1,2
 163 374 163 374 168 363 c 2,3,-1
 277 106 l 1,4,-1
 389 396 l 1,5,-1
 318 428 l 1,6,-1
 324 450 l 1,7,-1
 518 450 l 1,8,-1
 524 428 l 1,9,-1
 475 407 l 2,10,11
 456 399 456 399 448 382 c 0,12,13
 445 376 445 376 440 363 c 2,14,-1
 298 12 l 2,15,16
 229 -158 229 -158 176 -238 c 1,17,-1
 101 -214 l 1,18,-1
 93 -194 l 1,19,20
 198 -81 198 -81 234 -1 c 1,21,-1
 66 396 l 1,22,-1
 -5 428 l 1,23,-1
 1 450 l 1,24,-1
 221 450 l 1,25,-1
 227 428 l 1,26,-1
 182 409 l 2,0,1
EndSplineSet
EndChar

StartChar: z
Encoding: 122 122 93
Width: 441
GlyphClass: 2
Flags: W
LayerCount: 2
Fore
SplineSet
396 0 m 1,0,-1
 41 0 l 1,1,-1
 35 29 l 1,2,-1
 294 404 l 1,3,-1
 127 400 l 1,4,-1
 79 316 l 1,5,-1
 55 323 l 1,6,-1
 55 440 l 1,7,-1
 65 450 l 1,8,-1
 390 450 l 1,9,-1
 396 417 l 1,10,-1
 140 46 l 1,11,-1
 324 50 l 1,12,-1
 372 134 l 1,13,-1
 396 127 l 1,14,-1
 396 0 l 1,0,-1
EndSplineSet
EndChar

StartChar: braceleft
Encoding: 123 123 94
Width: 340
GlyphClass: 2
Flags: W
LayerCount: 2
Fore
SplineSet
180 78.5 m 128,-1,1
 171 5 171 5 169.5 -17.5 c 128,-1,2
 168 -40 168 -40 168 -62.5 c 128,-1,3
 168 -85 168 -85 175 -98 c 1,4,5
 195 -109 195 -109 224.5 -109 c 128,-1,6
 254 -109 254 -109 284 -101 c 1,7,-1
 300 -146 l 1,8,-1
 289 -165 l 1,9,10
 283 -168 283 -168 262 -168 c 0,11,12
 184 -168 184 -168 137 -108 c 0,13,14
 106 -68 106 -68 106 -2 c 0,15,16
 106 18 106 18 116 96.5 c 128,-1,17
 126 175 126 175 126 206 c 0,18,19
 126 219 126 219 103.5 239 c 128,-1,20
 81 259 81 259 58 273 c 2,21,-1
 35 287 l 1,22,-1
 35 303 l 1,23,24
 74 327 74 327 100 349 c 128,-1,25
 126 371 126 371 126 384 c 0,26,27
 126 415 126 415 117 488 c 0,28,29
 106 572 106 572 106 592 c 0,30,31
 106 657 106 657 139 700 c 0,32,33
 184 758 184 758 260 758 c 0,34,35
 282 758 282 758 289 755 c 1,36,-1
 300 736 l 1,37,-1
 284 691 l 1,38,39
 254 699 254 699 238 699 c 128,-1,40
 222 699 222 699 208.5 698.5 c 128,-1,41
 195 698 195 698 175 688 c 1,42,43
 168 675 168 675 168 652 c 0,44,45
 168 607 168 607 180.5 505.5 c 128,-1,46
 193 404 193 404 193 389 c 128,-1,47
 193 374 193 374 172.5 350 c 128,-1,48
 152 326 152 326 130 310 c 2,49,-1
 108 295 l 1,50,51
 114 292 114 292 134 276 c 128,-1,52
 154 260 154 260 166 248 c 0,53,54
 195 219 195 219 193 195 c 0,55,0
 189 152 189 152 180 78.5 c 128,-1,1
EndSplineSet
EndChar

StartChar: bar
Encoding: 124 124 95
Width: 247
GlyphClass: 2
Flags: W
LayerCount: 2
Fore
SplineSet
154 321.5 m 128,-1,1
 154 118 154 118 157 -98 c 1,2,-1
 102 -108 l 1,3,-1
 90 -97 l 1,4,5
 92 92 92 92 92 295.5 c 128,-1,6
 92 499 92 499 90 718 c 1,7,-1
 145 728 l 1,8,-1
 157 717 l 1,9,0
 154 525 154 525 154 321.5 c 128,-1,1
EndSplineSet
EndChar

StartChar: braceright
Encoding: 125 125 96
Width: 340
GlyphClass: 2
Flags: W
LayerCount: 2
Fore
SplineSet
160 511.5 m 128,-1,1
 169 585 169 585 170.5 607.5 c 128,-1,2
 172 630 172 630 172 652.5 c 128,-1,3
 172 675 172 675 165 688 c 1,4,5
 143 699 143 699 114.5 699 c 128,-1,6
 86 699 86 699 56 691 c 1,7,-1
 40 736 l 1,8,-1
 51 755 l 1,9,10
 58 758 58 758 80 758 c 0,11,12
 156 758 156 758 203 698 c 0,13,14
 234 657 234 657 234 592 c 0,15,16
 234 572 234 572 224 493.5 c 128,-1,17
 214 415 214 415 214 384 c 0,18,19
 214 371 214 371 236.5 351 c 128,-1,20
 259 331 259 331 282 317 c 2,21,-1
 305 303 l 1,22,-1
 305 287 l 1,23,24
 266 263 266 263 240 241 c 128,-1,25
 214 219 214 219 214 206 c 0,26,27
 214 175 214 175 223 102 c 0,28,29
 234 18 234 18 234 -2 c 0,30,31
 234 -68 234 -68 201 -110 c 0,32,33
 156 -168 156 -168 78 -168 c 0,34,35
 57 -168 57 -168 51 -165 c 1,36,-1
 40 -146 l 1,37,-1
 56 -101 l 1,38,39
 86 -109 86 -109 102 -109 c 128,-1,40
 118 -109 118 -109 132.5 -108.5 c 128,-1,41
 147 -108 147 -108 165 -98 c 1,42,43
 172 -85 172 -85 172 -62 c 0,44,45
 172 -17 172 -17 159.5 84.5 c 128,-1,46
 147 186 147 186 147 201 c 128,-1,47
 147 216 147 216 167.5 240 c 128,-1,48
 188 264 188 264 210 280 c 2,49,-1
 232 295 l 1,50,51
 226 298 226 298 206 314 c 128,-1,52
 186 330 186 330 174 342 c 0,53,54
 145 371 145 371 147 395 c 0,55,0
 151 438 151 438 160 511.5 c 128,-1,1
EndSplineSet
EndChar

StartChar: asciitilde
Encoding: 126 126 97
Width: 646
GlyphClass: 2
Flags: W
LayerCount: 2
Fore
SplineSet
374 332 m 0,0,1
 416 302 416 302 426 300 c 1,2,3
 444 304 444 304 461 327.5 c 128,-1,4
 478 351 478 351 489 387 c 1,5,-1
 537 373 l 1,6,-1
 546 352 l 1,7,8
 530 317 530 317 498 292 c 1,9,10
 462 262 462 262 413.5 262 c 128,-1,11
 365 262 365 262 302 303 c 0,12,13
 272 322 272 322 256 334 c 0,14,15
 230 353 230 353 220 355 c 1,16,17
 202 351 202 351 185 327.5 c 128,-1,18
 168 304 168 304 157 268 c 1,19,-1
 109 282 l 1,20,-1
 100 303 l 1,21,22
 115 337 115 337 146 364 c 1,23,24
 182 393 182 393 234.5 393 c 128,-1,25
 287 393 287 393 374 332 c 0,0,1
EndSplineSet
EndChar

StartChar: exclamdown
Encoding: 161 161 98
Width: 230
GlyphClass: 2
Flags: W
LayerCount: 2
Fore
SplineSet
167 -228 m 1,0,-1
 75 -238 l 1,1,-1
 63 -227 l 1,2,-1
 97 259 l 1,3,-1
 122 263 l 1,4,-1
 135 261 l 1,5,-1
 167 -228 l 1,0,-1
75.5 363.5 m 128,-1,7
 60 379 60 379 60 402.5 c 128,-1,8
 60 426 60 426 75.5 442 c 128,-1,9
 91 458 91 458 114.5 458 c 128,-1,10
 138 458 138 458 154 442 c 128,-1,11
 170 426 170 426 170 402.5 c 128,-1,12
 170 379 170 379 154 363.5 c 128,-1,13
 138 348 138 348 114.5 348 c 128,-1,6
 91 348 91 348 75.5 363.5 c 128,-1,7
EndSplineSet
EndChar

StartChar: cent
Encoding: 162 162 99
Width: 481
GlyphClass: 2
Flags: W
LayerCount: 2
Fore
SplineSet
316 472 m 1,0,1
 299 477 299 477 255 477 c 128,-1,2
 211 477 211 477 179 462 c 1,3,4
 144 411 144 411 144 332 c 128,-1,5
 144 253 144 253 182 209 c 128,-1,6
 220 165 220 165 279 165 c 128,-1,7
 338 165 338 165 393 188 c 1,8,-1
 407 165 l 1,9,10
 358 113 358 113 271 108 c 1,11,-1
 285 -25 l 1,12,-1
 225 -35 l 1,13,-1
 213 -24 l 1,14,-1
 226 110 l 1,15,16
 153 120 153 120 110 174 c 128,-1,17
 67 228 67 228 67 318.5 c 128,-1,18
 67 409 67 409 112 463 c 128,-1,19
 157 517 157 517 228 529 c 1,20,-1
 215 656 l 1,21,-1
 275 666 l 1,22,-1
 287 655 l 1,23,-1
 274 532 l 1,24,25
 313 531 313 531 346 516 c 0,26,27
 397 494 397 494 411 468 c 1,28,-1
 346 385 l 1,29,-1
 325 391 l 1,30,-1
 316 472 l 1,0,1
EndSplineSet
EndChar

StartChar: sterling
Encoding: 163 163 100
Width: 553
GlyphClass: 2
Flags: W
LayerCount: 2
Fore
SplineSet
463 18 m 1,0,1
 419 -7 419 -7 372.5 -7 c 128,-1,2
 326 -7 326 -7 289 3 c 0,3,4
 188 30 188 30 83 -4 c 1,5,-1
 61 36 l 1,6,7
 99 66 99 66 115 110.5 c 128,-1,8
 131 155 131 155 131 197 c 0,9,10
 131 227 131 227 123 310 c 1,11,12
 92 311 92 311 61 311 c 1,13,-1
 50 323 l 1,14,-1
 62 359 l 1,15,-1
 116 359 l 1,16,17
 109 412 109 412 109 442 c 0,18,19
 109 546 109 546 171 602 c 128,-1,20
 233 658 233 658 339 658 c 0,21,22
 401 658 401 658 421 648 c 1,23,-1
 432 629 l 1,24,-1
 416 575 l 1,25,26
 368 588 368 588 306 588 c 128,-1,27
 244 588 244 588 212 578 c 1,28,29
 179 535 179 535 179 450 c 0,30,31
 179 423 179 423 185 361 c 1,32,-1
 373 367 l 1,33,-1
 384 355 l 1,34,-1
 373 306 l 1,35,36
 276 307 276 307 190 309 c 1,37,38
 193 273 193 273 193 234.5 c 128,-1,39
 193 196 193 196 188 160 c 0,40,41
 178 96 178 96 136 53 c 1,42,43
 179 73 179 73 239 73 c 256,44,45
 299 73 299 73 326.5 69 c 128,-1,46
 354 65 354 65 375.5 65 c 128,-1,47
 397 65 397 65 435 79 c 1,48,-1
 449 75 l 1,49,-1
 463 18 l 1,0,1
EndSplineSet
EndChar

StartChar: currency
Encoding: 164 164 101
Width: 712
GlyphClass: 2
Flags: W
LayerCount: 2
Fore
SplineSet
171 199 m 1,0,1
 139 252 139 252 139 324 c 128,-1,2
 139 396 139 396 172 448 c 1,3,-1
 75 568 l 1,4,-1
 101 598 l 1,5,-1
 230 508 l 1,6,7
 288 548 288 548 358.5 548 c 128,-1,8
 429 548 429 548 484 510 c 1,9,-1
 611 598 l 1,10,-1
 637 568 l 1,11,-1
 541 450 l 1,12,13
 573 397 573 397 573 326.5 c 128,-1,14
 573 256 573 256 539 201 c 1,15,-1
 637 82 l 1,16,-1
 611 52 l 1,17,-1
 481 141 l 1,18,19
 422 102 422 102 352 102 c 128,-1,20
 282 102 282 102 228 139 c 1,21,-1
 101 52 l 1,22,-1
 75 82 l 1,23,-1
 171 199 l 1,0,1
263 464 m 1,24,25
 224 415 224 415 224 336 c 128,-1,26
 224 257 224 257 262 211.5 c 128,-1,27
 300 166 300 166 366 166 c 0,28,29
 411 166 411 166 449 186 c 1,30,31
 488 235 488 235 488 314 c 128,-1,32
 488 393 488 393 450 438.5 c 128,-1,33
 412 484 412 484 346 484 c 0,34,35
 301 484 301 484 263 464 c 1,24,25
EndSplineSet
EndChar

StartChar: yen
Encoding: 165 165 102
Width: 723
GlyphClass: 2
Flags: W
LayerCount: 2
Fore
SplineSet
234 581 m 0,0,1
 234 574 234 574 239 567 c 2,2,-1
 375 365 l 1,3,-1
 523 593 l 1,4,-1
 437 628 l 1,5,-1
 443 650 l 1,6,-1
 667 650 l 1,7,-1
 673 628 l 1,8,-1
 618 605 l 2,9,10
 599 597 599 597 590.5 587.5 c 128,-1,11
 582 578 582 578 575 567 c 2,12,-1
 445 368 l 1,13,-1
 567 370 l 1,14,-1
 577 358 l 1,15,-1
 567 315 l 1,16,-1
 153 315 l 1,17,-1
 143 326 l 1,18,-1
 154 366 l 1,19,-1
 272 366 l 1,20,-1
 120 596 l 1,21,-1
 50 628 l 1,22,-1
 56 650 l 1,23,-1
 297 650 l 1,24,-1
 303 628 l 1,25,-1
 256 605 l 2,26,27
 234 595 234 595 234 581 c 0,0,1
318 203 m 1,28,-1
 154 204 l 1,29,-1
 143 216 l 1,30,-1
 155 255 l 1,31,-1
 566 255 l 1,32,-1
 577 243 l 1,33,-1
 566 200 l 1,34,35
 492 201 492 201 403 202 c 1,36,-1
 403 57 l 1,37,-1
 489 22 l 1,38,-1
 483 0 l 1,39,-1
 238 0 l 1,40,-1
 232 22 l 1,41,-1
 287 45 l 2,42,43
 305 52 305 52 311.5 60 c 128,-1,44
 318 68 318 68 318 83 c 2,45,-1
 318 203 l 1,28,-1
372 358 m 1,46,47
 373 357 373 357 375 357 c 128,-1,48
 377 357 377 357 379 359 c 1,49,-1
 372 358 l 1,46,47
EndSplineSet
EndChar

StartChar: brokenbar
Encoding: 166 166 103
Width: 256
GlyphClass: 2
Flags: W
LayerCount: 2
Fore
SplineSet
166 -97 m 1,0,-1
 109 -107 l 1,1,-1
 97 -96 l 1,2,3
 105 199 105 199 106 231 c 1,4,-1
 146 241 l 1,5,-1
 158 230 l 1,6,7
 160 129 160 129 166 -97 c 1,0,-1
97 718 m 1,8,-1
 154 728 l 1,9,-1
 166 717 l 1,10,11
 158 422 158 422 157 390 c 1,12,-1
 118 380 l 1,13,-1
 106 391 l 1,14,15
 105 454 105 454 101 578 c 128,-1,16
 97 702 97 702 97 718 c 1,8,-1
EndSplineSet
EndChar

StartChar: section
Encoding: 167 167 104
Width: 538
GlyphClass: 2
Flags: W
LayerCount: 2
Fore
SplineSet
197 -14 m 2,0,1
 197 81 197 81 156 233 c 128,-1,2
 115 385 115 385 115 445 c 0,3,4
 115 550 115 550 180.5 604 c 128,-1,5
 246 658 246 658 358 658 c 0,6,7
 417 658 417 658 437 648 c 1,8,-1
 448 629 l 1,9,-1
 432 571 l 1,10,11
 381 585 381 585 315.5 585 c 128,-1,12
 250 585 250 585 218 575 c 1,13,14
 185 532 185 532 185 458.5 c 128,-1,15
 185 385 185 385 217 245 c 128,-1,16
 249 105 249 105 249 30 c 0,17,18
 249 -6 249 -6 244 -35 c 1,19,-1
 207 -33 l 1,20,-1
 197 -27 l 1,21,-1
 197 -14 l 2,0,1
341 474 m 2,22,23
 341 379 341 379 382 227 c 128,-1,24
 423 75 423 75 423 15 c 0,25,26
 423 -90 423 -90 357.5 -144 c 128,-1,27
 292 -198 292 -198 180 -198 c 0,28,29
 121 -198 121 -198 101 -188 c 1,30,-1
 90 -169 l 1,31,-1
 106 -111 l 1,32,33
 157 -125 157 -125 222.5 -125 c 128,-1,34
 288 -125 288 -125 320 -115 c 1,35,36
 353 -72 353 -72 353 1.5 c 128,-1,37
 353 75 353 75 321 215 c 128,-1,38
 289 355 289 355 289 430 c 0,39,40
 289 466 289 466 294 495 c 1,41,-1
 331 493 l 1,42,-1
 341 487 l 1,43,-1
 341 474 l 2,22,23
EndSplineSet
EndChar

StartChar: dieresis
Encoding: 168 168 105
Width: 376
GlyphClass: 2
Flags: W
LayerCount: 2
Fore
SplineSet
49.5 577.5 m 128,-1,1
 34 593 34 593 34 616.5 c 128,-1,2
 34 640 34 640 49.5 656 c 128,-1,3
 65 672 65 672 88.5 672 c 128,-1,4
 112 672 112 672 128 656 c 128,-1,5
 144 640 144 640 144 616.5 c 128,-1,6
 144 593 144 593 128 577.5 c 128,-1,7
 112 562 112 562 88.5 562 c 128,-1,0
 65 562 65 562 49.5 577.5 c 128,-1,1
247.5 577.5 m 128,-1,9
 232 593 232 593 232 616.5 c 128,-1,10
 232 640 232 640 247.5 656 c 128,-1,11
 263 672 263 672 286.5 672 c 128,-1,12
 310 672 310 672 326 656 c 128,-1,13
 342 640 342 640 342 616.5 c 128,-1,14
 342 593 342 593 326 577.5 c 128,-1,15
 310 562 310 562 286.5 562 c 128,-1,8
 263 562 263 562 247.5 577.5 c 128,-1,9
EndSplineSet
EndChar

StartChar: copyright
Encoding: 169 169 106
Width: 904
GlyphClass: 2
Flags: W
LayerCount: 2
Fore
SplineSet
191 57 m 128,-1,1
 90 153 90 153 90 322 c 128,-1,2
 90 491 90 491 195 590 c 128,-1,3
 300 689 300 689 456 689 c 128,-1,4
 612 689 612 689 713 593 c 128,-1,5
 814 497 814 497 814 328.5 c 128,-1,6
 814 160 814 160 709.5 60.5 c 128,-1,7
 605 -39 605 -39 448.5 -39 c 128,-1,0
 292 -39 292 -39 191 57 c 128,-1,1
244 551 m 128,-1,9
 168 469 168 469 168 326 c 128,-1,10
 168 183 168 183 247 100 c 128,-1,11
 326 17 326 17 455.5 17 c 128,-1,12
 585 17 585 17 660.5 99 c 128,-1,13
 736 181 736 181 736 324 c 128,-1,14
 736 467 736 467 657.5 550 c 128,-1,15
 579 633 579 633 449.5 633 c 128,-1,8
 320 633 320 633 244 551 c 128,-1,9
506 460 m 1,16,17
 486 465 486 465 447.5 465 c 128,-1,18
 409 465 409 465 384 451 c 1,19,20
 358 414 358 414 358 341 c 0,21,22
 358 191 358 191 479 191 c 0,23,24
 527 191 527 191 578 209 c 1,25,-1
 589 188 l 1,26,27
 576 171 576 171 539.5 153.5 c 128,-1,28
 503 136 503 136 456 136 c 0,29,30
 381 136 381 136 331.5 185.5 c 128,-1,31
 282 235 282 235 282 330.5 c 128,-1,32
 282 426 282 426 335.5 473 c 128,-1,33
 389 520 389 520 461 520 c 0,34,35
 498 520 498 520 530 507 c 0,36,37
 581 486 581 486 593 462 c 1,38,-1
 534 387 l 1,39,-1
 515 393 l 1,40,-1
 506 460 l 1,16,17
EndSplineSet
EndChar

StartChar: ordfeminine
Encoding: 170 170 107
Width: 284
GlyphClass: 2
Flags: W
LayerCount: 2
Fore
SplineSet
163 449 m 1,0,1
 140 430 140 430 109.5 430 c 128,-1,2
 79 430 79 430 61.5 448 c 128,-1,3
 44 466 44 466 44 492.5 c 128,-1,4
 44 519 44 519 71 533.5 c 128,-1,5
 98 548 98 548 158 558 c 1,6,-1
 158 578 l 1,7,8
 160 617 160 617 122 617 c 0,9,10
 106 617 106 617 98 613 c 1,11,-1
 96 579 l 1,12,-1
 76 573 l 1,13,-1
 42 621 l 1,14,15
 79 658 79 658 134 658 c 0,16,17
 215 658 215 658 215 563 c 1,18,-1
 214 473 l 1,19,-1
 246 462 l 1,20,-1
 240 438 l 1,21,-1
 190 431 l 1,22,-1
 177 435 l 1,23,-1
 163 449 l 1,0,1
126 474 m 0,24,25
 146 474 146 474 158 480 c 1,26,-1
 158 525 l 1,27,28
 111 520 111 520 97 510 c 1,29,30
 95 474 95 474 126 474 c 0,24,25
25 327 m 1,31,-1
 37 366 l 1,32,-1
 248 370 l 1,33,-1
 259 358 l 1,34,-1
 248 312 l 1,35,36
 66 315 66 315 36 315 c 1,37,-1
 25 327 l 1,31,-1
EndSplineSet
EndChar

StartChar: guillemotleft
Encoding: 171 171 108
Width: 654
GlyphClass: 2
Flags: W
LayerCount: 2
Fore
SplineSet
329 6 m 1,0,-1
 90 208 l 1,1,-1
 90 242 l 1,2,-1
 329 444 l 1,3,-1
 360 412 l 1,4,-1
 191 225 l 1,5,-1
 360 38 l 1,6,-1
 329 6 l 1,0,-1
530 18 m 1,7,-1
 327 211 l 1,8,-1
 327 239 l 1,9,-1
 530 432 l 1,10,-1
 564 405 l 1,11,-1
 422 225 l 1,12,-1
 564 45 l 1,13,-1
 530 18 l 1,7,-1
EndSplineSet
EndChar

StartChar: logicalnot
Encoding: 172 172 109
Width: 630
GlyphClass: 2
Flags: W
LayerCount: 2
Fore
SplineSet
90 319 m 1,0,-1
 102 364 l 1,1,-1
 527 366 l 1,2,-1
 538 354 l 1,3,-1
 540 168 l 1,4,-1
 493 157 l 1,5,-1
 481 168 l 1,6,7
 482 206 482 206 483 305 c 1,8,9
 283 307 283 307 101 307 c 1,10,-1
 90 319 l 1,0,-1
EndSplineSet
EndChar

StartChar: registered
Encoding: 174 174 110
Width: 924
GlyphClass: 2
Flags: W
LayerCount: 2
Fore
SplineSet
195.5 57.5 m 128,-1,1
 90 154 90 154 90 322 c 128,-1,2
 90 490 90 490 199.5 589.5 c 128,-1,3
 309 689 309 689 466 689 c 128,-1,4
 623 689 623 689 728.5 592.5 c 128,-1,5
 834 496 834 496 834 328 c 128,-1,6
 834 160 834 160 725 60.5 c 128,-1,7
 616 -39 616 -39 458.5 -39 c 128,-1,0
 301 -39 301 -39 195.5 57.5 c 128,-1,1
248.5 551 m 128,-1,9
 168 469 168 469 168 326.5 c 128,-1,10
 168 184 168 184 251.5 100.5 c 128,-1,11
 335 17 335 17 465.5 17 c 128,-1,12
 596 17 596 17 676 99.5 c 128,-1,13
 756 182 756 182 756 324 c 128,-1,14
 756 466 756 466 673.5 549.5 c 128,-1,15
 591 633 591 633 460 633 c 128,-1,8
 329 633 329 633 248.5 551 c 128,-1,9
441 297 m 2,16,-1
 409 297 l 1,17,-1
 409 175 l 1,18,19
 435 164 435 164 457 152 c 1,20,-1
 454 133 l 1,21,-1
 296 133 l 1,22,-1
 291 152 l 1,23,-1
 325 167 l 2,24,25
 344 176 344 176 344 188 c 2,26,-1
 344 478 l 1,27,-1
 291 500 l 1,28,-1
 296 519 l 1,29,30
 405 525 405 525 445 525 c 0,31,32
 602 525 602 525 602 412 c 0,33,34
 602 370 602 370 579.5 343 c 128,-1,35
 557 316 557 316 521 307 c 1,36,37
 523 299 523 299 550 248 c 0,38,39
 597 156 597 156 642 156 c 0,40,41
 643 156 643 156 644 156 c 2,42,-1
 640 133 l 1,43,-1
 554 129 l 1,44,45
 522 147 522 147 458 284 c 0,46,47
 458 285 458 285 457 287 c 128,-1,48
 456 289 456 289 455.5 290.5 c 128,-1,49
 455 292 455 292 453 294 c 0,50,51
 448 297 448 297 441 297 c 2,16,-1
409 471 m 2,52,-1
 409 338 l 1,53,-1
 447 338 l 2,54,55
 490 338 490 338 510 347 c 1,56,-1
 510 346 l 1,57,58
 527 361 527 361 527 399 c 0,59,60
 527 484 527 484 454 484 c 2,61,-1
 423 484 l 2,62,63
 409 484 409 484 409 471 c 2,52,-1
EndSplineSet
EndChar

StartChar: degree
Encoding: 176 176 111
Width: 310
GlyphClass: 2
Flags: W
LayerCount: 2
Fore
SplineSet
97 538 m 0,0,1
 97 457 97 457 160 457 c 0,2,3
 177 457 177 457 193 463 c 1,4,5
 213 483 213 483 213 530 c 0,6,7
 213 611 213 611 150 611 c 0,8,9
 133 611 133 611 117 605 c 1,10,11
 97 585 97 585 97 538 c 0,0,1
62 445 m 128,-1,13
 30 480 30 480 30 536.5 c 128,-1,14
 30 593 30 593 65 625.5 c 128,-1,15
 100 658 100 658 157.5 658 c 128,-1,16
 215 658 215 658 247.5 622.5 c 128,-1,17
 280 587 280 587 280 532 c 128,-1,18
 280 477 280 477 245 443.5 c 128,-1,19
 210 410 210 410 152 410 c 128,-1,12
 94 410 94 410 62 445 c 128,-1,13
EndSplineSet
EndChar

StartChar: plusminus
Encoding: 177 177 112
Width: 548
GlyphClass: 2
Flags: W
LayerCount: 2
Fore
SplineSet
246 446 m 1,0,-1
 246 585 l 1,1,-1
 291 597 l 1,2,-1
 303 586 l 1,3,-1
 303 446 l 1,4,-1
 437 448 l 1,5,-1
 448 436 l 1,6,-1
 437 387 l 1,7,8
 374 387 374 387 304 388 c 1,9,-1
 305 250 l 1,10,-1
 256 239 l 1,11,-1
 244 250 l 1,12,13
 245 304 245 304 245 388 c 1,14,15
 182 389 182 389 111 389 c 1,16,-1
 100 401 l 1,17,-1
 112 446 l 1,18,-1
 246 446 l 1,0,-1
105 98 m 1,19,-1
 117 143 l 1,20,-1
 432 145 l 1,21,-1
 443 133 l 1,22,-1
 432 84 l 1,23,24
 147 86 147 86 116 86 c 1,25,-1
 105 98 l 1,19,-1
EndSplineSet
EndChar

StartChar: twosuperior
Encoding: 178 178 113
Width: 342
GlyphClass: 2
Flags: W
LayerCount: 2
Fore
SplineSet
172 472.5 m 128,-1,1
 202 511 202 511 202 540 c 0,2,3
 202 596 202 596 158 596 c 0,4,5
 145 596 145 596 133 591 c 1,6,-1
 130 552 l 1,7,-1
 100 545 l 1,8,-1
 60 597 l 1,9,10
 75 616 75 616 109.5 631.5 c 128,-1,11
 144 647 144 647 178.5 647 c 128,-1,12
 213 647 213 647 240.5 620.5 c 128,-1,13
 268 594 268 594 268 550.5 c 128,-1,14
 268 507 268 507 237.5 468.5 c 128,-1,15
 207 430 207 430 149 383 c 1,16,-1
 228 383 l 1,17,-1
 254 425 l 1,18,-1
 282 418 l 1,19,-1
 277 333 l 1,20,-1
 70 333 l 1,21,-1
 63 369 l 1,22,0
 142 434 142 434 172 472.5 c 128,-1,1
EndSplineSet
EndChar

StartChar: threesuperior
Encoding: 179 179 114
Width: 322
GlyphClass: 2
Flags: W
LayerCount: 2
Fore
SplineSet
232 623 m 128,-1,1
 257 599 257 599 257 556.5 c 128,-1,2
 257 514 257 514 227 486 c 1,3,4
 262 455 262 455 262 418 c 128,-1,5
 262 381 262 381 226.5 354.5 c 128,-1,6
 191 328 191 328 126 328 c 0,7,8
 95 328 95 328 71 334 c 1,9,-1
 66 348 l 1,10,-1
 75 387 l 1,11,12
 110 377 110 377 142 377 c 128,-1,13
 174 377 174 377 199 387 c 1,14,15
 203 399 203 399 203 414 c 0,16,17
 203 452 203 452 169 463 c 1,18,19
 124 463 124 463 115 466 c 1,20,-1
 108 475 l 1,21,-1
 112 502 l 2,22,23
 113 502 113 502 172 506 c 1,24,25
 201 520 201 520 201 552 c 0,26,27
 201 571 201 571 187 585.5 c 128,-1,28
 173 600 173 600 154.5 600 c 128,-1,29
 136 600 136 600 121 595 c 1,30,-1
 118 555 l 1,31,-1
 97 550 l 1,32,-1
 60 603 l 1,33,34
 104 647 104 647 155.5 647 c 128,-1,0
 207 647 207 647 232 623 c 128,-1,1
EndSplineSet
EndChar

StartChar: acute
Encoding: 180 180 115
Width: 293
GlyphClass: 2
Flags: W
LayerCount: 2
Fore
SplineSet
40 572 m 1,0,-1
 212 695 l 1,1,-1
 253 643 l 1,2,-1
 249 623 l 1,3,-1
 53 552 l 1,4,-1
 40 572 l 1,0,-1
EndSplineSet
EndChar

StartChar: mu
Encoding: 181 181 116
AltUni2: 0003bc.ffffffff.0
Width: 550
GlyphClass: 2
Flags: W
LayerCount: 2
Fore
SplineSet
235 -8 m 0,0,1
 194 -8 194 -8 162 6 c 1,2,-1
 168 -238 l 1,3,-1
 92 -238 l 1,4,-1
 80 -227 l 1,5,6
 91 -50 91 -50 91 57 c 2,7,-1
 91 378 l 1,8,-1
 21 389 l 1,9,-1
 15 411 l 1,10,-1
 152 458 l 1,11,-1
 172 450 l 1,12,-1
 172 157 l 2,13,14
 172 106 172 106 195.5 83.5 c 128,-1,15
 219 61 219 61 271 61 c 128,-1,16
 323 61 323 61 375 74 c 1,17,-1
 375 378 l 1,18,-1
 305 389 l 1,19,-1
 299 411 l 1,20,-1
 436 458 l 1,21,-1
 456 450 l 1,22,-1
 456 54 l 1,23,-1
 525 30 l 1,24,-1
 519 8 l 1,25,-1
 434 -8 l 1,26,-1
 414 0 l 1,27,-1
 382 28 l 1,28,-1
 377 30 l 1,29,30
 308 -8 308 -8 235 -8 c 0,0,1
EndSplineSet
EndChar

StartChar: paragraph
Encoding: 182 182 117
Width: 488
GlyphClass: 2
Flags: W
LayerCount: 2
Fore
SplineSet
97 15 m 1,0,1
 162 -17 162 -17 223 -17 c 0,2,3
 239 -17 239 -17 260.5 -14 c 128,-1,4
 282 -11 282 -11 288 -7 c 1,5,6
 303 21 303 21 303 105 c 2,7,-1
 303 266 l 1,8,9
 294 265 294 265 271 265 c 0,10,11
 171 265 171 265 103 316.5 c 128,-1,12
 35 368 35 368 35 465 c 128,-1,13
 35 562 35 562 104 609.5 c 128,-1,14
 173 657 173 657 287 657 c 0,15,16
 332 657 332 657 462 650 c 1,17,-1
 468 628 l 1,18,-1
 413 605 l 2,19,20
 391 596 391 596 381.5 588.5 c 128,-1,21
 372 581 372 581 372 567 c 2,22,-1
 372 124 l 2,23,24
 372 28 372 28 326 -24.5 c 128,-1,25
 280 -77 280 -77 199 -77 c 0,26,27
 159 -77 159 -77 127.5 -68 c 128,-1,28
 96 -59 96 -59 88 -53 c 1,29,-1
 77 -34 l 1,30,-1
 97 15 l 1,0,1
EndSplineSet
EndChar

StartChar: periodcentered
Encoding: 183 183 118
Width: 210
GlyphClass: 2
Flags: W
LayerCount: 2
Fore
SplineSet
65.5 180.5 m 128,-1,1
 50 196 50 196 50 219.5 c 128,-1,2
 50 243 50 243 65.5 259 c 128,-1,3
 81 275 81 275 104.5 275 c 128,-1,4
 128 275 128 275 144 259 c 128,-1,5
 160 243 160 243 160 219.5 c 128,-1,6
 160 196 160 196 144 180.5 c 128,-1,7
 128 165 128 165 104.5 165 c 128,-1,0
 81 165 81 165 65.5 180.5 c 128,-1,1
EndSplineSet
EndChar

StartChar: cedilla
Encoding: 184 184 119
Width: 357
GlyphClass: 2
Flags: W
LayerCount: 2
Fore
SplineSet
100 -187 m 1,0,1
 123 -196 123 -196 150.5 -196 c 128,-1,2
 178 -196 178 -196 199 -189 c 1,3,4
 208 -175 208 -175 208 -154 c 0,5,6
 208 -99 208 -99 146 -99 c 0,7,8
 141 -99 141 -99 135 -99 c 1,9,-1
 124 -86 l 1,10,-1
 154 18 l 1,11,-1
 185 18 l 1,12,-1
 180 -68 l 1,13,14
 217 -70 217 -70 242 -91 c 128,-1,15
 267 -112 267 -112 267 -148.5 c 128,-1,16
 267 -185 267 -185 234.5 -211.5 c 128,-1,17
 202 -238 202 -238 157.5 -238 c 128,-1,18
 113 -238 113 -238 97 -230 c 1,19,-1
 90 -220 l 1,20,-1
 100 -187 l 1,0,1
EndSplineSet
EndChar

StartChar: onesuperior
Encoding: 185 185 120
Width: 281
GlyphClass: 2
Flags: W
LayerCount: 2
Fore
SplineSet
113 379 m 2,0,-1
 113 575 l 1,1,-1
 65 569 l 1,2,-1
 60 592 l 1,3,-1
 153 646 l 1,4,-1
 177 639 l 1,5,-1
 177 373 l 1,6,-1
 221 352 l 1,7,-1
 215 333 l 1,8,-1
 69 333 l 1,9,-1
 64 356 l 1,10,-1
 109 373 l 2,11,12
 113 374 113 374 113 379 c 2,0,-1
EndSplineSet
EndChar

StartChar: ordmasculine
Encoding: 186 186 121
Width: 280
GlyphClass: 2
Flags: W
LayerCount: 2
Fore
SplineSet
25 327 m 1,0,-1
 37 366 l 1,1,-1
 244 370 l 1,2,-1
 255 358 l 1,3,-1
 244 312 l 1,4,5
 66 315 66 315 36 315 c 1,6,-1
 25 327 l 1,0,-1
92 547 m 0,7,8
 92 477 92 477 145 477 c 0,9,10
 159 477 159 477 172 482 c 1,11,12
 188 498 188 498 188 541 c 0,13,14
 188 611 188 611 135 611 c 0,15,16
 121 611 121 611 108 606 c 1,17,18
 92 590 92 590 92 547 c 0,7,8
56 463.5 m 128,-1,20
 25 497 25 497 25 546 c 128,-1,21
 25 595 25 595 58.5 626.5 c 128,-1,22
 92 658 92 658 142.5 658 c 128,-1,23
 193 658 193 658 224 624 c 128,-1,24
 255 590 255 590 255 542 c 128,-1,25
 255 494 255 494 221.5 462 c 128,-1,26
 188 430 188 430 137.5 430 c 128,-1,19
 87 430 87 430 56 463.5 c 128,-1,20
EndSplineSet
EndChar

StartChar: guillemotright
Encoding: 187 187 122
Width: 654
GlyphClass: 2
Flags: W
LayerCount: 2
Fore
SplineSet
564 208 m 1,0,-1
 325 6 l 1,1,-1
 294 38 l 1,2,-1
 463 225 l 1,3,-1
 294 412 l 1,4,-1
 325 444 l 1,5,-1
 564 242 l 1,6,-1
 564 208 l 1,0,-1
327 211 m 1,7,-1
 124 18 l 1,8,-1
 90 45 l 1,9,-1
 232 225 l 1,10,-1
 90 405 l 1,11,-1
 124 432 l 1,12,-1
 327 239 l 1,13,-1
 327 211 l 1,7,-1
EndSplineSet
EndChar

StartChar: onequarter
Encoding: 188 188 123
Width: 669
GlyphClass: 2
Flags: W
LayerCount: 2
Fore
SplineSet
584 296 m 128,-1,1
 609 272 609 272 609 229.5 c 128,-1,2
 609 187 609 187 579 159 c 1,3,4
 614 128 614 128 614 91 c 128,-1,5
 614 54 614 54 578.5 27.5 c 128,-1,6
 543 1 543 1 478 1 c 0,7,8
 447 1 447 1 423 7 c 1,9,-1
 418 21 l 1,10,-1
 427 60 l 1,11,12
 462 50 462 50 494 50 c 128,-1,13
 526 50 526 50 551 60 c 1,14,15
 555 72 555 72 555 87 c 0,16,17
 555 125 555 125 521 136 c 1,18,19
 476 136 476 136 467 139 c 1,20,-1
 460 148 l 1,21,-1
 464 175 l 2,22,23
 465 175 465 175 524 179 c 1,24,25
 553 193 553 193 553 225 c 0,26,27
 553 244 553 244 539 258.5 c 128,-1,28
 525 273 525 273 506.5 273 c 128,-1,29
 488 273 488 273 473 268 c 1,30,-1
 470 228 l 1,31,-1
 449 223 l 1,32,-1
 412 276 l 1,33,34
 456 320 456 320 507.5 320 c 128,-1,0
 559 320 559 320 584 296 c 128,-1,1
125 379 m 2,35,-1
 125 575 l 1,36,-1
 77 569 l 1,37,-1
 72 592 l 1,38,-1
 165 646 l 1,39,-1
 189 639 l 1,40,-1
 189 373 l 1,41,-1
 233 352 l 1,42,-1
 227 333 l 1,43,-1
 81 333 l 1,44,-1
 76 356 l 1,45,-1
 121 373 l 2,46,47
 125 374 125 374 125 379 c 2,35,-1
582 630 m 1,48,-1
 594 619 l 1,49,50
 352 312 352 312 136 19 c 1,51,-1
 72 4 l 1,52,-1
 60 15 l 1,53,54
 302 322 302 322 518 615 c 1,55,-1
 582 630 l 1,48,-1
EndSplineSet
EndChar

StartChar: onehalf
Encoding: 189 189 124
Width: 678
GlyphClass: 2
Flags: W
LayerCount: 2
Fore
SplineSet
125 379 m 2,0,-1
 125 575 l 1,1,-1
 77 569 l 1,2,-1
 72 592 l 1,3,-1
 165 646 l 1,4,-1
 189 639 l 1,5,-1
 189 373 l 1,6,-1
 233 352 l 1,7,-1
 227 333 l 1,8,-1
 81 333 l 1,9,-1
 76 356 l 1,10,-1
 121 373 l 2,11,12
 125 374 125 374 125 379 c 2,0,-1
508 142.5 m 128,-1,14
 538 181 538 181 538 210 c 0,15,16
 538 266 538 266 494 266 c 0,17,18
 481 266 481 266 469 261 c 1,19,-1
 466 222 l 1,20,-1
 436 215 l 1,21,-1
 396 267 l 1,22,23
 411 286 411 286 445.5 301.5 c 128,-1,24
 480 317 480 317 514.5 317 c 128,-1,25
 549 317 549 317 576.5 290.5 c 128,-1,26
 604 264 604 264 604 220.5 c 128,-1,27
 604 177 604 177 573.5 138.5 c 128,-1,28
 543 100 543 100 485 53 c 1,29,-1
 564 53 l 1,30,-1
 590 95 l 1,31,-1
 618 88 l 1,32,-1
 613 3 l 1,33,-1
 406 3 l 1,34,-1
 399 39 l 1,35,13
 478 104 478 104 508 142.5 c 128,-1,14
582 630 m 1,36,-1
 594 619 l 1,37,38
 352 312 352 312 136 19 c 1,39,-1
 72 4 l 1,40,-1
 60 15 l 1,41,42
 302 322 302 322 518 615 c 1,43,-1
 582 630 l 1,36,-1
EndSplineSet
EndChar

StartChar: threequarters
Encoding: 190 190 125
Width: 654
GlyphClass: 2
Flags: W
LayerCount: 2
Fore
SplineSet
457 82 m 1,0,-1
 335 82 l 1,1,-1
 330 112 l 1,2,-1
 458 308 l 1,3,-1
 495 319 l 1,4,-1
 514 313 l 1,5,6
 514 238 514 238 516 128 c 1,7,-1
 555 129 l 1,8,-1
 562 120 l 1,9,-1
 559 82 l 1,10,-1
 516 82 l 1,11,-1
 517 4 l 1,12,-1
 465 0 l 1,13,-1
 456 8 l 1,14,15
 457 38 457 38 457 82 c 1,0,-1
457 126 m 1,16,-1
 458 225 l 1,17,-1
 395 126 l 1,18,-1
 457 126 l 1,16,-1
125 379 m 2,19,-1
 125 575 l 1,20,-1
 77 569 l 1,21,-1
 72 592 l 1,22,-1
 165 646 l 1,23,-1
 189 639 l 1,24,-1
 189 373 l 1,25,-1
 233 352 l 1,26,-1
 227 333 l 1,27,-1
 81 333 l 1,28,-1
 76 356 l 1,29,-1
 121 373 l 2,30,31
 125 374 125 374 125 379 c 2,19,-1
582 630 m 1,32,-1
 594 619 l 1,33,34
 352 312 352 312 136 19 c 1,35,-1
 72 4 l 1,36,-1
 60 15 l 1,37,38
 302 322 302 322 518 615 c 1,39,-1
 582 630 l 1,32,-1
EndSplineSet
EndChar

StartChar: questiondown
Encoding: 191 191 126
Width: 406
GlyphClass: 2
Flags: W
LayerCount: 2
Fore
SplineSet
166 60 m 128,-1,1
 128 28 128 28 128 -32.5 c 128,-1,2
 128 -93 128 -93 161 -122 c 1,3,4
 193 -134 193 -134 255 -134 c 128,-1,5
 317 -134 317 -134 370 -117 c 1,6,-1
 381 -171 l 1,7,-1
 370 -189 l 1,8,9
 334 -207 334 -207 273 -207 c 0,10,11
 177 -207 177 -207 113.5 -158 c 128,-1,12
 50 -109 50 -109 50 -30.5 c 128,-1,13
 50 48 50 48 98 95 c 128,-1,14
 146 142 146 142 240 183 c 1,15,-1
 248 269 l 1,16,-1
 286 271 l 1,17,-1
 300 133 l 1,18,0
 204 92 204 92 166 60 c 128,-1,1
316 403 m 128,-1,20
 316 379 316 379 300.5 363.5 c 128,-1,21
 285 348 285 348 261 348 c 128,-1,22
 237 348 237 348 221.5 364 c 128,-1,23
 206 380 206 380 206 403 c 128,-1,24
 206 426 206 426 222 442 c 128,-1,25
 238 458 238 458 261.5 458 c 128,-1,26
 285 458 285 458 300.5 442.5 c 128,-1,19
 316 427 316 427 316 403 c 128,-1,20
EndSplineSet
EndChar

StartChar: Agrave
Encoding: 192 192 127
Width: 682
GlyphClass: 2
Flags: W
LayerCount: 2
Fore
SplineSet
490 70 m 0,0,1
 490 76 490 76 487 83 c 2,2,-1
 442 210 l 1,3,-1
 210 210 l 1,4,-1
 157 57 l 1,5,-1
 243 22 l 1,6,-1
 237 0 l 1,7,-1
 16 0 l 1,8,-1
 10 22 l 1,9,-1
 65 45 l 2,10,11
 82 52 82 52 86.5 58 c 128,-1,12
 91 64 91 64 98 83 c 2,13,-1
 298 640 l 1,14,-1
 359 658 l 1,15,-1
 379 650 l 1,16,-1
 594 54 l 1,17,-1
 672 22 l 1,18,-1
 666 0 l 1,19,-1
 421 0 l 1,20,-1
 415 22 l 1,21,-1
 470 45 l 2,22,23
 490 53 490 53 490 70 c 0,0,1
325 542 m 1,24,-1
 227 261 l 1,25,-1
 424 261 l 1,26,-1
 325 542 l 1,24,-1
415 722 m 1,27,-1
 204 799 l 1,28,-1
 247 854 l 1,29,-1
 267 858 l 1,30,-1
 428 742 l 1,31,-1
 415 722 l 1,27,-1
EndSplineSet
EndChar

StartChar: Aacute
Encoding: 193 193 128
Width: 682
GlyphClass: 2
Flags: W
LayerCount: 2
Fore
SplineSet
490 70 m 0,0,1
 490 76 490 76 487 83 c 2,2,-1
 442 210 l 1,3,-1
 210 210 l 1,4,-1
 157 57 l 1,5,-1
 243 22 l 1,6,-1
 237 0 l 1,7,-1
 16 0 l 1,8,-1
 10 22 l 1,9,-1
 65 45 l 2,10,11
 82 52 82 52 86.5 58 c 128,-1,12
 91 64 91 64 98 83 c 2,13,-1
 298 640 l 1,14,-1
 359 658 l 1,15,-1
 379 650 l 1,16,-1
 594 54 l 1,17,-1
 672 22 l 1,18,-1
 666 0 l 1,19,-1
 421 0 l 1,20,-1
 415 22 l 1,21,-1
 470 45 l 2,22,23
 490 53 490 53 490 70 c 0,0,1
325 542 m 1,24,-1
 227 261 l 1,25,-1
 424 261 l 1,26,-1
 325 542 l 1,24,-1
240 742 m 1,27,-1
 412 865 l 1,28,-1
 453 813 l 1,29,-1
 449 793 l 1,30,-1
 253 722 l 1,31,-1
 240 742 l 1,27,-1
EndSplineSet
EndChar

StartChar: Acircumflex
Encoding: 194 194 129
Width: 682
GlyphClass: 2
Flags: W
LayerCount: 2
Fore
SplineSet
490 70 m 0,0,1
 490 76 490 76 487 83 c 2,2,-1
 442 210 l 1,3,-1
 210 210 l 1,4,-1
 157 57 l 1,5,-1
 243 22 l 1,6,-1
 237 0 l 1,7,-1
 16 0 l 1,8,-1
 10 22 l 1,9,-1
 65 45 l 2,10,11
 82 52 82 52 86.5 58 c 128,-1,12
 91 64 91 64 98 83 c 2,13,-1
 298 640 l 1,14,-1
 359 658 l 1,15,-1
 379 650 l 1,16,-1
 594 54 l 1,17,-1
 672 22 l 1,18,-1
 666 0 l 1,19,-1
 421 0 l 1,20,-1
 415 22 l 1,21,-1
 470 45 l 2,22,23
 490 53 490 53 490 70 c 0,0,1
325 542 m 1,24,-1
 227 261 l 1,25,-1
 424 261 l 1,26,-1
 325 542 l 1,24,-1
201 747 m 1,27,-1
 321 858 l 1,28,-1
 361 858 l 1,29,-1
 481 747 l 1,30,-1
 462 728 l 1,31,-1
 341 787 l 1,32,-1
 220 728 l 1,33,-1
 201 747 l 1,27,-1
EndSplineSet
EndChar

StartChar: Atilde
Encoding: 195 195 130
Width: 682
GlyphClass: 2
Flags: W
LayerCount: 2
Fore
SplineSet
490 70 m 0,0,1
 490 76 490 76 487 83 c 2,2,-1
 442 210 l 1,3,-1
 210 210 l 1,4,-1
 157 57 l 1,5,-1
 243 22 l 1,6,-1
 237 0 l 1,7,-1
 16 0 l 1,8,-1
 10 22 l 1,9,-1
 65 45 l 2,10,11
 82 52 82 52 86.5 58 c 128,-1,12
 91 64 91 64 98 83 c 2,13,-1
 298 640 l 1,14,-1
 359 658 l 1,15,-1
 379 650 l 1,16,-1
 594 54 l 1,17,-1
 672 22 l 1,18,-1
 666 0 l 1,19,-1
 421 0 l 1,20,-1
 415 22 l 1,21,-1
 470 45 l 2,22,23
 490 53 490 53 490 70 c 0,0,1
325 542 m 1,24,-1
 227 261 l 1,25,-1
 424 261 l 1,26,-1
 325 542 l 1,24,-1
428 801 m 2,27,28
 428 801 428 801 429 801 c 2,29,-1
 484 848 l 1,30,-1
 501 837 l 1,31,-1
 449 738 l 1,32,-1
 429 733 l 1,33,34
 403 733 403 733 337 759 c 128,-1,35
 271 785 271 785 254 785 c 2,36,37
 254 785 254 785 253 785 c 2,38,-1
 198 738 l 1,39,-1
 181 749 l 1,40,-1
 233 848 l 1,41,-1
 253 853 l 1,42,43
 279 853 279 853 345 827 c 128,-1,44
 411 801 411 801 428 801 c 2,27,28
EndSplineSet
EndChar

StartChar: Adieresis
Encoding: 196 196 131
Width: 682
GlyphClass: 2
Flags: W
LayerCount: 2
Fore
SplineSet
490 70 m 0,0,1
 490 76 490 76 487 83 c 2,2,-1
 442 210 l 1,3,-1
 210 210 l 1,4,-1
 157 57 l 1,5,-1
 243 22 l 1,6,-1
 237 0 l 1,7,-1
 16 0 l 1,8,-1
 10 22 l 1,9,-1
 65 45 l 2,10,11
 82 52 82 52 86.5 58 c 128,-1,12
 91 64 91 64 98 83 c 2,13,-1
 298 640 l 1,14,-1
 359 658 l 1,15,-1
 379 650 l 1,16,-1
 594 54 l 1,17,-1
 672 22 l 1,18,-1
 666 0 l 1,19,-1
 421 0 l 1,20,-1
 415 22 l 1,21,-1
 470 45 l 2,22,23
 490 53 490 53 490 70 c 0,0,1
325 542 m 1,24,-1
 227 261 l 1,25,-1
 424 261 l 1,26,-1
 325 542 l 1,24,-1
202.5 747.5 m 128,-1,28
 187 763 187 763 187 786.5 c 128,-1,29
 187 810 187 810 202.5 826 c 128,-1,30
 218 842 218 842 241.5 842 c 128,-1,31
 265 842 265 842 281 826 c 128,-1,32
 297 810 297 810 297 786.5 c 128,-1,33
 297 763 297 763 281 747.5 c 128,-1,34
 265 732 265 732 241.5 732 c 128,-1,27
 218 732 218 732 202.5 747.5 c 128,-1,28
400.5 747.5 m 128,-1,36
 385 763 385 763 385 786.5 c 128,-1,37
 385 810 385 810 400.5 826 c 128,-1,38
 416 842 416 842 439.5 842 c 128,-1,39
 463 842 463 842 479 826 c 128,-1,40
 495 810 495 810 495 786.5 c 128,-1,41
 495 763 495 763 479 747.5 c 128,-1,42
 463 732 463 732 439.5 732 c 128,-1,35
 416 732 416 732 400.5 747.5 c 128,-1,36
EndSplineSet
EndChar

StartChar: Aring
Encoding: 197 197 132
Width: 682
GlyphClass: 2
Flags: W
LayerCount: 2
Fore
SplineSet
490 70 m 0,0,1
 490 76 490 76 487 83 c 2,2,-1
 442 210 l 1,3,-1
 210 210 l 1,4,-1
 157 57 l 1,5,-1
 243 22 l 1,6,-1
 237 0 l 1,7,-1
 16 0 l 1,8,-1
 10 22 l 1,9,-1
 65 45 l 2,10,11
 82 52 82 52 86.5 58 c 128,-1,12
 91 64 91 64 98 83 c 2,13,-1
 298 640 l 1,14,-1
 359 658 l 1,15,-1
 379 650 l 1,16,-1
 594 54 l 1,17,-1
 672 22 l 1,18,-1
 666 0 l 1,19,-1
 421 0 l 1,20,-1
 415 22 l 1,21,-1
 470 45 l 2,22,23
 490 53 490 53 490 70 c 0,0,1
325 542 m 1,24,-1
 227 261 l 1,25,-1
 424 261 l 1,26,-1
 325 542 l 1,24,-1
302 796 m 0,27,28
 302 743 302 743 345 743 c 0,29,30
 358 743 358 743 365 748 c 0,31,32
 380 759 380 759 380 790 c 0,33,34
 380 843 380 843 337 843 c 0,35,36
 324 843 324 843 317 838 c 0,37,38
 302 827 302 827 302 796 c 0,27,28
270.5 730 m 128,-1,40
 245 753 245 753 245 792.5 c 128,-1,41
 245 832 245 832 272.5 855.5 c 128,-1,42
 300 879 300 879 342.5 879 c 128,-1,43
 385 879 385 879 411 855.5 c 128,-1,44
 437 832 437 832 437 793 c 128,-1,45
 437 754 437 754 409 730.5 c 128,-1,46
 381 707 381 707 338.5 707 c 128,-1,39
 296 707 296 707 270.5 730 c 128,-1,40
EndSplineSet
EndChar

StartChar: AE
Encoding: 198 198 133
Width: 883
GlyphClass: 2
Flags: W
LayerCount: 2
Fore
SplineSet
568 570 m 2,0,-1
 568 352 l 1,1,2
 641 352 641 352 732 360 c 1,3,-1
 763 362 l 1,4,-1
 774 350 l 1,5,-1
 763 298 l 1,6,7
 649 303 649 303 568 303 c 1,8,-1
 568 50 l 1,9,-1
 755 54 l 1,10,-1
 803 142 l 1,11,-1
 833 135 l 1,12,-1
 833 0 l 1,13,-1
 403 0 l 1,14,-1
 397 22 l 1,15,-1
 452 45 l 2,16,17
 470 52 470 52 476.5 60 c 128,-1,18
 483 68 483 68 483 83 c 2,19,-1
 483 203 l 1,20,-1
 255 203 l 1,21,-1
 169 57 l 1,22,-1
 255 22 l 1,23,-1
 249 0 l 1,24,-1
 8 0 l 1,25,-1
 2 22 l 1,26,-1
 57 45 l 2,27,28
 93 60 93 60 107 83 c 2,29,-1
 413 593 l 1,30,-1
 327 628 l 1,31,-1
 333 650 l 1,32,-1
 828 650 l 1,33,-1
 828 515 l 1,34,-1
 798 508 l 1,35,-1
 750 596 l 1,36,-1
 595 600 l 2,37,38
 568 600 568 600 568 570 c 2,0,-1
483 256 m 1,39,-1
 483 589 l 1,40,-1
 286 256 l 1,41,-1
 483 256 l 1,39,-1
EndSplineSet
EndChar

StartChar: Ccedilla
Encoding: 199 199 134
Width: 583
GlyphClass: 2
Flags: W
LayerCount: 2
Fore
SplineSet
243 -187 m 1,0,1
 266 -196 266 -196 293.5 -196 c 128,-1,2
 321 -196 321 -196 342 -189 c 1,3,4
 351 -175 351 -175 351 -154 c 0,5,6
 351 -99 351 -99 289 -99 c 0,7,8
 284 -99 284 -99 278 -99 c 1,9,-1
 267 -86 l 1,10,-1
 290 -4 l 1,11,12
 176 12 176 12 105.5 96.5 c 128,-1,13
 35 181 35 181 35 320 c 0,14,15
 35 482 35 482 128 570 c 128,-1,16
 221 658 221 658 351 658 c 0,17,18
 444 658 444 658 496 617 c 0,19,20
 531 589 531 589 544 567 c 1,21,-1
 479 477 l 1,22,-1
 455 484 l 1,23,-1
 450 578 l 1,24,25
 404 594 404 594 334 594 c 128,-1,26
 264 594 264 594 214 572 c 1,27,28
 124 488 124 488 124 334 c 0,29,30
 124 199 124 199 194 126.5 c 128,-1,31
 264 54 264 54 371 54 c 0,32,33
 452 54 452 54 538 97 c 1,34,-1
 553 68 l 1,35,36
 527 42 527 42 470.5 17 c 128,-1,37
 414 -8 414 -8 339 -8 c 2,38,-1
 326 -8 l 1,39,-1
 323 -68 l 1,40,41
 360 -70 360 -70 385 -91 c 128,-1,42
 410 -112 410 -112 410 -148.5 c 128,-1,43
 410 -185 410 -185 377.5 -211.5 c 128,-1,44
 345 -238 345 -238 300.5 -238 c 128,-1,45
 256 -238 256 -238 240 -230 c 1,46,-1
 233 -220 l 1,47,-1
 243 -187 l 1,0,1
EndSplineSet
EndChar

StartChar: Egrave
Encoding: 200 200 135
Width: 561
GlyphClass: 2
Flags: W
LayerCount: 2
Fore
SplineSet
216 568 m 2,0,-1
 216 352 l 1,1,2
 311 352 311 352 408 361 c 2,3,-1
 441 364 l 1,4,-1
 452 352 l 1,5,-1
 441 296 l 1,6,7
 322 303 322 303 216 303 c 1,8,-1
 216 52 l 1,9,-1
 433 56 l 1,10,-1
 481 144 l 1,11,-1
 511 137 l 1,12,-1
 511 0 l 1,13,-1
 51 0 l 1,14,-1
 45 22 l 1,15,-1
 100 45 l 2,16,17
 118 52 118 52 124.5 60 c 128,-1,18
 131 68 131 68 131 83 c 2,19,-1
 131 593 l 1,20,-1
 45 628 l 1,21,-1
 51 650 l 1,22,-1
 506 650 l 1,23,-1
 506 513 l 1,24,-1
 476 506 l 1,25,-1
 428 594 l 1,26,-1
 243 598 l 2,27,28
 216 598 216 598 216 568 c 2,0,-1
377 722 m 1,29,-1
 166 799 l 1,30,-1
 209 854 l 1,31,-1
 229 858 l 1,32,-1
 390 742 l 1,33,-1
 377 722 l 1,29,-1
EndSplineSet
EndChar

StartChar: Eacute
Encoding: 201 201 136
Width: 561
GlyphClass: 2
Flags: W
LayerCount: 2
Fore
SplineSet
216 568 m 2,0,-1
 216 352 l 1,1,2
 311 352 311 352 408 361 c 2,3,-1
 441 364 l 1,4,-1
 452 352 l 1,5,-1
 441 296 l 1,6,7
 322 303 322 303 216 303 c 1,8,-1
 216 52 l 1,9,-1
 433 56 l 1,10,-1
 481 144 l 1,11,-1
 511 137 l 1,12,-1
 511 0 l 1,13,-1
 51 0 l 1,14,-1
 45 22 l 1,15,-1
 100 45 l 2,16,17
 118 52 118 52 124.5 60 c 128,-1,18
 131 68 131 68 131 83 c 2,19,-1
 131 593 l 1,20,-1
 45 628 l 1,21,-1
 51 650 l 1,22,-1
 506 650 l 1,23,-1
 506 513 l 1,24,-1
 476 506 l 1,25,-1
 428 594 l 1,26,-1
 243 598 l 2,27,28
 216 598 216 598 216 568 c 2,0,-1
192 742 m 1,29,-1
 364 865 l 1,30,-1
 405 813 l 1,31,-1
 401 793 l 1,32,-1
 205 722 l 1,33,-1
 192 742 l 1,29,-1
EndSplineSet
EndChar

StartChar: Ecircumflex
Encoding: 202 202 137
Width: 561
GlyphClass: 2
Flags: W
LayerCount: 2
Fore
SplineSet
216 568 m 2,0,-1
 216 352 l 1,1,2
 311 352 311 352 408 361 c 2,3,-1
 441 364 l 1,4,-1
 452 352 l 1,5,-1
 441 296 l 1,6,7
 322 303 322 303 216 303 c 1,8,-1
 216 52 l 1,9,-1
 433 56 l 1,10,-1
 481 144 l 1,11,-1
 511 137 l 1,12,-1
 511 0 l 1,13,-1
 51 0 l 1,14,-1
 45 22 l 1,15,-1
 100 45 l 2,16,17
 118 52 118 52 124.5 60 c 128,-1,18
 131 68 131 68 131 83 c 2,19,-1
 131 593 l 1,20,-1
 45 628 l 1,21,-1
 51 650 l 1,22,-1
 506 650 l 1,23,-1
 506 513 l 1,24,-1
 476 506 l 1,25,-1
 428 594 l 1,26,-1
 243 598 l 2,27,28
 216 598 216 598 216 568 c 2,0,-1
158 747 m 1,29,-1
 278 858 l 1,30,-1
 318 858 l 1,31,-1
 438 747 l 1,32,-1
 419 728 l 1,33,-1
 298 787 l 1,34,-1
 177 728 l 1,35,-1
 158 747 l 1,29,-1
EndSplineSet
EndChar

StartChar: Edieresis
Encoding: 203 203 138
Width: 561
GlyphClass: 2
Flags: W
LayerCount: 2
Fore
SplineSet
216 568 m 2,0,-1
 216 352 l 1,1,2
 311 352 311 352 408 361 c 2,3,-1
 441 364 l 1,4,-1
 452 352 l 1,5,-1
 441 296 l 1,6,7
 322 303 322 303 216 303 c 1,8,-1
 216 52 l 1,9,-1
 433 56 l 1,10,-1
 481 144 l 1,11,-1
 511 137 l 1,12,-1
 511 0 l 1,13,-1
 51 0 l 1,14,-1
 45 22 l 1,15,-1
 100 45 l 2,16,17
 118 52 118 52 124.5 60 c 128,-1,18
 131 68 131 68 131 83 c 2,19,-1
 131 593 l 1,20,-1
 45 628 l 1,21,-1
 51 650 l 1,22,-1
 506 650 l 1,23,-1
 506 513 l 1,24,-1
 476 506 l 1,25,-1
 428 594 l 1,26,-1
 243 598 l 2,27,28
 216 598 216 598 216 568 c 2,0,-1
159.5 747.5 m 128,-1,30
 144 763 144 763 144 786.5 c 128,-1,31
 144 810 144 810 159.5 826 c 128,-1,32
 175 842 175 842 198.5 842 c 128,-1,33
 222 842 222 842 238 826 c 128,-1,34
 254 810 254 810 254 786.5 c 128,-1,35
 254 763 254 763 238 747.5 c 128,-1,36
 222 732 222 732 198.5 732 c 128,-1,29
 175 732 175 732 159.5 747.5 c 128,-1,30
357.5 747.5 m 128,-1,38
 342 763 342 763 342 786.5 c 128,-1,39
 342 810 342 810 357.5 826 c 128,-1,40
 373 842 373 842 396.5 842 c 128,-1,41
 420 842 420 842 436 826 c 128,-1,42
 452 810 452 810 452 786.5 c 128,-1,43
 452 763 452 763 436 747.5 c 128,-1,44
 420 732 420 732 396.5 732 c 128,-1,37
 373 732 373 732 357.5 747.5 c 128,-1,38
EndSplineSet
EndChar

StartChar: Igrave
Encoding: 204 204 139
Width: 347
GlyphClass: 2
Flags: W
LayerCount: 2
Fore
SplineSet
216 567 m 2,0,-1
 216 57 l 1,1,-1
 302 22 l 1,2,-1
 296 0 l 1,3,-1
 51 0 l 1,4,-1
 45 22 l 1,5,-1
 100 45 l 2,6,7
 118 52 118 52 124.5 60 c 128,-1,8
 131 68 131 68 131 83 c 2,9,-1
 131 593 l 1,10,-1
 45 628 l 1,11,-1
 51 650 l 1,12,-1
 296 650 l 1,13,-1
 302 628 l 1,14,-1
 247 605 l 2,15,16
 229 598 229 598 222.5 590 c 128,-1,17
 216 582 216 582 216 567 c 2,0,-1
262 722 m 1,18,-1
 51 799 l 1,19,-1
 94 854 l 1,20,-1
 114 858 l 1,21,-1
 275 742 l 1,22,-1
 262 722 l 1,18,-1
EndSplineSet
EndChar

StartChar: Iacute
Encoding: 205 205 140
Width: 347
GlyphClass: 2
Flags: W
LayerCount: 2
Fore
SplineSet
216 567 m 2,0,-1
 216 57 l 1,1,-1
 302 22 l 1,2,-1
 296 0 l 1,3,-1
 51 0 l 1,4,-1
 45 22 l 1,5,-1
 100 45 l 2,6,7
 118 52 118 52 124.5 60 c 128,-1,8
 131 68 131 68 131 83 c 2,9,-1
 131 593 l 1,10,-1
 45 628 l 1,11,-1
 51 650 l 1,12,-1
 296 650 l 1,13,-1
 302 628 l 1,14,-1
 247 605 l 2,15,16
 229 598 229 598 222.5 590 c 128,-1,17
 216 582 216 582 216 567 c 2,0,-1
67 742 m 1,18,-1
 239 865 l 1,19,-1
 280 813 l 1,20,-1
 276 793 l 1,21,-1
 80 722 l 1,22,-1
 67 742 l 1,18,-1
EndSplineSet
EndChar

StartChar: Icircumflex
Encoding: 206 206 141
Width: 347
GlyphClass: 2
Flags: W
LayerCount: 2
Fore
SplineSet
216 567 m 2,0,-1
 216 57 l 1,1,-1
 302 22 l 1,2,-1
 296 0 l 1,3,-1
 51 0 l 1,4,-1
 45 22 l 1,5,-1
 100 45 l 2,6,7
 118 52 118 52 124.5 60 c 128,-1,8
 131 68 131 68 131 83 c 2,9,-1
 131 593 l 1,10,-1
 45 628 l 1,11,-1
 51 650 l 1,12,-1
 296 650 l 1,13,-1
 302 628 l 1,14,-1
 247 605 l 2,15,16
 229 598 229 598 222.5 590 c 128,-1,17
 216 582 216 582 216 567 c 2,0,-1
33 747 m 1,18,-1
 153 858 l 1,19,-1
 193 858 l 1,20,-1
 313 747 l 1,21,-1
 294 728 l 1,22,-1
 173 787 l 1,23,-1
 52 728 l 1,24,-1
 33 747 l 1,18,-1
EndSplineSet
EndChar

StartChar: Idieresis
Encoding: 207 207 142
Width: 347
GlyphClass: 2
Flags: W
LayerCount: 2
Fore
SplineSet
216 567 m 2,0,-1
 216 57 l 1,1,-1
 302 22 l 1,2,-1
 296 0 l 1,3,-1
 51 0 l 1,4,-1
 45 22 l 1,5,-1
 100 45 l 2,6,7
 118 52 118 52 124.5 60 c 128,-1,8
 131 68 131 68 131 83 c 2,9,-1
 131 593 l 1,10,-1
 45 628 l 1,11,-1
 51 650 l 1,12,-1
 296 650 l 1,13,-1
 302 628 l 1,14,-1
 247 605 l 2,15,16
 229 598 229 598 222.5 590 c 128,-1,17
 216 582 216 582 216 567 c 2,0,-1
34.5 747.5 m 128,-1,19
 19 763 19 763 19 786.5 c 128,-1,20
 19 810 19 810 34.5 826 c 128,-1,21
 50 842 50 842 73.5 842 c 128,-1,22
 97 842 97 842 113 826 c 128,-1,23
 129 810 129 810 129 786.5 c 128,-1,24
 129 763 129 763 113 747.5 c 128,-1,25
 97 732 97 732 73.5 732 c 128,-1,18
 50 732 50 732 34.5 747.5 c 128,-1,19
232.5 747.5 m 128,-1,27
 217 763 217 763 217 786.5 c 128,-1,28
 217 810 217 810 232.5 826 c 128,-1,29
 248 842 248 842 271.5 842 c 128,-1,30
 295 842 295 842 311 826 c 128,-1,31
 327 810 327 810 327 786.5 c 128,-1,32
 327 763 327 763 311 747.5 c 128,-1,33
 295 732 295 732 271.5 732 c 128,-1,26
 248 732 248 732 232.5 747.5 c 128,-1,27
EndSplineSet
EndChar

StartChar: Eth
Encoding: 208 208 143
Width: 704
GlyphClass: 2
Flags: W
LayerCount: 2
Fore
SplineSet
131 350 m 1,0,-1
 131 593 l 1,1,-1
 45 628 l 1,2,-1
 51 650 l 1,3,4
 277 658 277 658 335 658 c 0,5,6
 669 658 669 658 669 316 c 0,7,8
 669 138 669 138 574 65.5 c 128,-1,9
 479 -7 479 -7 273 -7 c 0,10,11
 226 -7 226 -7 51 0 c 1,12,-1
 45 22 l 1,13,-1
 100 45 l 2,14,15
 118 52 118 52 124.5 60 c 128,-1,16
 131 68 131 68 131 83 c 2,17,-1
 131 298 l 1,18,19
 103 299 103 299 56 299 c 1,20,-1
 45 311 l 1,21,-1
 57 350 l 1,22,-1
 131 350 l 1,0,-1
350 603 m 2,23,-1
 243 603 l 2,24,25
 216 603 216 603 216 578 c 2,26,-1
 216 351 l 1,27,-1
 383 358 l 1,28,-1
 394 346 l 1,29,-1
 383 294 l 1,30,31
 302 296 302 296 216 297 c 1,32,-1
 216 53 l 1,33,34
 255 49 255 49 316 49 c 0,35,36
 448 49 448 49 514 92 c 1,37,38
 576 168 576 168 576 306.5 c 128,-1,39
 576 445 576 445 518 524 c 128,-1,40
 460 603 460 603 350 603 c 2,23,-1
EndSplineSet
EndChar

StartChar: Ntilde
Encoding: 209 209 144
Width: 750
GlyphClass: 2
Flags: W
LayerCount: 2
Fore
SplineSet
639 567 m 2,0,-1
 639 0 l 1,1,-1
 567 -8 l 1,2,-1
 197 518 l 1,3,-1
 197 57 l 1,4,-1
 283 22 l 1,5,-1
 277 0 l 1,6,-1
 51 0 l 1,7,-1
 45 22 l 1,8,-1
 100 45 l 2,9,10
 118 52 118 52 124.5 60 c 128,-1,11
 131 68 131 68 131 83 c 2,12,-1
 131 593 l 1,13,-1
 45 628 l 1,14,-1
 51 650 l 1,15,-1
 218 650 l 1,16,-1
 572 146 l 1,17,-1
 572 144 l 1,18,-1
 573 146 l 1,19,-1
 573 593 l 1,20,-1
 487 628 l 1,21,-1
 493 650 l 1,22,-1
 719 650 l 1,23,-1
 725 628 l 1,24,-1
 670 605 l 2,25,26
 652 598 652 598 645.5 590 c 128,-1,27
 639 582 639 582 639 567 c 2,0,-1
472 801 m 2,28,29
 472 801 472 801 473 801 c 2,30,-1
 528 848 l 1,31,-1
 545 837 l 1,32,-1
 493 738 l 1,33,-1
 473 733 l 1,34,35
 447 733 447 733 381 759 c 128,-1,36
 315 785 315 785 298 785 c 2,37,38
 298 785 298 785 297 785 c 2,39,-1
 242 738 l 1,40,-1
 225 749 l 1,41,-1
 277 848 l 1,42,-1
 297 853 l 1,43,44
 323 853 323 853 389 827 c 128,-1,45
 455 801 455 801 472 801 c 2,28,29
EndSplineSet
EndChar

StartChar: Ograve
Encoding: 210 210 145
Width: 683
GlyphClass: 2
Flags: W
LayerCount: 2
Fore
SplineSet
190 557 m 1,0,1
 128 472 128 472 128 338 c 128,-1,2
 128 204 128 204 184.5 129 c 128,-1,3
 241 54 241 54 348 54 c 0,4,5
 437 54 437 54 493 91 c 1,6,7
 555 167 555 167 555 305.5 c 128,-1,8
 555 444 555 444 498.5 519 c 128,-1,9
 442 594 442 594 336 594 c 0,10,11
 248 594 248 594 190 557 c 1,0,1
35 320 m 0,12,13
 35 404 35 404 61 470 c 128,-1,14
 87 536 87 536 132 576 c 0,15,16
 223 658 223 658 352.5 658 c 128,-1,17
 482 658 482 658 565 570 c 128,-1,18
 648 482 648 482 648 328 c 0,19,20
 648 244 648 244 622 178.5 c 128,-1,21
 596 113 596 113 552 73 c 0,22,23
 461 -8 461 -8 331 -8 c 128,-1,24
 201 -8 201 -8 118 79 c 128,-1,25
 35 166 35 166 35 320 c 0,12,13
425 722 m 1,26,-1
 214 799 l 1,27,-1
 257 854 l 1,28,-1
 277 858 l 1,29,-1
 438 742 l 1,30,-1
 425 722 l 1,26,-1
EndSplineSet
EndChar

StartChar: Oacute
Encoding: 211 211 146
Width: 683
GlyphClass: 2
Flags: W
LayerCount: 2
Fore
SplineSet
190 557 m 1,0,1
 128 472 128 472 128 338 c 128,-1,2
 128 204 128 204 184.5 129 c 128,-1,3
 241 54 241 54 348 54 c 0,4,5
 437 54 437 54 493 91 c 1,6,7
 555 167 555 167 555 305.5 c 128,-1,8
 555 444 555 444 498.5 519 c 128,-1,9
 442 594 442 594 336 594 c 0,10,11
 248 594 248 594 190 557 c 1,0,1
35 320 m 0,12,13
 35 404 35 404 61 470 c 128,-1,14
 87 536 87 536 132 576 c 0,15,16
 223 658 223 658 352.5 658 c 128,-1,17
 482 658 482 658 565 570 c 128,-1,18
 648 482 648 482 648 328 c 0,19,20
 648 244 648 244 622 178.5 c 128,-1,21
 596 113 596 113 552 73 c 0,22,23
 461 -8 461 -8 331 -8 c 128,-1,24
 201 -8 201 -8 118 79 c 128,-1,25
 35 166 35 166 35 320 c 0,12,13
235 742 m 1,26,-1
 407 865 l 1,27,-1
 448 813 l 1,28,-1
 444 793 l 1,29,-1
 248 722 l 1,30,-1
 235 742 l 1,26,-1
EndSplineSet
EndChar

StartChar: Ocircumflex
Encoding: 212 212 147
Width: 683
GlyphClass: 2
Flags: W
LayerCount: 2
Fore
SplineSet
190 557 m 1,0,1
 128 472 128 472 128 338 c 128,-1,2
 128 204 128 204 184.5 129 c 128,-1,3
 241 54 241 54 348 54 c 0,4,5
 437 54 437 54 493 91 c 1,6,7
 555 167 555 167 555 305.5 c 128,-1,8
 555 444 555 444 498.5 519 c 128,-1,9
 442 594 442 594 336 594 c 0,10,11
 248 594 248 594 190 557 c 1,0,1
35 320 m 0,12,13
 35 404 35 404 61 470 c 128,-1,14
 87 536 87 536 132 576 c 0,15,16
 223 658 223 658 352.5 658 c 128,-1,17
 482 658 482 658 565 570 c 128,-1,18
 648 482 648 482 648 328 c 0,19,20
 648 244 648 244 622 178.5 c 128,-1,21
 596 113 596 113 552 73 c 0,22,23
 461 -8 461 -8 331 -8 c 128,-1,24
 201 -8 201 -8 118 79 c 128,-1,25
 35 166 35 166 35 320 c 0,12,13
201 747 m 1,26,-1
 321 858 l 1,27,-1
 361 858 l 1,28,-1
 481 747 l 1,29,-1
 462 728 l 1,30,-1
 341 787 l 1,31,-1
 220 728 l 1,32,-1
 201 747 l 1,26,-1
EndSplineSet
EndChar

StartChar: Otilde
Encoding: 213 213 148
Width: 683
GlyphClass: 2
Flags: W
LayerCount: 2
Fore
SplineSet
190 557 m 1,0,1
 128 472 128 472 128 338 c 128,-1,2
 128 204 128 204 184.5 129 c 128,-1,3
 241 54 241 54 348 54 c 0,4,5
 437 54 437 54 493 91 c 1,6,7
 555 167 555 167 555 305.5 c 128,-1,8
 555 444 555 444 498.5 519 c 128,-1,9
 442 594 442 594 336 594 c 0,10,11
 248 594 248 594 190 557 c 1,0,1
35 320 m 0,12,13
 35 404 35 404 61 470 c 128,-1,14
 87 536 87 536 132 576 c 0,15,16
 223 658 223 658 352.5 658 c 128,-1,17
 482 658 482 658 565 570 c 128,-1,18
 648 482 648 482 648 328 c 0,19,20
 648 244 648 244 622 178.5 c 128,-1,21
 596 113 596 113 552 73 c 0,22,23
 461 -8 461 -8 331 -8 c 128,-1,24
 201 -8 201 -8 118 79 c 128,-1,25
 35 166 35 166 35 320 c 0,12,13
428 801 m 2,26,27
 428 801 428 801 429 801 c 2,28,-1
 484 848 l 1,29,-1
 501 837 l 1,30,-1
 449 738 l 1,31,-1
 429 733 l 1,32,33
 403 733 403 733 337 759 c 128,-1,34
 271 785 271 785 254 785 c 2,35,36
 254 785 254 785 253 785 c 2,37,-1
 198 738 l 1,38,-1
 181 749 l 1,39,-1
 233 848 l 1,40,-1
 253 853 l 1,41,42
 279 853 279 853 345 827 c 128,-1,43
 411 801 411 801 428 801 c 2,26,27
EndSplineSet
EndChar

StartChar: Odieresis
Encoding: 214 214 149
Width: 683
GlyphClass: 2
Flags: W
LayerCount: 2
Fore
SplineSet
190 557 m 1,0,1
 128 472 128 472 128 338 c 128,-1,2
 128 204 128 204 184.5 129 c 128,-1,3
 241 54 241 54 348 54 c 0,4,5
 437 54 437 54 493 91 c 1,6,7
 555 167 555 167 555 305.5 c 128,-1,8
 555 444 555 444 498.5 519 c 128,-1,9
 442 594 442 594 336 594 c 0,10,11
 248 594 248 594 190 557 c 1,0,1
35 320 m 0,12,13
 35 404 35 404 61 470 c 128,-1,14
 87 536 87 536 132 576 c 0,15,16
 223 658 223 658 352.5 658 c 128,-1,17
 482 658 482 658 565 570 c 128,-1,18
 648 482 648 482 648 328 c 0,19,20
 648 244 648 244 622 178.5 c 128,-1,21
 596 113 596 113 552 73 c 0,22,23
 461 -8 461 -8 331 -8 c 128,-1,24
 201 -8 201 -8 118 79 c 128,-1,25
 35 166 35 166 35 320 c 0,12,13
202.5 747.5 m 128,-1,27
 187 763 187 763 187 786.5 c 128,-1,28
 187 810 187 810 202.5 826 c 128,-1,29
 218 842 218 842 241.5 842 c 128,-1,30
 265 842 265 842 281 826 c 128,-1,31
 297 810 297 810 297 786.5 c 128,-1,32
 297 763 297 763 281 747.5 c 128,-1,33
 265 732 265 732 241.5 732 c 128,-1,26
 218 732 218 732 202.5 747.5 c 128,-1,27
400.5 747.5 m 128,-1,35
 385 763 385 763 385 786.5 c 128,-1,36
 385 810 385 810 400.5 826 c 128,-1,37
 416 842 416 842 439.5 842 c 128,-1,38
 463 842 463 842 479 826 c 128,-1,39
 495 810 495 810 495 786.5 c 128,-1,40
 495 763 495 763 479 747.5 c 128,-1,41
 463 732 463 732 439.5 732 c 128,-1,34
 416 732 416 732 400.5 747.5 c 128,-1,35
EndSplineSet
EndChar

StartChar: multiply
Encoding: 215 215 150
Width: 600
GlyphClass: 2
Flags: W
LayerCount: 2
Fore
SplineSet
116 487 m 1,0,-1
 152 517 l 1,1,-1
 300 368 l 1,2,-1
 446 518 l 1,3,-1
 483 488 l 1,4,-1
 484 472 l 1,5,-1
 342 325 l 1,6,-1
 485 181 l 1,7,-1
 484 165 l 1,8,-1
 446 133 l 1,9,-1
 300 282 l 1,10,-1
 155 133 l 1,11,-1
 117 164 l 1,12,-1
 116 180 l 1,13,-1
 258 325 l 1,14,-1
 115 471 l 1,15,-1
 116 487 l 1,0,-1
EndSplineSet
EndChar

StartChar: Oslash
Encoding: 216 216 151
Width: 703
GlyphClass: 2
Flags: W
LayerCount: 2
Fore
SplineSet
45 320 m 0,0,1
 45 404 45 404 71 470 c 128,-1,2
 97 536 97 536 142 576 c 0,3,4
 233 658 233 658 359 658 c 0,5,6
 428 658 428 658 490 631 c 1,7,-1
 542 723 l 1,8,-1
 601 733 l 1,9,-1
 612 721 l 1,10,11
 605 709 605 709 541 601 c 1,12,13
 658 512 658 512 658 328 c 0,14,15
 658 244 658 244 632 178.5 c 128,-1,16
 606 113 606 113 562 73 c 0,17,18
 471 -8 471 -8 342 -8 c 0,19,20
 266 -8 266 -8 207 20 c 1,21,-1
 162 -61 l 1,22,-1
 103 -71 l 1,23,-1
 92 -59 l 1,24,-1
 157 52 l 1,25,26
 45 141 45 141 45 320 c 0,0,1
243 84 m 1,27,28
 290 54 290 54 368.5 54 c 128,-1,29
 447 54 447 54 503 91 c 1,30,31
 565 167 565 167 565 311.5 c 128,-1,32
 565 456 565 456 499 530 c 1,33,34
 347 270 347 270 243 84 c 1,27,28
200 557 m 1,35,36
 138 472 138 472 138 333.5 c 128,-1,37
 138 195 138 195 199 122 c 1,38,39
 318 324 318 324 454 567 c 1,40,41
 406 594 406 594 332 594 c 128,-1,42
 258 594 258 594 200 557 c 1,35,36
EndSplineSet
EndChar

StartChar: Ugrave
Encoding: 217 217 152
Width: 692
GlyphClass: 2
Flags: W
LayerCount: 2
Fore
SplineSet
596 567 m 2,0,-1
 596 255 l 2,1,2
 596 114 596 114 538 53 c 128,-1,3
 480 -8 480 -8 357 -8 c 0,4,5
 96 -8 96 -8 96 252 c 2,6,-1
 96 597 l 1,7,-1
 20 628 l 1,8,-1
 26 650 l 1,9,-1
 261 650 l 1,10,-1
 262 628 l 1,11,-1
 212 605 l 1,12,13
 194 598 194 598 187.5 590 c 128,-1,14
 181 582 181 582 181 567 c 2,15,-1
 181 257 l 2,16,17
 181 160 181 160 227.5 107 c 128,-1,18
 274 54 274 54 353 54 c 128,-1,19
 432 54 432 54 480 78 c 1,20,21
 530 131 530 131 530 252 c 2,22,-1
 530 593 l 1,23,-1
 444 628 l 1,24,-1
 450 650 l 1,25,-1
 666 650 l 1,26,-1
 672 628 l 1,27,-1
 627 609 l 1,28,29
 596 597 596 597 596 567 c 2,0,-1
405 722 m 1,30,-1
 194 799 l 1,31,-1
 237 854 l 1,32,-1
 257 858 l 1,33,-1
 418 742 l 1,34,-1
 405 722 l 1,30,-1
EndSplineSet
EndChar

StartChar: Uacute
Encoding: 218 218 153
Width: 692
GlyphClass: 2
Flags: W
LayerCount: 2
Fore
SplineSet
596 567 m 2,0,-1
 596 255 l 2,1,2
 596 114 596 114 538 53 c 128,-1,3
 480 -8 480 -8 357 -8 c 0,4,5
 96 -8 96 -8 96 252 c 2,6,-1
 96 597 l 1,7,-1
 20 628 l 1,8,-1
 26 650 l 1,9,-1
 261 650 l 1,10,-1
 262 628 l 1,11,-1
 212 605 l 1,12,13
 194 598 194 598 187.5 590 c 128,-1,14
 181 582 181 582 181 567 c 2,15,-1
 181 257 l 2,16,17
 181 160 181 160 227.5 107 c 128,-1,18
 274 54 274 54 353 54 c 128,-1,19
 432 54 432 54 480 78 c 1,20,21
 530 131 530 131 530 252 c 2,22,-1
 530 593 l 1,23,-1
 444 628 l 1,24,-1
 450 650 l 1,25,-1
 666 650 l 1,26,-1
 672 628 l 1,27,-1
 627 609 l 1,28,29
 596 597 596 597 596 567 c 2,0,-1
270 742 m 1,30,-1
 442 865 l 1,31,-1
 483 813 l 1,32,-1
 479 793 l 1,33,-1
 283 722 l 1,34,-1
 270 742 l 1,30,-1
EndSplineSet
EndChar

StartChar: Ucircumflex
Encoding: 219 219 154
Width: 692
GlyphClass: 2
Flags: W
LayerCount: 2
Fore
SplineSet
596 567 m 2,0,-1
 596 255 l 2,1,2
 596 114 596 114 538 53 c 128,-1,3
 480 -8 480 -8 357 -8 c 0,4,5
 96 -8 96 -8 96 252 c 2,6,-1
 96 597 l 1,7,-1
 20 628 l 1,8,-1
 26 650 l 1,9,-1
 261 650 l 1,10,-1
 262 628 l 1,11,-1
 212 605 l 1,12,13
 194 598 194 598 187.5 590 c 128,-1,14
 181 582 181 582 181 567 c 2,15,-1
 181 257 l 2,16,17
 181 160 181 160 227.5 107 c 128,-1,18
 274 54 274 54 353 54 c 128,-1,19
 432 54 432 54 480 78 c 1,20,21
 530 131 530 131 530 252 c 2,22,-1
 530 593 l 1,23,-1
 444 628 l 1,24,-1
 450 650 l 1,25,-1
 666 650 l 1,26,-1
 672 628 l 1,27,-1
 627 609 l 1,28,29
 596 597 596 597 596 567 c 2,0,-1
206 747 m 1,30,-1
 326 858 l 1,31,-1
 366 858 l 1,32,-1
 486 747 l 1,33,-1
 467 728 l 1,34,-1
 346 787 l 1,35,-1
 225 728 l 1,36,-1
 206 747 l 1,30,-1
EndSplineSet
EndChar

StartChar: Udieresis
Encoding: 220 220 155
Width: 692
GlyphClass: 2
Flags: W
LayerCount: 2
Fore
SplineSet
596 567 m 2,0,-1
 596 255 l 2,1,2
 596 114 596 114 538 53 c 128,-1,3
 480 -8 480 -8 357 -8 c 0,4,5
 96 -8 96 -8 96 252 c 2,6,-1
 96 597 l 1,7,-1
 20 628 l 1,8,-1
 26 650 l 1,9,-1
 261 650 l 1,10,-1
 262 628 l 1,11,-1
 212 605 l 1,12,13
 194 598 194 598 187.5 590 c 128,-1,14
 181 582 181 582 181 567 c 2,15,-1
 181 257 l 2,16,17
 181 160 181 160 227.5 107 c 128,-1,18
 274 54 274 54 353 54 c 128,-1,19
 432 54 432 54 480 78 c 1,20,21
 530 131 530 131 530 252 c 2,22,-1
 530 593 l 1,23,-1
 444 628 l 1,24,-1
 450 650 l 1,25,-1
 666 650 l 1,26,-1
 672 628 l 1,27,-1
 627 609 l 1,28,29
 596 597 596 597 596 567 c 2,0,-1
197.5 747.5 m 128,-1,31
 182 763 182 763 182 786.5 c 128,-1,32
 182 810 182 810 197.5 826 c 128,-1,33
 213 842 213 842 236.5 842 c 128,-1,34
 260 842 260 842 276 826 c 128,-1,35
 292 810 292 810 292 786.5 c 128,-1,36
 292 763 292 763 276 747.5 c 128,-1,37
 260 732 260 732 236.5 732 c 128,-1,30
 213 732 213 732 197.5 747.5 c 128,-1,31
415.5 747.5 m 128,-1,39
 400 763 400 763 400 786.5 c 128,-1,40
 400 810 400 810 415.5 826 c 128,-1,41
 431 842 431 842 454.5 842 c 128,-1,42
 478 842 478 842 494 826 c 128,-1,43
 510 810 510 810 510 786.5 c 128,-1,44
 510 763 510 763 494 747.5 c 128,-1,45
 478 732 478 732 454.5 732 c 128,-1,38
 431 732 431 732 415.5 747.5 c 128,-1,39
EndSplineSet
EndChar

StartChar: Yacute
Encoding: 221 221 156
Width: 653
GlyphClass: 2
Flags: W
LayerCount: 2
Fore
SplineSet
283 83 m 2,0,-1
 283 298 l 1,1,-1
 85 596 l 1,2,-1
 15 628 l 1,3,-1
 21 650 l 1,4,-1
 262 650 l 1,5,-1
 268 628 l 1,6,-1
 221 605 l 2,7,8
 199 595 199 595 199 581 c 0,9,10
 199 574 199 574 204 567 c 2,11,-1
 340 365 l 1,12,-1
 488 593 l 1,13,-1
 402 628 l 1,14,-1
 408 650 l 1,15,-1
 632 650 l 1,16,-1
 638 628 l 1,17,-1
 583 605 l 2,18,19
 564 597 564 597 555.5 587.5 c 128,-1,20
 547 578 547 578 540 567 c 2,21,-1
 368 301 l 1,22,-1
 368 57 l 1,23,-1
 454 22 l 1,24,-1
 448 0 l 1,25,-1
 203 0 l 1,26,-1
 197 22 l 1,27,-1
 252 45 l 2,28,29
 270 52 270 52 276.5 60 c 128,-1,30
 283 68 283 68 283 83 c 2,0,-1
240 742 m 1,31,-1
 412 865 l 1,32,-1
 453 813 l 1,33,-1
 449 793 l 1,34,-1
 253 722 l 1,35,-1
 240 742 l 1,31,-1
EndSplineSet
EndChar

StartChar: Thorn
Encoding: 222 222 157
Width: 536
GlyphClass: 2
Flags: W
LayerCount: 2
Fore
SplineSet
216 567 m 2,0,-1
 216 496 l 1,1,2
 233 497 233 497 262 497 c 0,3,4
 391 497 391 497 451 454 c 128,-1,5
 511 411 511 411 511 325 c 0,6,7
 511 155 511 155 282 155 c 0,8,9
 248 155 248 155 216 158 c 1,10,-1
 216 57 l 1,11,-1
 302 22 l 1,12,-1
 296 0 l 1,13,-1
 51 0 l 1,14,-1
 45 22 l 1,15,-1
 100 45 l 2,16,17
 118 52 118 52 124.5 60 c 128,-1,18
 131 68 131 68 131 83 c 2,19,-1
 131 593 l 1,20,-1
 45 628 l 1,21,-1
 51 650 l 1,22,-1
 296 650 l 1,23,-1
 302 628 l 1,24,-1
 247 605 l 2,25,26
 229 598 229 598 222.5 590 c 128,-1,27
 216 582 216 582 216 567 c 2,0,-1
290 446 m 2,28,-1
 243 446 l 2,29,30
 216 446 216 446 216 421 c 2,31,-1
 216 209 l 1,32,33
 242 205 242 205 297 205 c 128,-1,34
 352 205 352 205 392 225 c 1,35,36
 418 255 418 255 418 316 c 0,37,38
 418 446 418 446 290 446 c 2,28,-1
EndSplineSet
EndChar

StartChar: germandbls
Encoding: 223 223 158
Width: 559
GlyphClass: 2
Flags: W
LayerCount: 2
Fore
SplineSet
187 79 m 2,0,1
 187 41 187 41 197 9 c 1,2,-1
 189 0 l 1,3,-1
 41 0 l 1,4,-1
 35 22 l 1,5,-1
 80 41 l 2,6,7
 98 48 98 48 104.5 56 c 128,-1,8
 111 64 111 64 111 79 c 2,9,-1
 111 402 l 1,10,-1
 41 402 l 1,11,-1
 35 424 l 1,12,-1
 111 458 l 1,13,14
 112 554 112 554 168 621 c 128,-1,15
 224 688 224 688 317 688 c 0,16,17
 390 688 390 688 429.5 646.5 c 128,-1,18
 469 605 469 605 469 548 c 0,19,20
 469 510 469 510 449.5 482 c 128,-1,21
 430 454 430 454 406.5 440 c 128,-1,22
 383 426 383 426 363.5 405 c 128,-1,23
 344 384 344 384 344 355 c 128,-1,24
 344 326 344 326 373 305 c 2,25,-1
 439 257 l 2,26,27
 492 218 492 218 513 189.5 c 128,-1,28
 534 161 534 161 534 120 c 0,29,30
 534 61 534 61 496 26.5 c 128,-1,31
 458 -8 458 -8 400 -8 c 128,-1,32
 342 -8 342 -8 303 12 c 128,-1,33
 264 32 264 32 252 49 c 1,34,-1
 293 136 l 1,35,-1
 313 131 l 1,36,-1
 317 60 l 1,37,38
 346 44 346 44 387 44 c 0,39,40
 460 44 460 44 460 101 c 0,41,42
 460 128 460 128 444.5 148.5 c 128,-1,43
 429 169 429 169 394 195 c 2,44,-1
 338 235 l 2,45,46
 276 279 276 279 276 345 c 0,47,48
 276 376 276 376 291 402.5 c 128,-1,49
 306 429 306 429 323.5 443 c 128,-1,50
 341 457 341 457 366.5 475 c 128,-1,51
 392 493 392 493 401 502 c 1,52,53
 401 509 401 509 401 516 c 0,54,55
 401 567 401 567 373 597.5 c 128,-1,56
 345 628 345 628 290 628 c 128,-1,57
 235 628 235 628 206 602 c 1,58,59
 187 572 187 572 187 450 c 2,60,-1
 187 79 l 2,0,1
EndSplineSet
EndChar

StartChar: agrave
Encoding: 224 224 159
Width: 458
GlyphClass: 2
Flags: W
LayerCount: 2
Fore
SplineSet
149 74 m 128,-1,1
 172 57 172 57 202.5 57 c 128,-1,2
 233 57 233 57 284 74 c 1,3,-1
 286 190 l 1,4,5
 158 183 158 183 127 146 c 1,6,7
 126 141 126 141 126 133 c 0,8,0
 126 91 126 91 149 74 c 128,-1,1
285 30 m 1,9,10
 220 -8 220 -8 166 -8 c 128,-1,11
 112 -8 112 -8 80.5 26.5 c 128,-1,12
 49 61 49 61 49 114.5 c 128,-1,13
 49 168 49 168 101.5 197 c 128,-1,14
 154 226 154 226 286 234 c 1,15,-1
 287 299 l 2,16,17
 288 344 288 344 265.5 371.5 c 128,-1,18
 243 399 243 399 204 399 c 128,-1,19
 165 399 165 399 136 390 c 1,20,-1
 128 314 l 1,21,-1
 104 307 l 1,22,-1
 49 385 l 1,23,24
 71 410 71 410 115 434 c 128,-1,25
 159 458 159 458 220 458 c 0,26,27
 369 458 369 458 369 277 c 1,28,-1
 364 54 l 1,29,-1
 433 30 l 1,30,-1
 427 8 l 1,31,-1
 342 -8 l 1,32,-1
 322 0 l 1,33,-1
 290 28 l 1,34,-1
 285 30 l 1,9,10
308 552 m 1,35,-1
 97 629 l 1,36,-1
 140 684 l 1,37,-1
 160 688 l 1,38,-1
 321 572 l 1,39,-1
 308 552 l 1,35,-1
EndSplineSet
EndChar

StartChar: aacute
Encoding: 225 225 160
Width: 458
GlyphClass: 2
Flags: W
LayerCount: 2
Fore
SplineSet
149 74 m 128,-1,1
 172 57 172 57 202.5 57 c 128,-1,2
 233 57 233 57 284 74 c 1,3,-1
 286 190 l 1,4,5
 158 183 158 183 127 146 c 1,6,7
 126 141 126 141 126 133 c 0,8,0
 126 91 126 91 149 74 c 128,-1,1
285 30 m 1,9,10
 220 -8 220 -8 166 -8 c 128,-1,11
 112 -8 112 -8 80.5 26.5 c 128,-1,12
 49 61 49 61 49 114.5 c 128,-1,13
 49 168 49 168 101.5 197 c 128,-1,14
 154 226 154 226 286 234 c 1,15,-1
 287 299 l 2,16,17
 288 344 288 344 265.5 371.5 c 128,-1,18
 243 399 243 399 204 399 c 128,-1,19
 165 399 165 399 136 390 c 1,20,-1
 128 314 l 1,21,-1
 104 307 l 1,22,-1
 49 385 l 1,23,24
 71 410 71 410 115 434 c 128,-1,25
 159 458 159 458 220 458 c 0,26,27
 369 458 369 458 369 277 c 1,28,-1
 364 54 l 1,29,-1
 433 30 l 1,30,-1
 427 8 l 1,31,-1
 342 -8 l 1,32,-1
 322 0 l 1,33,-1
 290 28 l 1,34,-1
 285 30 l 1,9,10
108 572 m 1,35,-1
 280 695 l 1,36,-1
 321 643 l 1,37,-1
 317 623 l 1,38,-1
 121 552 l 1,39,-1
 108 572 l 1,35,-1
EndSplineSet
EndChar

StartChar: acircumflex
Encoding: 226 226 161
Width: 458
GlyphClass: 2
Flags: W
LayerCount: 2
Fore
SplineSet
149 74 m 128,-1,1
 172 57 172 57 202.5 57 c 128,-1,2
 233 57 233 57 284 74 c 1,3,-1
 286 190 l 1,4,5
 158 183 158 183 127 146 c 1,6,7
 126 141 126 141 126 133 c 0,8,0
 126 91 126 91 149 74 c 128,-1,1
285 30 m 1,9,10
 220 -8 220 -8 166 -8 c 128,-1,11
 112 -8 112 -8 80.5 26.5 c 128,-1,12
 49 61 49 61 49 114.5 c 128,-1,13
 49 168 49 168 101.5 197 c 128,-1,14
 154 226 154 226 286 234 c 1,15,-1
 287 299 l 2,16,17
 288 344 288 344 265.5 371.5 c 128,-1,18
 243 399 243 399 204 399 c 128,-1,19
 165 399 165 399 136 390 c 1,20,-1
 128 314 l 1,21,-1
 104 307 l 1,22,-1
 49 385 l 1,23,24
 71 410 71 410 115 434 c 128,-1,25
 159 458 159 458 220 458 c 0,26,27
 369 458 369 458 369 277 c 1,28,-1
 364 54 l 1,29,-1
 433 30 l 1,30,-1
 427 8 l 1,31,-1
 342 -8 l 1,32,-1
 322 0 l 1,33,-1
 290 28 l 1,34,-1
 285 30 l 1,9,10
74 577 m 1,35,-1
 194 688 l 1,36,-1
 234 688 l 1,37,-1
 354 577 l 1,38,-1
 335 558 l 1,39,-1
 214 617 l 1,40,-1
 93 558 l 1,41,-1
 74 577 l 1,35,-1
EndSplineSet
EndChar

StartChar: atilde
Encoding: 227 227 162
Width: 458
GlyphClass: 2
Flags: W
LayerCount: 2
Fore
SplineSet
149 74 m 128,-1,1
 172 57 172 57 202.5 57 c 128,-1,2
 233 57 233 57 284 74 c 1,3,-1
 286 190 l 1,4,5
 158 183 158 183 127 146 c 1,6,7
 126 141 126 141 126 133 c 0,8,0
 126 91 126 91 149 74 c 128,-1,1
285 30 m 1,9,10
 220 -8 220 -8 166 -8 c 128,-1,11
 112 -8 112 -8 80.5 26.5 c 128,-1,12
 49 61 49 61 49 114.5 c 128,-1,13
 49 168 49 168 101.5 197 c 128,-1,14
 154 226 154 226 286 234 c 1,15,-1
 287 299 l 2,16,17
 288 344 288 344 265.5 371.5 c 128,-1,18
 243 399 243 399 204 399 c 128,-1,19
 165 399 165 399 136 390 c 1,20,-1
 128 314 l 1,21,-1
 104 307 l 1,22,-1
 49 385 l 1,23,24
 71 410 71 410 115 434 c 128,-1,25
 159 458 159 458 220 458 c 0,26,27
 369 458 369 458 369 277 c 1,28,-1
 364 54 l 1,29,-1
 433 30 l 1,30,-1
 427 8 l 1,31,-1
 342 -8 l 1,32,-1
 322 0 l 1,33,-1
 290 28 l 1,34,-1
 285 30 l 1,9,10
301 631 m 2,35,36
 301 631 301 631 302 631 c 2,37,-1
 357 678 l 1,38,-1
 374 667 l 1,39,-1
 322 568 l 1,40,-1
 302 563 l 1,41,42
 276 563 276 563 210 589 c 128,-1,43
 144 615 144 615 127 615 c 2,44,45
 127 615 127 615 126 615 c 2,46,-1
 71 568 l 1,47,-1
 54 579 l 1,48,-1
 106 678 l 1,49,-1
 126 683 l 1,50,51
 152 683 152 683 218 657 c 128,-1,52
 284 631 284 631 301 631 c 2,35,36
EndSplineSet
EndChar

StartChar: adieresis
Encoding: 228 228 163
Width: 458
GlyphClass: 2
Flags: W
LayerCount: 2
Fore
SplineSet
149 74 m 128,-1,1
 172 57 172 57 202.5 57 c 128,-1,2
 233 57 233 57 284 74 c 1,3,-1
 286 190 l 1,4,5
 158 183 158 183 127 146 c 1,6,7
 126 141 126 141 126 133 c 0,8,0
 126 91 126 91 149 74 c 128,-1,1
285 30 m 1,9,10
 220 -8 220 -8 166 -8 c 128,-1,11
 112 -8 112 -8 80.5 26.5 c 128,-1,12
 49 61 49 61 49 114.5 c 128,-1,13
 49 168 49 168 101.5 197 c 128,-1,14
 154 226 154 226 286 234 c 1,15,-1
 287 299 l 2,16,17
 288 344 288 344 265.5 371.5 c 128,-1,18
 243 399 243 399 204 399 c 128,-1,19
 165 399 165 399 136 390 c 1,20,-1
 128 314 l 1,21,-1
 104 307 l 1,22,-1
 49 385 l 1,23,24
 71 410 71 410 115 434 c 128,-1,25
 159 458 159 458 220 458 c 0,26,27
 369 458 369 458 369 277 c 1,28,-1
 364 54 l 1,29,-1
 433 30 l 1,30,-1
 427 8 l 1,31,-1
 342 -8 l 1,32,-1
 322 0 l 1,33,-1
 290 28 l 1,34,-1
 285 30 l 1,9,10
75.5 577.5 m 128,-1,36
 60 593 60 593 60 616.5 c 128,-1,37
 60 640 60 640 75.5 656 c 128,-1,38
 91 672 91 672 114.5 672 c 128,-1,39
 138 672 138 672 154 656 c 128,-1,40
 170 640 170 640 170 616.5 c 128,-1,41
 170 593 170 593 154 577.5 c 128,-1,42
 138 562 138 562 114.5 562 c 128,-1,35
 91 562 91 562 75.5 577.5 c 128,-1,36
273.5 577.5 m 128,-1,44
 258 593 258 593 258 616.5 c 128,-1,45
 258 640 258 640 273.5 656 c 128,-1,46
 289 672 289 672 312.5 672 c 128,-1,47
 336 672 336 672 352 656 c 128,-1,48
 368 640 368 640 368 616.5 c 128,-1,49
 368 593 368 593 352 577.5 c 128,-1,50
 336 562 336 562 312.5 562 c 128,-1,43
 289 562 289 562 273.5 577.5 c 128,-1,44
EndSplineSet
EndChar

StartChar: aring
Encoding: 229 229 164
Width: 458
GlyphClass: 2
Flags: W
LayerCount: 2
Fore
SplineSet
149 74 m 128,-1,1
 172 57 172 57 202.5 57 c 128,-1,2
 233 57 233 57 284 74 c 1,3,-1
 286 190 l 1,4,5
 158 183 158 183 127 146 c 1,6,7
 126 141 126 141 126 133 c 0,8,0
 126 91 126 91 149 74 c 128,-1,1
285 30 m 1,9,10
 220 -8 220 -8 166 -8 c 128,-1,11
 112 -8 112 -8 80.5 26.5 c 128,-1,12
 49 61 49 61 49 114.5 c 128,-1,13
 49 168 49 168 101.5 197 c 128,-1,14
 154 226 154 226 286 234 c 1,15,-1
 287 299 l 2,16,17
 288 344 288 344 265.5 371.5 c 128,-1,18
 243 399 243 399 204 399 c 128,-1,19
 165 399 165 399 136 390 c 1,20,-1
 128 314 l 1,21,-1
 104 307 l 1,22,-1
 49 385 l 1,23,24
 71 410 71 410 115 434 c 128,-1,25
 159 458 159 458 220 458 c 0,26,27
 369 458 369 458 369 277 c 1,28,-1
 364 54 l 1,29,-1
 433 30 l 1,30,-1
 427 8 l 1,31,-1
 342 -8 l 1,32,-1
 322 0 l 1,33,-1
 290 28 l 1,34,-1
 285 30 l 1,9,10
170 626 m 0,35,36
 170 573 170 573 213 573 c 0,37,38
 226 573 226 573 233 578 c 0,39,40
 248 589 248 589 248 620 c 0,41,42
 248 673 248 673 205 673 c 0,43,44
 192 673 192 673 185 668 c 0,45,46
 170 657 170 657 170 626 c 0,35,36
138.5 560 m 128,-1,48
 113 583 113 583 113 622.5 c 128,-1,49
 113 662 113 662 140.5 685.5 c 128,-1,50
 168 709 168 709 210.5 709 c 128,-1,51
 253 709 253 709 279 685.5 c 128,-1,52
 305 662 305 662 305 623 c 128,-1,53
 305 584 305 584 277 560.5 c 128,-1,54
 249 537 249 537 206.5 537 c 128,-1,47
 164 537 164 537 138.5 560 c 128,-1,48
EndSplineSet
EndChar

StartChar: ae
Encoding: 230 230 165
Width: 687
GlyphClass: 2
Flags: W
LayerCount: 2
Fore
SplineSet
349 393 m 1,0,1
 404 458 404 458 484 458 c 128,-1,2
 564 458 564 458 605.5 407 c 128,-1,3
 647 356 647 356 647 270 c 2,4,-1
 647 233 l 1,5,-1
 632 218 l 1,6,-1
 372 202 l 1,7,8
 374 128 374 128 411.5 91.5 c 128,-1,9
 449 55 449 55 506 55 c 128,-1,10
 563 55 563 55 624 82 c 1,11,-1
 638 56 l 1,12,13
 618 34 618 34 578 13 c 128,-1,14
 538 -8 538 -8 489 -8 c 0,15,16
 405 -8 405 -8 350 52 c 1,17,18
 263 -8 263 -8 175 -8 c 0,19,20
 111 -8 111 -8 78 26.5 c 128,-1,21
 45 61 45 61 45 115 c 128,-1,22
 45 169 45 169 99 199 c 128,-1,23
 153 229 153 229 290 241 c 1,24,-1
 291 299 l 2,25,26
 292 343 292 343 269 371 c 128,-1,27
 246 399 246 399 203.5 399 c 128,-1,28
 161 399 161 399 132 390 c 1,29,-1
 124 314 l 1,30,-1
 100 307 l 1,31,-1
 45 385 l 1,32,33
 67 410 67 410 112.5 434 c 128,-1,34
 158 458 158 458 220 458 c 0,35,36
 313 458 313 458 349 393 c 1,0,1
543 361.5 m 128,-1,38
 519 396 519 396 480 396 c 128,-1,39
 441 396 441 396 413 382 c 1,40,41
 402 369 402 369 396 360 c 128,-1,42
 390 351 390 351 382 321 c 128,-1,43
 374 291 374 291 373 248 c 1,44,-1
 567 264 l 1,45,37
 567 327 567 327 543 361.5 c 128,-1,38
123 134 m 0,46,47
 123 50 123 50 212 50 c 0,48,49
 253 50 253 50 288 72 c 1,50,-1
 290 195 l 1,51,52
 156 185 156 185 124 147 c 1,53,54
 123 142 123 142 123 134 c 0,46,47
EndSplineSet
EndChar

StartChar: ccedilla
Encoding: 231 231 166
Width: 446
GlyphClass: 2
Flags: W
LayerCount: 2
Fore
SplineSet
165 -187 m 1,0,1
 188 -196 188 -196 215.5 -196 c 128,-1,2
 243 -196 243 -196 264 -189 c 1,3,4
 273 -175 273 -175 273 -154 c 0,5,6
 273 -99 273 -99 211 -99 c 0,7,8
 206 -99 206 -99 200 -99 c 1,9,-1
 189 -86 l 1,10,-1
 212 -5 l 1,11,12
 134 6 134 6 87 66 c 128,-1,13
 40 126 40 126 40 230.5 c 128,-1,14
 40 335 40 335 103.5 396.5 c 128,-1,15
 167 458 167 458 258 458 c 0,16,17
 303 458 303 458 338 441 c 128,-1,18
 373 424 373 424 385 411 c 128,-1,19
 397 398 397 398 404 385 c 1,20,-1
 346 307 l 1,21,-1
 322 314 l 1,22,-1
 314 390 l 1,23,24
 292 396 292 396 244 396 c 128,-1,25
 196 396 196 396 162 379 c 1,26,27
 124 331 124 331 124 242 c 128,-1,28
 124 153 124 153 166 104.5 c 128,-1,29
 208 56 208 56 274 56 c 128,-1,30
 340 56 340 56 397 82 c 1,31,-1
 411 56 l 1,32,33
 399 44 399 44 382 31.5 c 128,-1,34
 365 19 365 19 327.5 5.5 c 128,-1,35
 290 -8 290 -8 249 -8 c 2,36,-1
 248 -8 l 1,37,-1
 245 -68 l 1,38,39
 282 -70 282 -70 307 -91 c 128,-1,40
 332 -112 332 -112 332 -148.5 c 128,-1,41
 332 -185 332 -185 299.5 -211.5 c 128,-1,42
 267 -238 267 -238 222.5 -238 c 128,-1,43
 178 -238 178 -238 162 -230 c 1,44,-1
 155 -220 l 1,45,-1
 165 -187 l 1,0,1
EndSplineSet
EndChar

StartChar: egrave
Encoding: 232 232 167
Width: 460
GlyphClass: 2
Flags: W
LayerCount: 2
Fore
SplineSet
103 396.5 m 128,-1,1
 166 458 166 458 250 458 c 128,-1,2
 334 458 334 458 377 408.5 c 128,-1,3
 420 359 420 359 420 273 c 2,4,-1
 420 240 l 1,5,-1
 405 225 l 1,6,-1
 125 225 l 1,7,8
 127 148 127 148 168 102 c 128,-1,9
 209 56 209 56 273.5 56 c 128,-1,10
 338 56 338 56 397 82 c 1,11,-1
 411 56 l 1,12,13
 399 44 399 44 382 31.5 c 128,-1,14
 365 19 365 19 327.5 5.5 c 128,-1,15
 290 -8 290 -8 249 -8 c 0,16,17
 156 -8 156 -8 98 53.5 c 128,-1,18
 40 115 40 115 40 225 c 128,-1,0
 40 335 40 335 103 396.5 c 128,-1,1
239 394 m 0,19,20
 192 394 192 394 162 379 c 1,21,22
 150 364 150 364 138.5 331 c 128,-1,23
 127 298 127 298 126 268 c 1,24,-1
 340 274 l 1,25,26
 340 394 340 394 239 394 c 0,19,20
339 552 m 1,27,-1
 128 629 l 1,28,-1
 171 684 l 1,29,-1
 191 688 l 1,30,-1
 352 572 l 1,31,-1
 339 552 l 1,27,-1
EndSplineSet
EndChar

StartChar: eacute
Encoding: 233 233 168
Width: 460
GlyphClass: 2
Flags: W
LayerCount: 2
Fore
SplineSet
103 396.5 m 128,-1,1
 166 458 166 458 250 458 c 128,-1,2
 334 458 334 458 377 408.5 c 128,-1,3
 420 359 420 359 420 273 c 2,4,-1
 420 240 l 1,5,-1
 405 225 l 1,6,-1
 125 225 l 1,7,8
 127 148 127 148 168 102 c 128,-1,9
 209 56 209 56 273.5 56 c 128,-1,10
 338 56 338 56 397 82 c 1,11,-1
 411 56 l 1,12,13
 399 44 399 44 382 31.5 c 128,-1,14
 365 19 365 19 327.5 5.5 c 128,-1,15
 290 -8 290 -8 249 -8 c 0,16,17
 156 -8 156 -8 98 53.5 c 128,-1,18
 40 115 40 115 40 225 c 128,-1,0
 40 335 40 335 103 396.5 c 128,-1,1
239 394 m 0,19,20
 192 394 192 394 162 379 c 1,21,22
 150 364 150 364 138.5 331 c 128,-1,23
 127 298 127 298 126 268 c 1,24,-1
 340 274 l 1,25,26
 340 394 340 394 239 394 c 0,19,20
134 572 m 1,27,-1
 306 695 l 1,28,-1
 347 643 l 1,29,-1
 343 623 l 1,30,-1
 147 552 l 1,31,-1
 134 572 l 1,27,-1
EndSplineSet
EndChar

StartChar: ecircumflex
Encoding: 234 234 169
Width: 460
GlyphClass: 2
Flags: W
LayerCount: 2
Fore
SplineSet
103 396.5 m 128,-1,1
 166 458 166 458 250 458 c 128,-1,2
 334 458 334 458 377 408.5 c 128,-1,3
 420 359 420 359 420 273 c 2,4,-1
 420 240 l 1,5,-1
 405 225 l 1,6,-1
 125 225 l 1,7,8
 127 148 127 148 168 102 c 128,-1,9
 209 56 209 56 273.5 56 c 128,-1,10
 338 56 338 56 397 82 c 1,11,-1
 411 56 l 1,12,13
 399 44 399 44 382 31.5 c 128,-1,14
 365 19 365 19 327.5 5.5 c 128,-1,15
 290 -8 290 -8 249 -8 c 0,16,17
 156 -8 156 -8 98 53.5 c 128,-1,18
 40 115 40 115 40 225 c 128,-1,0
 40 335 40 335 103 396.5 c 128,-1,1
239 394 m 0,19,20
 192 394 192 394 162 379 c 1,21,22
 150 364 150 364 138.5 331 c 128,-1,23
 127 298 127 298 126 268 c 1,24,-1
 340 274 l 1,25,26
 340 394 340 394 239 394 c 0,19,20
100 577 m 1,27,-1
 220 688 l 1,28,-1
 260 688 l 1,29,-1
 380 577 l 1,30,-1
 361 558 l 1,31,-1
 240 617 l 1,32,-1
 119 558 l 1,33,-1
 100 577 l 1,27,-1
EndSplineSet
EndChar

StartChar: edieresis
Encoding: 235 235 170
Width: 460
GlyphClass: 2
Flags: W
LayerCount: 2
Fore
SplineSet
103 396.5 m 128,-1,1
 166 458 166 458 250 458 c 128,-1,2
 334 458 334 458 377 408.5 c 128,-1,3
 420 359 420 359 420 273 c 2,4,-1
 420 240 l 1,5,-1
 405 225 l 1,6,-1
 125 225 l 1,7,8
 127 148 127 148 168 102 c 128,-1,9
 209 56 209 56 273.5 56 c 128,-1,10
 338 56 338 56 397 82 c 1,11,-1
 411 56 l 1,12,13
 399 44 399 44 382 31.5 c 128,-1,14
 365 19 365 19 327.5 5.5 c 128,-1,15
 290 -8 290 -8 249 -8 c 0,16,17
 156 -8 156 -8 98 53.5 c 128,-1,18
 40 115 40 115 40 225 c 128,-1,0
 40 335 40 335 103 396.5 c 128,-1,1
239 394 m 0,19,20
 192 394 192 394 162 379 c 1,21,22
 150 364 150 364 138.5 331 c 128,-1,23
 127 298 127 298 126 268 c 1,24,-1
 340 274 l 1,25,26
 340 394 340 394 239 394 c 0,19,20
101.5 577.5 m 128,-1,28
 86 593 86 593 86 616.5 c 128,-1,29
 86 640 86 640 101.5 656 c 128,-1,30
 117 672 117 672 140.5 672 c 128,-1,31
 164 672 164 672 180 656 c 128,-1,32
 196 640 196 640 196 616.5 c 128,-1,33
 196 593 196 593 180 577.5 c 128,-1,34
 164 562 164 562 140.5 562 c 128,-1,27
 117 562 117 562 101.5 577.5 c 128,-1,28
299.5 577.5 m 128,-1,36
 284 593 284 593 284 616.5 c 128,-1,37
 284 640 284 640 299.5 656 c 128,-1,38
 315 672 315 672 338.5 672 c 128,-1,39
 362 672 362 672 378 656 c 128,-1,40
 394 640 394 640 394 616.5 c 128,-1,41
 394 593 394 593 378 577.5 c 128,-1,42
 362 562 362 562 338.5 562 c 128,-1,35
 315 562 315 562 299.5 577.5 c 128,-1,36
EndSplineSet
EndChar

StartChar: igrave
Encoding: 236 236 171
Width: 296
GlyphClass: 2
Flags: W
LayerCount: 2
Fore
SplineSet
111 79 m 2,0,-1
 111 378 l 1,1,-1
 41 389 l 1,2,-1
 35 411 l 1,3,-1
 172 458 l 1,4,-1
 192 450 l 1,5,-1
 192 54 l 1,6,-1
 271 22 l 1,7,-1
 265 0 l 1,8,-1
 41 0 l 1,9,-1
 35 22 l 1,10,-1
 80 41 l 2,11,12
 98 48 98 48 104.5 56 c 128,-1,13
 111 64 111 64 111 79 c 2,0,-1
212 552 m 1,14,-1
 1 629 l 1,15,-1
 44 684 l 1,16,-1
 64 688 l 1,17,-1
 225 572 l 1,18,-1
 212 552 l 1,14,-1
EndSplineSet
EndChar

StartChar: iacute
Encoding: 237 237 172
Width: 296
GlyphClass: 2
Flags: W
LayerCount: 2
Fore
SplineSet
111 79 m 2,0,-1
 111 378 l 1,1,-1
 41 389 l 1,2,-1
 35 411 l 1,3,-1
 172 458 l 1,4,-1
 192 450 l 1,5,-1
 192 54 l 1,6,-1
 271 22 l 1,7,-1
 265 0 l 1,8,-1
 41 0 l 1,9,-1
 35 22 l 1,10,-1
 80 41 l 2,11,12
 98 48 98 48 104.5 56 c 128,-1,13
 111 64 111 64 111 79 c 2,0,-1
27 572 m 1,14,-1
 199 695 l 1,15,-1
 240 643 l 1,16,-1
 236 623 l 1,17,-1
 40 552 l 1,18,-1
 27 572 l 1,14,-1
EndSplineSet
EndChar

StartChar: icircumflex
Encoding: 238 238 173
Width: 296
GlyphClass: 2
Flags: W
LayerCount: 2
Fore
SplineSet
111 79 m 2,0,-1
 111 378 l 1,1,-1
 41 389 l 1,2,-1
 35 411 l 1,3,-1
 172 458 l 1,4,-1
 192 450 l 1,5,-1
 192 54 l 1,6,-1
 271 22 l 1,7,-1
 265 0 l 1,8,-1
 41 0 l 1,9,-1
 35 22 l 1,10,-1
 80 41 l 2,11,12
 98 48 98 48 104.5 56 c 128,-1,13
 111 64 111 64 111 79 c 2,0,-1
18 577 m 1,14,-1
 138 688 l 1,15,-1
 178 688 l 1,16,-1
 298 577 l 1,17,-1
 279 558 l 1,18,-1
 158 617 l 1,19,-1
 37 558 l 1,20,-1
 18 577 l 1,14,-1
EndSplineSet
EndChar

StartChar: idieresis
Encoding: 239 239 174
Width: 296
GlyphClass: 2
Flags: W
LayerCount: 2
Fore
SplineSet
111 79 m 2,0,-1
 111 378 l 1,1,-1
 41 389 l 1,2,-1
 35 411 l 1,3,-1
 172 458 l 1,4,-1
 192 450 l 1,5,-1
 192 54 l 1,6,-1
 271 22 l 1,7,-1
 265 0 l 1,8,-1
 41 0 l 1,9,-1
 35 22 l 1,10,-1
 80 41 l 2,11,12
 98 48 98 48 104.5 56 c 128,-1,13
 111 64 111 64 111 79 c 2,0,-1
14.5 577.5 m 128,-1,15
 -1 593 -1 593 -1 616.5 c 128,-1,16
 -1 640 -1 640 14.5 656 c 128,-1,17
 30 672 30 672 53.5 672 c 128,-1,18
 77 672 77 672 93 656 c 128,-1,19
 109 640 109 640 109 616.5 c 128,-1,20
 109 593 109 593 93 577.5 c 128,-1,21
 77 562 77 562 53.5 562 c 128,-1,14
 30 562 30 562 14.5 577.5 c 128,-1,15
202.5 577.5 m 128,-1,23
 187 593 187 593 187 616.5 c 128,-1,24
 187 640 187 640 202.5 656 c 128,-1,25
 218 672 218 672 241.5 672 c 128,-1,26
 265 672 265 672 281 656 c 128,-1,27
 297 640 297 640 297 616.5 c 128,-1,28
 297 593 297 593 281 577.5 c 128,-1,29
 265 562 265 562 241.5 562 c 128,-1,22
 218 562 218 562 202.5 577.5 c 128,-1,23
EndSplineSet
EndChar

StartChar: eth
Encoding: 240 240 175
Width: 516
GlyphClass: 2
Flags: W
LayerCount: 2
Fore
SplineSet
471 268 m 0,0,1
 471 124 471 124 409 58 c 128,-1,2
 347 -8 347 -8 250 -8 c 128,-1,3
 153 -8 153 -8 96.5 55.5 c 128,-1,4
 40 119 40 119 40 229.5 c 128,-1,5
 40 340 40 340 105.5 399 c 128,-1,6
 171 458 171 458 258 458 c 0,7,8
 312 458 312 458 355 431 c 1,9,10
 322 513 322 513 252 573 c 1,11,12
 245 563 245 563 235 550.5 c 128,-1,13
 225 538 225 538 219 530 c 2,14,-1
 210 518 l 1,15,-1
 194 516 l 1,16,-1
 163 546 l 1,17,-1
 206 608 l 1,18,19
 191 619 191 619 164 636.5 c 128,-1,20
 137 654 137 654 135 655 c 1,21,-1
 153 688 l 1,22,23
 198 671 198 671 236 651 c 1,24,-1
 275 704 l 1,25,-1
 292 706 l 1,26,-1
 330 672 l 1,27,28
 310 647 310 647 288 619 c 1,29,30
 371 565 371 565 421 472 c 128,-1,31
 471 379 471 379 471 268 c 0,0,1
385 224 m 0,32,33
 386 241 386 241 386 276.5 c 128,-1,34
 386 312 386 312 376 358 c 1,35,36
 320 396 320 396 258.5 396 c 128,-1,37
 197 396 197 396 162 372 c 1,38,39
 125 320 125 320 125 237.5 c 128,-1,40
 125 155 125 155 158.5 105.5 c 128,-1,41
 192 56 192 56 255 56 c 0,42,43
 303 56 303 56 339 71 c 1,44,45
 380 123 380 123 385 224 c 0,32,33
EndSplineSet
EndChar

StartChar: ntilde
Encoding: 241 241 176
Width: 575
GlyphClass: 2
Flags: W
LayerCount: 2
Fore
SplineSet
395 293 m 2,0,1
 395 344 395 344 371.5 366.5 c 128,-1,2
 348 389 348 389 296 389 c 128,-1,3
 244 389 244 389 192 376 c 1,4,-1
 192 54 l 1,5,-1
 271 22 l 1,6,-1
 265 0 l 1,7,-1
 41 0 l 1,8,-1
 35 22 l 1,9,-1
 80 41 l 2,10,11
 98 48 98 48 104.5 56 c 128,-1,12
 111 64 111 64 111 79 c 2,13,-1
 111 378 l 1,14,-1
 41 389 l 1,15,-1
 35 411 l 1,16,-1
 164 458 l 1,17,-1
 184 450 l 1,18,-1
 186 422 l 1,19,-1
 190 420 l 1,20,21
 259 458 259 458 332 458 c 0,22,23
 476 458 476 458 476 305 c 2,24,-1
 476 54 l 1,25,-1
 555 22 l 1,26,-1
 549 0 l 1,27,-1
 325 0 l 1,28,-1
 319 22 l 1,29,-1
 364 41 l 2,30,31
 382 48 382 48 388.5 56 c 128,-1,32
 395 64 395 64 395 79 c 2,33,-1
 395 293 l 2,0,1
374 631 m 2,34,35
 374 631 374 631 375 631 c 2,36,-1
 430 678 l 1,37,-1
 447 667 l 1,38,-1
 395 568 l 1,39,-1
 375 563 l 1,40,41
 349 563 349 563 283 589 c 128,-1,42
 217 615 217 615 200 615 c 2,43,44
 200 615 200 615 199 615 c 2,45,-1
 144 568 l 1,46,-1
 127 579 l 1,47,-1
 179 678 l 1,48,-1
 199 683 l 1,49,50
 225 683 225 683 291 657 c 128,-1,51
 357 631 357 631 374 631 c 2,34,35
EndSplineSet
EndChar

StartChar: ograve
Encoding: 242 242 177
Width: 510
GlyphClass: 2
Flags: W
LayerCount: 2
Fore
SplineSet
125 236 m 0,0,1
 125 56 125 56 262 56 c 0,2,3
 312 56 312 56 348 71 c 1,4,5
 385 119 385 119 385 214 c 0,6,7
 385 394 385 394 248 394 c 0,8,9
 198 394 198 394 162 379 c 1,10,11
 125 331 125 331 125 236 c 0,0,1
98 53 m 128,-1,13
 40 114 40 114 40 225.5 c 128,-1,14
 40 337 40 337 104 397.5 c 128,-1,15
 168 458 168 458 261 458 c 128,-1,16
 354 458 354 458 412 397 c 128,-1,17
 470 336 470 336 470 224.5 c 128,-1,18
 470 113 470 113 406 52.5 c 128,-1,19
 342 -8 342 -8 249 -8 c 128,-1,12
 156 -8 156 -8 98 53 c 128,-1,13
344 552 m 1,20,-1
 133 629 l 1,21,-1
 176 684 l 1,22,-1
 196 688 l 1,23,-1
 357 572 l 1,24,-1
 344 552 l 1,20,-1
EndSplineSet
EndChar

StartChar: oacute
Encoding: 243 243 178
Width: 510
GlyphClass: 2
Flags: W
LayerCount: 2
Fore
SplineSet
125 236 m 0,0,1
 125 56 125 56 262 56 c 0,2,3
 312 56 312 56 348 71 c 1,4,5
 385 119 385 119 385 214 c 0,6,7
 385 394 385 394 248 394 c 0,8,9
 198 394 198 394 162 379 c 1,10,11
 125 331 125 331 125 236 c 0,0,1
98 53 m 128,-1,13
 40 114 40 114 40 225.5 c 128,-1,14
 40 337 40 337 104 397.5 c 128,-1,15
 168 458 168 458 261 458 c 128,-1,16
 354 458 354 458 412 397 c 128,-1,17
 470 336 470 336 470 224.5 c 128,-1,18
 470 113 470 113 406 52.5 c 128,-1,19
 342 -8 342 -8 249 -8 c 128,-1,12
 156 -8 156 -8 98 53 c 128,-1,13
149 572 m 1,20,-1
 321 695 l 1,21,-1
 362 643 l 1,22,-1
 358 623 l 1,23,-1
 162 552 l 1,24,-1
 149 572 l 1,20,-1
EndSplineSet
EndChar

StartChar: ocircumflex
Encoding: 244 244 179
Width: 510
GlyphClass: 2
Flags: W
LayerCount: 2
Fore
SplineSet
125 236 m 0,0,1
 125 56 125 56 262 56 c 0,2,3
 312 56 312 56 348 71 c 1,4,5
 385 119 385 119 385 214 c 0,6,7
 385 394 385 394 248 394 c 0,8,9
 198 394 198 394 162 379 c 1,10,11
 125 331 125 331 125 236 c 0,0,1
98 53 m 128,-1,13
 40 114 40 114 40 225.5 c 128,-1,14
 40 337 40 337 104 397.5 c 128,-1,15
 168 458 168 458 261 458 c 128,-1,16
 354 458 354 458 412 397 c 128,-1,17
 470 336 470 336 470 224.5 c 128,-1,18
 470 113 470 113 406 52.5 c 128,-1,19
 342 -8 342 -8 249 -8 c 128,-1,12
 156 -8 156 -8 98 53 c 128,-1,13
110 577 m 1,20,-1
 230 688 l 1,21,-1
 270 688 l 1,22,-1
 390 577 l 1,23,-1
 371 558 l 1,24,-1
 250 617 l 1,25,-1
 129 558 l 1,26,-1
 110 577 l 1,20,-1
EndSplineSet
EndChar

StartChar: otilde
Encoding: 245 245 180
Width: 510
GlyphClass: 2
Flags: W
LayerCount: 2
Fore
SplineSet
125 236 m 0,0,1
 125 56 125 56 262 56 c 0,2,3
 312 56 312 56 348 71 c 1,4,5
 385 119 385 119 385 214 c 0,6,7
 385 394 385 394 248 394 c 0,8,9
 198 394 198 394 162 379 c 1,10,11
 125 331 125 331 125 236 c 0,0,1
98 53 m 128,-1,13
 40 114 40 114 40 225.5 c 128,-1,14
 40 337 40 337 104 397.5 c 128,-1,15
 168 458 168 458 261 458 c 128,-1,16
 354 458 354 458 412 397 c 128,-1,17
 470 336 470 336 470 224.5 c 128,-1,18
 470 113 470 113 406 52.5 c 128,-1,19
 342 -8 342 -8 249 -8 c 128,-1,12
 156 -8 156 -8 98 53 c 128,-1,13
337 631 m 2,20,21
 337 631 337 631 338 631 c 2,22,-1
 393 678 l 1,23,-1
 410 667 l 1,24,-1
 358 568 l 1,25,-1
 338 563 l 1,26,27
 312 563 312 563 246 589 c 128,-1,28
 180 615 180 615 163 615 c 2,29,30
 163 615 163 615 162 615 c 2,31,-1
 107 568 l 1,32,-1
 90 579 l 1,33,-1
 142 678 l 1,34,-1
 162 683 l 1,35,36
 188 683 188 683 254 657 c 128,-1,37
 320 631 320 631 337 631 c 2,20,21
EndSplineSet
EndChar

StartChar: odieresis
Encoding: 246 246 181
Width: 510
GlyphClass: 2
Flags: W
LayerCount: 2
Fore
SplineSet
125 236 m 0,0,1
 125 56 125 56 262 56 c 0,2,3
 312 56 312 56 348 71 c 1,4,5
 385 119 385 119 385 214 c 0,6,7
 385 394 385 394 248 394 c 0,8,9
 198 394 198 394 162 379 c 1,10,11
 125 331 125 331 125 236 c 0,0,1
98 53 m 128,-1,13
 40 114 40 114 40 225.5 c 128,-1,14
 40 337 40 337 104 397.5 c 128,-1,15
 168 458 168 458 261 458 c 128,-1,16
 354 458 354 458 412 397 c 128,-1,17
 470 336 470 336 470 224.5 c 128,-1,18
 470 113 470 113 406 52.5 c 128,-1,19
 342 -8 342 -8 249 -8 c 128,-1,12
 156 -8 156 -8 98 53 c 128,-1,13
111.5 577.5 m 128,-1,21
 96 593 96 593 96 616.5 c 128,-1,22
 96 640 96 640 111.5 656 c 128,-1,23
 127 672 127 672 150.5 672 c 128,-1,24
 174 672 174 672 190 656 c 128,-1,25
 206 640 206 640 206 616.5 c 128,-1,26
 206 593 206 593 190 577.5 c 128,-1,27
 174 562 174 562 150.5 562 c 128,-1,20
 127 562 127 562 111.5 577.5 c 128,-1,21
309.5 577.5 m 128,-1,29
 294 593 294 593 294 616.5 c 128,-1,30
 294 640 294 640 309.5 656 c 128,-1,31
 325 672 325 672 348.5 672 c 128,-1,32
 372 672 372 672 388 656 c 128,-1,33
 404 640 404 640 404 616.5 c 128,-1,34
 404 593 404 593 388 577.5 c 128,-1,35
 372 562 372 562 348.5 562 c 128,-1,28
 325 562 325 562 309.5 577.5 c 128,-1,29
EndSplineSet
EndChar

StartChar: divide
Encoding: 247 247 182
Width: 608
GlyphClass: 2
Flags: W
LayerCount: 2
Fore
SplineSet
90 309 m 1,0,-1
 102 354 l 1,1,-1
 507 356 l 1,2,-1
 518 344 l 1,3,-1
 507 295 l 1,4,5
 132 297 132 297 101 297 c 1,6,-1
 90 309 l 1,0,-1
267 441.5 m 128,-1,8
 252 456 252 456 252 478.5 c 128,-1,9
 252 501 252 501 267 516 c 128,-1,10
 282 531 282 531 304 531 c 128,-1,11
 326 531 326 531 341 516 c 128,-1,12
 356 501 356 501 356 479 c 128,-1,13
 356 457 356 457 341 442 c 128,-1,14
 326 427 326 427 304 427 c 128,-1,7
 282 427 282 427 267 441.5 c 128,-1,8
252 172 m 128,-1,16
 252 194 252 194 267 209 c 128,-1,17
 282 224 282 224 304 224 c 128,-1,18
 326 224 326 224 341 209 c 128,-1,19
 356 194 356 194 356 172 c 128,-1,20
 356 150 356 150 341 135 c 128,-1,21
 326 120 326 120 304 120 c 128,-1,22
 282 120 282 120 267 135 c 128,-1,15
 252 150 252 150 252 172 c 128,-1,16
EndSplineSet
EndChar

StartChar: oslash
Encoding: 248 248 183
Width: 530
GlyphClass: 2
Flags: W
LayerCount: 2
Fore
SplineSet
69 -69 m 1,0,-1
 129 33 l 1,1,2
 50 96 50 96 50 216.5 c 128,-1,3
 50 337 50 337 113.5 397.5 c 128,-1,4
 177 458 177 458 270 458 c 0,5,6
 318 458 318 458 358 441 c 1,7,-1
 394 508 l 1,8,-1
 449 520 l 1,9,-1
 461 509 l 1,10,-1
 404 413 l 1,11,12
 480 352 480 352 480 232.5 c 128,-1,13
 480 113 480 113 416 52.5 c 128,-1,14
 352 -8 352 -8 259 -8 c 0,15,16
 214 -8 214 -8 176 7 c 1,17,18
 143 -53 143 -53 136 -68 c 1,19,-1
 81 -80 l 1,20,-1
 69 -69 l 1,0,-1
172 379 m 1,21,22
 135 331 135 331 135 240 c 128,-1,23
 135 149 135 149 169 103 c 1,24,25
 259 260 259 260 324 379 c 1,26,27
 295 394 295 394 251.5 394 c 128,-1,28
 208 394 208 394 172 379 c 1,21,22
210 68 m 1,29,30
 235 56 235 56 278.5 56 c 128,-1,31
 322 56 322 56 358 71 c 1,32,33
 395 119 395 119 395 208.5 c 128,-1,34
 395 298 395 298 364 342 c 1,35,36
 244 131 244 131 210 68 c 1,29,30
EndSplineSet
EndChar

StartChar: ugrave
Encoding: 249 249 184
Width: 550
GlyphClass: 2
Flags: W
LayerCount: 2
Fore
SplineSet
235 -8 m 0,0,1
 91 -8 91 -8 91 145 c 2,2,-1
 91 378 l 1,3,-1
 21 389 l 1,4,-1
 15 411 l 1,5,-1
 152 458 l 1,6,-1
 172 450 l 1,7,-1
 172 157 l 2,8,9
 172 106 172 106 195.5 83.5 c 128,-1,10
 219 61 219 61 271 61 c 128,-1,11
 323 61 323 61 375 74 c 1,12,-1
 375 378 l 1,13,-1
 305 389 l 1,14,-1
 299 411 l 1,15,-1
 436 458 l 1,16,-1
 456 450 l 1,17,-1
 456 54 l 1,18,-1
 525 30 l 1,19,-1
 519 8 l 1,20,-1
 434 -8 l 1,21,-1
 414 0 l 1,22,-1
 382 28 l 1,23,-1
 377 30 l 1,24,25
 308 -8 308 -8 235 -8 c 0,0,1
342 552 m 1,26,-1
 131 629 l 1,27,-1
 174 684 l 1,28,-1
 194 688 l 1,29,-1
 355 572 l 1,30,-1
 342 552 l 1,26,-1
EndSplineSet
EndChar

StartChar: uacute
Encoding: 250 250 185
Width: 550
GlyphClass: 2
Flags: W
LayerCount: 2
Fore
SplineSet
235 -8 m 0,0,1
 91 -8 91 -8 91 145 c 2,2,-1
 91 378 l 1,3,-1
 21 389 l 1,4,-1
 15 411 l 1,5,-1
 152 458 l 1,6,-1
 172 450 l 1,7,-1
 172 157 l 2,8,9
 172 106 172 106 195.5 83.5 c 128,-1,10
 219 61 219 61 271 61 c 128,-1,11
 323 61 323 61 375 74 c 1,12,-1
 375 378 l 1,13,-1
 305 389 l 1,14,-1
 299 411 l 1,15,-1
 436 458 l 1,16,-1
 456 450 l 1,17,-1
 456 54 l 1,18,-1
 525 30 l 1,19,-1
 519 8 l 1,20,-1
 434 -8 l 1,21,-1
 414 0 l 1,22,-1
 382 28 l 1,23,-1
 377 30 l 1,24,25
 308 -8 308 -8 235 -8 c 0,0,1
177 572 m 1,26,-1
 349 695 l 1,27,-1
 390 643 l 1,28,-1
 386 623 l 1,29,-1
 190 552 l 1,30,-1
 177 572 l 1,26,-1
EndSplineSet
EndChar

StartChar: ucircumflex
Encoding: 251 251 186
Width: 550
GlyphClass: 2
Flags: W
LayerCount: 2
Fore
SplineSet
235 -8 m 0,0,1
 91 -8 91 -8 91 145 c 2,2,-1
 91 378 l 1,3,-1
 21 389 l 1,4,-1
 15 411 l 1,5,-1
 152 458 l 1,6,-1
 172 450 l 1,7,-1
 172 157 l 2,8,9
 172 106 172 106 195.5 83.5 c 128,-1,10
 219 61 219 61 271 61 c 128,-1,11
 323 61 323 61 375 74 c 1,12,-1
 375 378 l 1,13,-1
 305 389 l 1,14,-1
 299 411 l 1,15,-1
 436 458 l 1,16,-1
 456 450 l 1,17,-1
 456 54 l 1,18,-1
 525 30 l 1,19,-1
 519 8 l 1,20,-1
 434 -8 l 1,21,-1
 414 0 l 1,22,-1
 382 28 l 1,23,-1
 377 30 l 1,24,25
 308 -8 308 -8 235 -8 c 0,0,1
123 577 m 1,26,-1
 243 688 l 1,27,-1
 283 688 l 1,28,-1
 403 577 l 1,29,-1
 384 558 l 1,30,-1
 263 617 l 1,31,-1
 142 558 l 1,32,-1
 123 577 l 1,26,-1
EndSplineSet
EndChar

StartChar: udieresis
Encoding: 252 252 187
Width: 550
GlyphClass: 2
Flags: W
LayerCount: 2
Fore
SplineSet
235 -8 m 0,0,1
 91 -8 91 -8 91 145 c 2,2,-1
 91 378 l 1,3,-1
 21 389 l 1,4,-1
 15 411 l 1,5,-1
 152 458 l 1,6,-1
 172 450 l 1,7,-1
 172 157 l 2,8,9
 172 106 172 106 195.5 83.5 c 128,-1,10
 219 61 219 61 271 61 c 128,-1,11
 323 61 323 61 375 74 c 1,12,-1
 375 378 l 1,13,-1
 305 389 l 1,14,-1
 299 411 l 1,15,-1
 436 458 l 1,16,-1
 456 450 l 1,17,-1
 456 54 l 1,18,-1
 525 30 l 1,19,-1
 519 8 l 1,20,-1
 434 -8 l 1,21,-1
 414 0 l 1,22,-1
 382 28 l 1,23,-1
 377 30 l 1,24,25
 308 -8 308 -8 235 -8 c 0,0,1
124.5 577.5 m 128,-1,27
 109 593 109 593 109 616.5 c 128,-1,28
 109 640 109 640 124.5 656 c 128,-1,29
 140 672 140 672 163.5 672 c 128,-1,30
 187 672 187 672 203 656 c 128,-1,31
 219 640 219 640 219 616.5 c 128,-1,32
 219 593 219 593 203 577.5 c 128,-1,33
 187 562 187 562 163.5 562 c 128,-1,26
 140 562 140 562 124.5 577.5 c 128,-1,27
322.5 577.5 m 128,-1,35
 307 593 307 593 307 616.5 c 128,-1,36
 307 640 307 640 322.5 656 c 128,-1,37
 338 672 338 672 361.5 672 c 128,-1,38
 385 672 385 672 401 656 c 128,-1,39
 417 640 417 640 417 616.5 c 128,-1,40
 417 593 417 593 401 577.5 c 128,-1,41
 385 562 385 562 361.5 562 c 128,-1,34
 338 562 338 562 322.5 577.5 c 128,-1,35
EndSplineSet
EndChar

StartChar: yacute
Encoding: 253 253 188
Width: 519
GlyphClass: 2
Flags: W
LayerCount: 2
Fore
SplineSet
182 409 m 2,0,1
 163 401 163 401 163 387.5 c 128,-1,2
 163 374 163 374 168 363 c 2,3,-1
 277 106 l 1,4,-1
 389 396 l 1,5,-1
 318 428 l 1,6,-1
 324 450 l 1,7,-1
 518 450 l 1,8,-1
 524 428 l 1,9,-1
 475 407 l 2,10,11
 456 399 456 399 448 382 c 0,12,13
 445 376 445 376 440 363 c 2,14,-1
 298 12 l 2,15,16
 229 -158 229 -158 176 -238 c 1,17,-1
 101 -214 l 1,18,-1
 93 -194 l 1,19,20
 198 -81 198 -81 234 -1 c 1,21,-1
 66 396 l 1,22,-1
 -5 428 l 1,23,-1
 1 450 l 1,24,-1
 221 450 l 1,25,-1
 227 428 l 1,26,-1
 182 409 l 2,0,1
173 572 m 1,27,-1
 345 695 l 1,28,-1
 386 643 l 1,29,-1
 382 623 l 1,30,-1
 186 552 l 1,31,-1
 173 572 l 1,27,-1
EndSplineSet
EndChar

StartChar: thorn
Encoding: 254 254 189
Width: 525
GlyphClass: 2
Flags: W
LayerCount: 2
Fore
SplineSet
304 458 m 0,0,1
 392 458 392 458 438.5 391 c 128,-1,2
 485 324 485 324 485 218.5 c 128,-1,3
 485 113 485 113 421.5 52.5 c 128,-1,4
 358 -8 358 -8 263 -8 c 0,5,6
 217 -8 217 -8 167 1 c 1,7,-1
 167 -174 l 1,8,-1
 246 -206 l 1,9,-1
 240 -228 l 1,10,-1
 16 -228 l 1,11,-1
 10 -206 l 1,12,-1
 55 -187 l 2,13,14
 73 -180 73 -180 79.5 -172 c 128,-1,15
 86 -164 86 -164 86 -149 c 2,16,-1
 86 608 l 1,17,-1
 16 619 l 1,18,-1
 10 641 l 1,19,-1
 145 688 l 1,20,-1
 165 680 l 1,21,-1
 165 425 l 1,22,-1
 167 422 l 1,23,-1
 167 421 l 1,24,25
 234 458 234 458 304 458 c 0,0,1
167 70 m 1,26,27
 207 56 207 56 265.5 56 c 128,-1,28
 324 56 324 56 363 71 c 1,29,30
 400 120 400 120 400 214 c 0,31,32
 400 389 400 389 268 389 c 0,33,34
 219 389 219 389 167 376 c 1,35,-1
 167 70 l 1,26,27
EndSplineSet
EndChar

StartChar: ydieresis
Encoding: 255 255 190
Width: 519
GlyphClass: 2
Flags: W
LayerCount: 2
Fore
SplineSet
182 409 m 2,0,1
 163 401 163 401 163 387.5 c 128,-1,2
 163 374 163 374 168 363 c 2,3,-1
 277 106 l 1,4,-1
 389 396 l 1,5,-1
 318 428 l 1,6,-1
 324 450 l 1,7,-1
 518 450 l 1,8,-1
 524 428 l 1,9,-1
 475 407 l 2,10,11
 456 399 456 399 448 382 c 0,12,13
 445 376 445 376 440 363 c 2,14,-1
 298 12 l 2,15,16
 229 -158 229 -158 176 -238 c 1,17,-1
 101 -214 l 1,18,-1
 93 -194 l 1,19,20
 198 -81 198 -81 234 -1 c 1,21,-1
 66 396 l 1,22,-1
 -5 428 l 1,23,-1
 1 450 l 1,24,-1
 221 450 l 1,25,-1
 227 428 l 1,26,-1
 182 409 l 2,0,1
130.5 577.5 m 128,-1,28
 115 593 115 593 115 616.5 c 128,-1,29
 115 640 115 640 130.5 656 c 128,-1,30
 146 672 146 672 169.5 672 c 128,-1,31
 193 672 193 672 209 656 c 128,-1,32
 225 640 225 640 225 616.5 c 128,-1,33
 225 593 225 593 209 577.5 c 128,-1,34
 193 562 193 562 169.5 562 c 128,-1,27
 146 562 146 562 130.5 577.5 c 128,-1,28
328.5 577.5 m 128,-1,36
 313 593 313 593 313 616.5 c 128,-1,37
 313 640 313 640 328.5 656 c 128,-1,38
 344 672 344 672 367.5 672 c 128,-1,39
 391 672 391 672 407 656 c 128,-1,40
 423 640 423 640 423 616.5 c 128,-1,41
 423 593 423 593 407 577.5 c 128,-1,42
 391 562 391 562 367.5 562 c 128,-1,35
 344 562 344 562 328.5 577.5 c 128,-1,36
EndSplineSet
EndChar

StartChar: dotlessi
Encoding: 305 305 191
Width: 296
GlyphClass: 2
Flags: W
LayerCount: 2
Fore
SplineSet
111 79 m 2,0,-1
 111 378 l 1,1,-1
 41 389 l 1,2,-1
 35 411 l 1,3,-1
 172 458 l 1,4,-1
 192 450 l 1,5,-1
 192 54 l 1,6,-1
 271 22 l 1,7,-1
 265 0 l 1,8,-1
 41 0 l 1,9,-1
 35 22 l 1,10,-1
 80 41 l 2,11,12
 98 48 98 48 104.5 56 c 128,-1,13
 111 64 111 64 111 79 c 2,0,-1
EndSplineSet
EndChar

StartChar: Lslash
Encoding: 321 321 192
Width: 551
GlyphClass: 2
Flags: W
LayerCount: 2
Fore
SplineSet
33 261 m 1,0,1
 71 283 71 283 141 325 c 1,2,-1
 141 593 l 1,3,-1
 55 628 l 1,4,-1
 61 650 l 1,5,-1
 306 650 l 1,6,-1
 312 628 l 1,7,-1
 257 605 l 2,8,9
 239 598 239 598 232.5 590 c 128,-1,10
 226 582 226 582 226 567 c 2,11,-1
 226 377 l 1,12,-1
 312 432 l 1,13,-1
 326 428 l 1,14,-1
 345 376 l 1,15,16
 289 345 289 345 226 310 c 1,17,-1
 226 52 l 1,18,-1
 448 56 l 1,19,-1
 496 144 l 1,20,-1
 526 137 l 1,21,-1
 526 0 l 1,22,-1
 61 0 l 1,23,-1
 55 22 l 1,24,-1
 110 45 l 2,25,26
 128 52 128 52 134.5 60 c 128,-1,27
 141 68 141 68 141 83 c 2,28,-1
 141 262 l 1,29,-1
 58 217 l 1,30,-1
 42 222 l 1,31,-1
 33 261 l 1,0,1
EndSplineSet
EndChar

StartChar: lslash
Encoding: 322 322 193
Width: 296
GlyphClass: 2
Flags: W
LayerCount: 2
Fore
SplineSet
111 79 m 2,0,-1
 111 292 l 1,1,2
 85 278 85 278 41 253 c 1,3,-1
 25 258 l 1,4,-1
 16 298 l 1,5,-1
 111 354 l 1,6,-1
 111 608 l 1,7,-1
 41 619 l 1,8,-1
 35 641 l 1,9,-1
 172 688 l 1,10,-1
 192 680 l 1,11,-1
 192 404 l 1,12,-1
 260 448 l 1,13,-1
 275 443 l 1,14,-1
 292 392 l 1,15,16
 245 367 245 367 192 337 c 1,17,-1
 192 54 l 1,18,-1
 271 22 l 1,19,-1
 265 0 l 1,20,-1
 41 0 l 1,21,-1
 35 22 l 1,22,-1
 80 41 l 2,23,24
 98 48 98 48 104.5 56 c 128,-1,25
 111 64 111 64 111 79 c 2,0,-1
EndSplineSet
EndChar

StartChar: OE
Encoding: 338 338 194
Width: 995
GlyphClass: 2
Flags: W
LayerCount: 2
Fore
SplineSet
35 320 m 0,0,1
 35 431 35 431 80 509 c 0,2,3
 167 657 167 657 349 657 c 0,4,5
 479 657 479 657 555 569 c 1,6,-1
 555 640 l 1,7,-1
 565 650 l 1,8,-1
 930 650 l 1,9,-1
 930 513 l 1,10,-1
 900 506 l 1,11,-1
 852 594 l 1,12,-1
 667 598 l 2,13,14
 640 598 640 598 640 568 c 2,15,-1
 640 352 l 1,16,17
 735 352 735 352 832 361 c 2,18,-1
 865 364 l 1,19,-1
 876 352 l 1,20,-1
 865 296 l 1,21,22
 746 303 746 303 640 303 c 1,23,-1
 640 52 l 1,24,-1
 857 56 l 1,25,-1
 905 144 l 1,26,-1
 935 137 l 1,27,-1
 935 0 l 1,28,-1
 565 0 l 1,29,-1
 555 10 l 1,30,-1
 555 87 l 1,31,32
 473 -8 473 -8 336.5 -8 c 128,-1,33
 200 -8 200 -8 117.5 79.5 c 128,-1,34
 35 167 35 167 35 320 c 0,0,1
190 557 m 1,35,36
 128 472 128 472 128 338 c 128,-1,37
 128 204 128 204 184.5 129 c 128,-1,38
 241 54 241 54 348 54 c 0,39,40
 437 54 437 54 493 91 c 1,41,42
 526 135 526 135 538 173 c 128,-1,43
 550 211 550 211 554 290 c 2,44,-1
 555 307 l 2,45,46
 555 317 555 317 555 327 c 0,47,48
 555 442 555 442 498.5 518 c 128,-1,49
 442 594 442 594 335 594 c 0,50,51
 248 594 248 594 190 557 c 1,35,36
EndSplineSet
EndChar

StartChar: oe
Encoding: 339 339 195
Width: 805
GlyphClass: 2
Flags: W
LayerCount: 2
Fore
SplineSet
98 53.5 m 128,-1,1
 40 115 40 115 40 225.5 c 128,-1,2
 40 336 40 336 103.5 397 c 128,-1,3
 167 458 167 458 256 458 c 0,4,5
 314 458 314 458 361 432.5 c 128,-1,6
 408 407 408 407 430 364 c 1,7,8
 454 407 454 407 502.5 432.5 c 128,-1,9
 551 458 551 458 605 458 c 0,10,11
 680 458 680 458 722.5 408 c 128,-1,12
 765 358 765 358 765 273 c 2,13,-1
 765 240 l 1,14,-1
 750 225 l 1,15,-1
 470 225 l 1,16,17
 472 148 472 148 513 102 c 128,-1,18
 554 56 554 56 618.5 56 c 128,-1,19
 683 56 683 56 742 82 c 1,20,-1
 756 56 l 1,21,22
 729 26 729 26 683 9 c 128,-1,23
 637 -8 637 -8 589 -8 c 128,-1,24
 541 -8 541 -8 493.5 17.5 c 128,-1,25
 446 43 446 43 425 85 c 1,26,27
 402 43 402 43 352.5 17.5 c 128,-1,28
 303 -8 303 -8 245 -8 c 0,29,0
 156 -8 156 -8 98 53.5 c 128,-1,1
125 236 m 0,30,31
 125 56 125 56 262 56 c 0,32,33
 312 56 312 56 348 71 c 1,34,35
 385 118 385 118 385 211 c 2,36,-1
 385 222 l 1,37,38
 382 394 382 394 248 394 c 0,39,40
 198 394 198 394 162 379 c 1,41,42
 125 331 125 331 125 236 c 0,30,31
584 394 m 0,43,44
 537 394 537 394 507 379 c 1,45,46
 495 364 495 364 483.5 331 c 128,-1,47
 472 298 472 298 471 268 c 1,48,-1
 685 274 l 1,49,50
 685 394 685 394 584 394 c 0,43,44
EndSplineSet
EndChar

StartChar: Scaron
Encoding: 352 352 196
Width: 505
GlyphClass: 2
Flags: W
LayerCount: 2
Fore
SplineSet
358 578 m 1,0,1
 325 596 325 596 255.5 596 c 128,-1,2
 186 596 186 596 142 559 c 1,3,4
 130 540 130 540 130 504 c 0,5,6
 130 427 130 427 212 396 c 2,7,-1
 342 346 l 2,8,9
 470 297 470 297 470 169 c 0,10,11
 470 82 470 82 409 37 c 128,-1,12
 348 -8 348 -8 251 -8 c 0,13,14
 117 -8 117 -8 30 74 c 1,15,-1
 94 183 l 1,16,-1
 118 176 l 1,17,-1
 133 80 l 1,18,19
 170 54 170 54 240 54 c 0,20,21
 389 54 389 54 389 155 c 0,22,23
 389 196 389 196 363 222 c 128,-1,24
 337 248 337 248 282 269 c 2,25,-1
 167 313 l 2,26,27
 50 358 50 358 50 475 c 0,28,29
 50 563 50 563 112 610.5 c 128,-1,30
 174 658 174 658 270 658 c 0,31,32
 387 658 387 658 458 576 c 1,33,-1
 387 477 l 1,34,-1
 363 484 l 1,35,-1
 358 578 l 1,0,1
230 728 m 1,36,-1
 110 839 l 1,37,-1
 129 858 l 1,38,-1
 250 799 l 1,39,-1
 371 858 l 1,40,-1
 390 839 l 1,41,-1
 270 728 l 1,42,-1
 230 728 l 1,36,-1
EndSplineSet
EndChar

StartChar: scaron
Encoding: 353 353 197
Width: 392
GlyphClass: 2
Flags: W
LayerCount: 2
Fore
SplineSet
265 394 m 1,0,1
 242 404 242 404 194.5 404 c 128,-1,2
 147 404 147 404 123 380 c 1,3,4
 114 366 114 366 114 347 c 0,5,6
 114 305 114 305 165 286 c 2,7,-1
 267 250 l 2,8,9
 310 235 310 235 336 201.5 c 128,-1,10
 362 168 362 168 362 123 c 0,11,12
 362 60 362 60 314 26 c 128,-1,13
 266 -8 266 -8 201.5 -8 c 128,-1,14
 137 -8 137 -8 93.5 13.5 c 128,-1,15
 50 35 50 35 30 59 c 1,16,-1
 81 142 l 1,17,-1
 106 135 l 1,18,-1
 110 68 l 1,19,20
 145 48 145 48 199 48 c 0,21,22
 290 48 290 48 290 110 c 0,23,24
 290 135 290 135 274 150 c 128,-1,25
 258 165 258 165 222 177 c 2,26,-1
 130 207 l 2,27,28
 89 221 89 221 67 253 c 128,-1,29
 45 285 45 285 45 325 c 0,30,31
 45 388 45 388 95 423 c 128,-1,32
 145 458 145 458 211 458 c 0,33,34
 251 458 251 458 286 442 c 0,35,36
 335 421 335 421 352 395 c 1,37,-1
 297 317 l 1,38,-1
 273 324 l 1,39,-1
 265 394 l 1,0,1
176 558 m 1,40,-1
 56 669 l 1,41,-1
 75 688 l 1,42,-1
 196 629 l 1,43,-1
 317 688 l 1,44,-1
 336 669 l 1,45,-1
 216 558 l 1,46,-1
 176 558 l 1,40,-1
EndSplineSet
EndChar

StartChar: Ydieresis
Encoding: 376 376 198
Width: 653
GlyphClass: 2
Flags: W
LayerCount: 2
Fore
SplineSet
283 83 m 2,0,-1
 283 298 l 1,1,-1
 85 596 l 1,2,-1
 15 628 l 1,3,-1
 21 650 l 1,4,-1
 262 650 l 1,5,-1
 268 628 l 1,6,-1
 221 605 l 2,7,8
 199 595 199 595 199 581 c 0,9,10
 199 574 199 574 204 567 c 2,11,-1
 340 365 l 1,12,-1
 488 593 l 1,13,-1
 402 628 l 1,14,-1
 408 650 l 1,15,-1
 632 650 l 1,16,-1
 638 628 l 1,17,-1
 583 605 l 2,18,19
 564 597 564 597 555.5 587.5 c 128,-1,20
 547 578 547 578 540 567 c 2,21,-1
 368 301 l 1,22,-1
 368 57 l 1,23,-1
 454 22 l 1,24,-1
 448 0 l 1,25,-1
 203 0 l 1,26,-1
 197 22 l 1,27,-1
 252 45 l 2,28,29
 270 52 270 52 276.5 60 c 128,-1,30
 283 68 283 68 283 83 c 2,0,-1
177.5 747.5 m 128,-1,32
 162 763 162 763 162 786.5 c 128,-1,33
 162 810 162 810 177.5 826 c 128,-1,34
 193 842 193 842 216.5 842 c 128,-1,35
 240 842 240 842 256 826 c 128,-1,36
 272 810 272 810 272 786.5 c 128,-1,37
 272 763 272 763 256 747.5 c 128,-1,38
 240 732 240 732 216.5 732 c 128,-1,31
 193 732 193 732 177.5 747.5 c 128,-1,32
395.5 747.5 m 128,-1,40
 380 763 380 763 380 786.5 c 128,-1,41
 380 810 380 810 395.5 826 c 128,-1,42
 411 842 411 842 434.5 842 c 128,-1,43
 458 842 458 842 474 826 c 128,-1,44
 490 810 490 810 490 786.5 c 128,-1,45
 490 763 490 763 474 747.5 c 128,-1,46
 458 732 458 732 434.5 732 c 128,-1,39
 411 732 411 732 395.5 747.5 c 128,-1,40
EndSplineSet
EndChar

StartChar: Zcaron
Encoding: 381 381 199
Width: 564
GlyphClass: 2
Flags: W
LayerCount: 2
Fore
SplineSet
518 0 m 1,0,-1
 41 0 l 1,1,-1
 35 29 l 1,2,-1
 409 598 l 1,3,-1
 145 596 l 1,4,-1
 96 506 l 1,5,-1
 66 513 l 1,6,-1
 66 650 l 1,7,-1
 518 650 l 1,8,-1
 524 617 l 1,9,-1
 155 52 l 1,10,-1
 439 54 l 1,11,-1
 488 144 l 1,12,-1
 518 137 l 1,13,-1
 518 0 l 1,0,-1
269 728 m 1,14,-1
 149 839 l 1,15,-1
 168 858 l 1,16,-1
 289 799 l 1,17,-1
 410 858 l 1,18,-1
 429 839 l 1,19,-1
 309 728 l 1,20,-1
 269 728 l 1,14,-1
EndSplineSet
EndChar

StartChar: zcaron
Encoding: 382 382 200
Width: 441
GlyphClass: 2
Flags: W
LayerCount: 2
Fore
SplineSet
396 0 m 1,0,-1
 41 0 l 1,1,-1
 35 29 l 1,2,-1
 294 404 l 1,3,-1
 127 400 l 1,4,-1
 79 316 l 1,5,-1
 55 323 l 1,6,-1
 55 440 l 1,7,-1
 65 450 l 1,8,-1
 390 450 l 1,9,-1
 396 417 l 1,10,-1
 140 46 l 1,11,-1
 324 50 l 1,12,-1
 372 134 l 1,13,-1
 396 127 l 1,14,-1
 396 0 l 1,0,-1
200 558 m 1,15,-1
 80 669 l 1,16,-1
 99 688 l 1,17,-1
 220 629 l 1,18,-1
 341 688 l 1,19,-1
 360 669 l 1,20,-1
 240 558 l 1,21,-1
 200 558 l 1,15,-1
EndSplineSet
EndChar

StartChar: florin
Encoding: 402 402 201
Width: 525
GlyphClass: 2
Flags: W
LayerCount: 2
Fore
SplineSet
382 688 m 0,0,1
 460 688 460 688 495 639 c 1,2,-1
 435 557 l 1,3,-1
 411 564 l 1,4,-1
 408 636 l 1,5,6
 340 636 340 636 304 616 c 1,7,8
 286 592 286 592 256 429 c 1,9,-1
 365 429 l 1,10,-1
 376 417 l 1,11,-1
 367 379 l 1,12,-1
 257 383 l 1,13,-1
 248 383 l 1,14,-1
 195 97 l 2,15,16
 183 30 183 30 139 -20.5 c 128,-1,17
 95 -71 95 -71 27 -91 c 1,18,-1
 17 -70 l 1,19,20
 93 -11 93 -11 115 106 c 2,21,-1
 165 382 l 1,22,-1
 100 381 l 1,23,-1
 93 403 l 1,24,-1
 176 440 l 1,25,26
 220 688 220 688 382 688 c 0,0,1
EndSplineSet
EndChar

StartChar: dotlessj
Encoding: 567 567 202
Width: 242
GlyphClass: 2
Flags: W
LayerCount: 2
Fore
SplineSet
177 0 m 2,0,1
 177 -80 177 -80 138.5 -140.5 c 128,-1,2
 100 -201 100 -201 34 -238 c 1,3,-1
 20 -220 l 1,4,5
 96 -131 96 -131 96 -8 c 2,6,-1
 96 378 l 1,7,-1
 26 389 l 1,8,-1
 20 411 l 1,9,-1
 157 458 l 1,10,-1
 177 450 l 1,11,-1
 177 0 l 2,0,1
EndSplineSet
EndChar

StartChar: circumflex
Encoding: 710 710 203
Width: 360
GlyphClass: 2
Flags: W
LayerCount: 2
Fore
SplineSet
40 577 m 1,0,-1
 160 688 l 1,1,-1
 200 688 l 1,2,-1
 320 577 l 1,3,-1
 301 558 l 1,4,-1
 180 617 l 1,5,-1
 59 558 l 1,6,-1
 40 577 l 1,0,-1
EndSplineSet
EndChar

StartChar: caron
Encoding: 711 711 204
Width: 360
GlyphClass: 2
Flags: W
LayerCount: 2
Fore
SplineSet
160 558 m 1,0,-1
 40 669 l 1,1,-1
 59 688 l 1,2,-1
 180 629 l 1,3,-1
 301 688 l 1,4,-1
 320 669 l 1,5,-1
 200 558 l 1,6,-1
 160 558 l 1,0,-1
EndSplineSet
EndChar

StartChar: dotaccent
Encoding: 729 729 205
Width: 178
GlyphClass: 2
Flags: W
LayerCount: 2
Fore
SplineSet
49.5 583.5 m 128,-1,1
 34 599 34 599 34 622.5 c 128,-1,2
 34 646 34 646 49.5 662 c 128,-1,3
 65 678 65 678 88.5 678 c 128,-1,4
 112 678 112 678 128 662 c 128,-1,5
 144 646 144 646 144 622.5 c 128,-1,6
 144 599 144 599 128 583.5 c 128,-1,7
 112 568 112 568 88.5 568 c 128,-1,0
 65 568 65 568 49.5 583.5 c 128,-1,1
EndSplineSet
EndChar

StartChar: ring
Encoding: 730 730 206
Width: 372
GlyphClass: 2
Flags: W
LayerCount: 2
Fore
SplineSet
147 626 m 0,0,1
 147 573 147 573 190 573 c 0,2,3
 203 573 203 573 210 578 c 0,4,5
 225 589 225 589 225 620 c 0,6,7
 225 673 225 673 182 673 c 0,8,9
 169 673 169 673 162 668 c 0,10,11
 147 657 147 657 147 626 c 0,0,1
115.5 560 m 128,-1,13
 90 583 90 583 90 622.5 c 128,-1,14
 90 662 90 662 117.5 685.5 c 128,-1,15
 145 709 145 709 187.5 709 c 128,-1,16
 230 709 230 709 256 685.5 c 128,-1,17
 282 662 282 662 282 623 c 128,-1,18
 282 584 282 584 254 560.5 c 128,-1,19
 226 537 226 537 183.5 537 c 128,-1,12
 141 537 141 537 115.5 560 c 128,-1,13
EndSplineSet
EndChar

StartChar: tilde
Encoding: 732 732 207
Width: 397
GlyphClass: 2
Flags: W
LayerCount: 2
Fore
SplineSet
284 631 m 2,0,1
 284 631 284 631 285 631 c 2,2,-1
 340 678 l 1,3,-1
 357 667 l 1,4,-1
 305 568 l 1,5,-1
 285 563 l 1,6,7
 259 563 259 563 193 589 c 128,-1,8
 127 615 127 615 110 615 c 2,9,10
 110 615 110 615 109 615 c 2,11,-1
 54 568 l 1,12,-1
 37 579 l 1,13,-1
 89 678 l 1,14,-1
 109 683 l 1,15,16
 135 683 135 683 201 657 c 128,-1,17
 267 631 267 631 284 631 c 2,0,1
EndSplineSet
EndChar

StartChar: endash
Encoding: 8211 8211 208
Width: 579
GlyphClass: 2
Flags: W
LayerCount: 2
Fore
SplineSet
50 217 m 1,0,-1
 62 256 l 1,1,2
 282 256 282 256 452 262 c 1,3,-1
 518 265 l 1,4,-1
 529 253 l 1,5,-1
 518 197 l 1,6,7
 122 205 122 205 61 205 c 1,8,-1
 50 217 l 1,0,-1
EndSplineSet
EndChar

StartChar: emdash
Encoding: 8212 8212 209
Width: 864
GlyphClass: 2
Flags: W
LayerCount: 2
Fore
SplineSet
50 217 m 1,0,-1
 62 256 l 1,1,2
 363 256 363 256 693 264 c 1,3,-1
 803 266 l 1,4,-1
 814 254 l 1,5,-1
 803 194 l 1,6,7
 151 205 151 205 61 205 c 1,8,-1
 50 217 l 1,0,-1
EndSplineSet
EndChar

StartChar: quoteleft
Encoding: 8216 8216 210
Width: 218
GlyphClass: 2
Flags: W
LayerCount: 2
Fore
SplineSet
30.5 496.5 m 128,-1,1
 20 522 20 522 20 556.5 c 128,-1,2
 20 591 20 591 49.5 628 c 128,-1,3
 79 665 79 665 122 688 c 1,4,-1
 138 670 l 1,5,6
 81 625 81 625 81 580 c 128,-1,7
 81 535 81 535 127 504 c 1,8,-1
 130 484 l 1,9,-1
 74 458 l 1,10,-1
 54 458 l 1,11,0
 41 471 41 471 30.5 496.5 c 128,-1,1
EndSplineSet
EndChar

StartChar: quoteright
Encoding: 8217 8217 211
Width: 218
GlyphClass: 2
Flags: W
LayerCount: 2
Fore
SplineSet
157.5 649.5 m 128,-1,1
 168 624 168 624 168 589.5 c 128,-1,2
 168 555 168 555 138.5 518 c 128,-1,3
 109 481 109 481 66 458 c 1,4,-1
 50 476 l 1,5,6
 107 521 107 521 107 566 c 128,-1,7
 107 611 107 611 61 642 c 1,8,-1
 58 662 l 1,9,-1
 114 688 l 1,10,-1
 134 688 l 1,11,0
 147 675 147 675 157.5 649.5 c 128,-1,1
EndSplineSet
EndChar

StartChar: quotesinglbase
Encoding: 8218 8218 212
Width: 199
GlyphClass: 2
Flags: W
LayerCount: 2
Fore
SplineSet
137.5 64.5 m 128,-1,1
 148 39 148 39 148 4.5 c 128,-1,2
 148 -30 148 -30 118.5 -67 c 128,-1,3
 89 -104 89 -104 46 -127 c 1,4,-1
 30 -109 l 1,5,6
 87 -64 87 -64 87 -19 c 128,-1,7
 87 26 87 26 41 57 c 1,8,-1
 38 77 l 1,9,-1
 94 103 l 1,10,-1
 114 103 l 1,11,0
 127 90 127 90 137.5 64.5 c 128,-1,1
EndSplineSet
EndChar

StartChar: quotedblleft
Encoding: 8220 8220 213
Width: 378
GlyphClass: 2
Flags: W
LayerCount: 2
Fore
SplineSet
30.5 496.5 m 128,-1,1
 20 522 20 522 20 556.5 c 128,-1,2
 20 591 20 591 49.5 628 c 128,-1,3
 79 665 79 665 122 688 c 1,4,-1
 138 670 l 1,5,6
 81 625 81 625 81 580 c 128,-1,7
 81 535 81 535 127 504 c 1,8,-1
 130 484 l 1,9,-1
 74 458 l 1,10,-1
 54 458 l 1,11,0
 41 471 41 471 30.5 496.5 c 128,-1,1
190.5 496.5 m 128,-1,13
 180 522 180 522 180 556.5 c 128,-1,14
 180 591 180 591 209.5 628 c 128,-1,15
 239 665 239 665 282 688 c 1,16,-1
 298 670 l 1,17,18
 241 625 241 625 241 580 c 128,-1,19
 241 535 241 535 287 504 c 1,20,-1
 290 484 l 1,21,-1
 234 458 l 1,22,-1
 214 458 l 1,23,12
 201 471 201 471 190.5 496.5 c 128,-1,13
EndSplineSet
EndChar

StartChar: quotedblright
Encoding: 8221 8221 214
Width: 378
GlyphClass: 2
Flags: W
LayerCount: 2
Fore
SplineSet
157.5 649.5 m 128,-1,1
 168 624 168 624 168 589.5 c 128,-1,2
 168 555 168 555 138.5 518 c 128,-1,3
 109 481 109 481 66 458 c 1,4,-1
 50 476 l 1,5,6
 107 521 107 521 107 566 c 128,-1,7
 107 611 107 611 61 642 c 1,8,-1
 58 662 l 1,9,-1
 114 688 l 1,10,-1
 134 688 l 1,11,0
 147 675 147 675 157.5 649.5 c 128,-1,1
317.5 649.5 m 128,-1,13
 328 624 328 624 328 589.5 c 128,-1,14
 328 555 328 555 298.5 518 c 128,-1,15
 269 481 269 481 226 458 c 1,16,-1
 210 476 l 1,17,18
 267 521 267 521 267 566 c 128,-1,19
 267 611 267 611 221 642 c 1,20,-1
 218 662 l 1,21,-1
 274 688 l 1,22,-1
 294 688 l 1,23,12
 307 675 307 675 317.5 649.5 c 128,-1,13
EndSplineSet
EndChar

StartChar: quotedblbase
Encoding: 8222 8222 215
Width: 358
GlyphClass: 2
Flags: W
LayerCount: 2
Fore
SplineSet
137.5 64.5 m 128,-1,1
 148 39 148 39 148 4.5 c 128,-1,2
 148 -30 148 -30 118.5 -67 c 128,-1,3
 89 -104 89 -104 46 -127 c 1,4,-1
 30 -109 l 1,5,6
 87 -64 87 -64 87 -19 c 128,-1,7
 87 26 87 26 41 57 c 1,8,-1
 38 77 l 1,9,-1
 94 103 l 1,10,-1
 114 103 l 1,11,0
 127 90 127 90 137.5 64.5 c 128,-1,1
297.5 64.5 m 128,-1,13
 308 39 308 39 308 4.5 c 128,-1,14
 308 -30 308 -30 278.5 -67 c 128,-1,15
 249 -104 249 -104 206 -127 c 1,16,-1
 190 -109 l 1,17,18
 247 -64 247 -64 247 -19 c 128,-1,19
 247 26 247 26 201 57 c 1,20,-1
 198 77 l 1,21,-1
 254 103 l 1,22,-1
 274 103 l 1,23,12
 287 90 287 90 297.5 64.5 c 128,-1,13
EndSplineSet
EndChar

StartChar: dagger
Encoding: 8224 8224 216
Width: 552
GlyphClass: 2
Flags: W
LayerCount: 2
Fore
SplineSet
487 420 m 1,0,-1
 476 348 l 1,1,2
 462 349 462 349 430 353 c 0,3,4
 343 364 343 364 306 365 c 1,5,6
 310 286 310 286 321 188 c 1,7,8
 306 30 306 30 294 -201 c 1,9,-1
 253 -201 l 1,10,11
 241 40 241 40 225 189 c 1,12,13
 237 269 237 269 244 365 c 1,14,15
 187 362 187 362 79 350 c 1,16,-1
 65 364 l 1,17,-1
 76 436 l 1,18,19
 196 421 196 421 244 419 c 1,20,21
 244 424 244 424 222 619 c 1,22,-1
 314 629 l 1,23,-1
 328 616 l 1,24,25
 308 459 308 459 306 419 c 1,26,27
 373 422 373 422 473 436 c 1,28,-1
 487 420 l 1,0,-1
EndSplineSet
EndChar

StartChar: daggerdbl
Encoding: 8225 8225 217
Width: 572
GlyphClass: 2
Flags: W
LayerCount: 2
Fore
SplineSet
497 420 m 1,0,-1
 486 348 l 1,1,2
 472 349 472 349 440 353 c 0,3,4
 353 364 353 364 316 365 c 1,5,6
 321 302 321 302 334 224 c 1,7,8
 321 138 321 138 316 83 c 1,9,10
 383 86 383 86 483 100 c 1,11,-1
 497 84 l 1,12,-1
 486 12 l 1,13,14
 472 13 472 13 440 17 c 0,15,16
 353 28 353 28 316 29 c 1,17,18
 322 -72 322 -72 340 -186 c 1,19,-1
 248 -196 l 1,20,-1
 234 -183 l 1,21,22
 248 -71 248 -71 254 29 c 1,23,24
 197 26 197 26 89 14 c 1,25,-1
 75 28 l 1,26,-1
 86 100 l 1,27,28
 206 85 206 85 254 83 c 1,29,30
 250 154 250 154 238 225 c 1,31,32
 250 294 250 294 254 365 c 1,33,34
 197 362 197 362 89 350 c 1,35,-1
 75 364 l 1,36,-1
 86 436 l 1,37,38
 206 421 206 421 254 419 c 1,39,40
 254 424 254 424 232 619 c 1,41,-1
 324 629 l 1,42,-1
 338 616 l 1,43,44
 318 459 318 459 316 419 c 1,45,46
 383 422 383 422 483 436 c 1,47,-1
 497 420 l 1,0,-1
EndSplineSet
EndChar

StartChar: bullet
Encoding: 8226 8226 218
Width: 343
GlyphClass: 2
Flags: W
LayerCount: 2
Fore
SplineSet
105.5 252.5 m 128,-1,1
 80 278 80 278 80 317.5 c 128,-1,2
 80 357 80 357 106 383.5 c 128,-1,3
 132 410 132 410 171 410 c 128,-1,4
 210 410 210 410 236.5 383.5 c 128,-1,5
 263 357 263 357 263 318 c 128,-1,6
 263 279 263 279 236.5 253 c 128,-1,7
 210 227 210 227 170.5 227 c 128,-1,0
 131 227 131 227 105.5 252.5 c 128,-1,1
EndSplineSet
EndChar

StartChar: ellipsis
Encoding: 8230 8230 219
Width: 630
GlyphClass: 2
Flags: W
LayerCount: 2
Fore
SplineSet
65.5 7.5 m 128,-1,1
 50 23 50 23 50 46.5 c 128,-1,2
 50 70 50 70 65.5 86 c 128,-1,3
 81 102 81 102 104.5 102 c 128,-1,4
 128 102 128 102 144 86 c 128,-1,5
 160 70 160 70 160 46.5 c 128,-1,6
 160 23 160 23 144 7.5 c 128,-1,7
 128 -8 128 -8 104.5 -8 c 128,-1,0
 81 -8 81 -8 65.5 7.5 c 128,-1,1
275.5 7.5 m 128,-1,9
 260 23 260 23 260 46.5 c 128,-1,10
 260 70 260 70 275.5 86 c 128,-1,11
 291 102 291 102 314.5 102 c 128,-1,12
 338 102 338 102 354 86 c 128,-1,13
 370 70 370 70 370 46.5 c 128,-1,14
 370 23 370 23 354 7.5 c 128,-1,15
 338 -8 338 -8 314.5 -8 c 128,-1,8
 291 -8 291 -8 275.5 7.5 c 128,-1,9
485.5 7.5 m 128,-1,17
 470 23 470 23 470 46.5 c 128,-1,18
 470 70 470 70 485.5 86 c 128,-1,19
 501 102 501 102 524.5 102 c 128,-1,20
 548 102 548 102 564 86 c 128,-1,21
 580 70 580 70 580 46.5 c 128,-1,22
 580 23 580 23 564 7.5 c 128,-1,23
 548 -8 548 -8 524.5 -8 c 128,-1,16
 501 -8 501 -8 485.5 7.5 c 128,-1,17
EndSplineSet
EndChar

StartChar: perthousand
Encoding: 8240 8240 220
Width: 956
GlyphClass: 2
Flags: W
LayerCount: 2
Fore
SplineSet
447.5 35 m 128,-1,1
 410 70 410 70 410 148.5 c 128,-1,2
 410 227 410 227 453.5 272 c 128,-1,3
 497 317 497 317 555 317 c 0,4,5
 591 317 591 317 620.5 299 c 128,-1,6
 650 281 650 281 665 252 c 1,7,8
 683 280 683 280 714.5 298.5 c 128,-1,9
 746 317 746 317 782 317 c 0,10,11
 835 317 835 317 873.5 277.5 c 128,-1,12
 912 238 912 238 912 159.5 c 128,-1,13
 912 81 912 81 869 40.5 c 128,-1,14
 826 0 826 0 767 0 c 0,15,16
 729 0 729 0 699.5 16.5 c 128,-1,17
 670 33 670 33 656 58 c 1,18,19
 639 33 639 33 608 16.5 c 128,-1,20
 577 0 577 0 531 0 c 128,-1,0
 485 0 485 0 447.5 35 c 128,-1,1
87.5 368 m 128,-1,22
 50 403 50 403 50 481.5 c 128,-1,23
 50 560 50 560 93.5 605 c 128,-1,24
 137 650 137 650 196 650 c 128,-1,25
 255 650 255 650 293.5 610.5 c 128,-1,26
 332 571 332 571 332 492.5 c 128,-1,27
 332 414 332 414 289 373.5 c 128,-1,28
 246 333 246 333 185.5 333 c 128,-1,21
 125 333 125 333 87.5 368 c 128,-1,22
472 164 m 0,29,30
 472 47 472 47 557 47 c 0,31,32
 589 47 589 47 611 58 c 1,33,34
 629 97 629 97 629 152 c 0,35,36
 629 270 629 270 545 270 c 0,37,38
 513 270 513 270 491 259 c 1,39,40
 472 219 472 219 472 164 c 0,29,30
112 497 m 0,41,42
 112 380 112 380 197 380 c 0,43,44
 229 380 229 380 251 391 c 1,45,46
 269 430 269 430 269 485 c 0,47,48
 269 603 269 603 185 603 c 0,49,50
 153 603 153 603 131 592 c 1,51,52
 112 552 112 552 112 497 c 0,41,42
692 163 m 0,53,54
 692 47 692 47 777 47 c 0,55,56
 809 47 809 47 831 58 c 1,57,58
 849 97 849 97 849 152 c 0,59,60
 849 270 849 270 765 270 c 0,61,62
 733 270 733 270 711 259 c 1,63,64
 692 219 692 219 692 163 c 0,53,54
624 638 m 1,65,-1
 636 627 l 1,66,67
 394 320 394 320 178 27 c 1,68,-1
 114 12 l 1,69,-1
 102 23 l 1,70,71
 344 330 344 330 560 623 c 1,72,-1
 624 638 l 1,65,-1
EndSplineSet
EndChar

StartChar: guilsinglleft
Encoding: 8249 8249 221
Width: 403
GlyphClass: 2
Flags: W
LayerCount: 2
Fore
SplineSet
287 9 m 1,0,-1
 80 210 l 1,1,-1
 80 240 l 1,2,-1
 287 441 l 1,3,-1
 323 409 l 1,4,-1
 182 225 l 1,5,-1
 323 41 l 1,6,-1
 287 9 l 1,0,-1
EndSplineSet
EndChar

StartChar: guilsinglright
Encoding: 8250 8250 222
Width: 403
GlyphClass: 2
Flags: W
LayerCount: 2
Fore
SplineSet
313 210 m 1,0,-1
 106 9 l 1,1,-1
 70 41 l 1,2,-1
 211 225 l 1,3,-1
 70 409 l 1,4,-1
 106 441 l 1,5,-1
 313 240 l 1,6,-1
 313 210 l 1,0,-1
EndSplineSet
EndChar

StartChar: fraction
Encoding: 8260 8260 223
Width: 582
GlyphClass: 2
Flags: W
LayerCount: 2
Fore
SplineSet
546 638 m 1,0,-1
 558 627 l 1,1,2
 316 320 316 320 100 27 c 1,3,-1
 36 12 l 1,4,-1
 24 23 l 1,5,6
 266 330 266 330 482 623 c 1,7,-1
 546 638 l 1,0,-1
EndSplineSet
EndChar

StartChar: Euro
Encoding: 8364 8364 224
Width: 594
GlyphClass: 2
Flags: W
LayerCount: 2
Fore
SplineSet
388 638 m 0,0,1
 436 638 436 638 477.5 620.5 c 128,-1,2
 519 603 519 603 535.5 587.5 c 128,-1,3
 552 572 552 572 555 565 c 1,4,-1
 504 478 l 1,5,-1
 482 484 l 1,6,-1
 477 566 l 1,7,8
 442 578 442 578 382 578 c 128,-1,9
 322 578 322 578 274 557 c 1,10,11
 208 500 208 500 192 389 c 1,12,-1
 472 393 l 1,13,-1
 482 381 l 1,14,-1
 472 338 l 1,15,-1
 49 338 l 1,16,-1
 39 349 l 1,17,-1
 50 389 l 1,18,-1
 110 389 l 1,19,20
 131 509 131 509 210.5 573.5 c 128,-1,21
 290 638 290 638 388 638 c 0,0,1
408 70 m 0,22,23
 446 70 446 70 489.5 81 c 128,-1,24
 533 92 533 92 550 101 c 1,25,-1
 564 73 l 1,26,27
 544 53 544 53 490.5 32.5 c 128,-1,28
 437 12 437 12 377 12 c 0,29,30
 282 12 282 12 211 68.5 c 128,-1,31
 140 125 140 125 115 227 c 1,32,-1
 41 227 l 1,33,-1
 30 239 l 1,34,-1
 42 278 l 1,35,-1
 453 278 l 1,36,-1
 464 266 l 1,37,-1
 453 223 l 1,38,39
 327 225 327 225 206 226 c 1,40,41
 231 148 231 148 285.5 109 c 128,-1,42
 340 70 340 70 408 70 c 0,22,23
EndSplineSet
EndChar

StartChar: trademark
Encoding: 8482 8482 225
Width: 604
GlyphClass: 2
Flags: W
LayerCount: 2
Fore
SplineSet
483 579 m 1,0,-1
 480 579 l 1,1,-1
 417 435 l 1,2,-1
 394 428 l 1,3,-1
 380 432 l 1,4,-1
 312 588 l 1,5,-1
 310 588 l 1,6,-1
 310 456 l 1,7,-1
 334 450 l 1,8,-1
 332 428 l 1,9,-1
 249 428 l 1,10,-1
 246 449 l 1,11,-1
 275 456 l 1,12,-1
 274 622 l 1,13,-1
 246 628 l 1,14,-1
 246 650 l 1,15,-1
 334 650 l 1,16,-1
 343 644 l 1,17,-1
 405 495 l 1,18,-1
 472 650 l 1,19,-1
 557 650 l 1,20,-1
 559 628 l 1,21,-1
 529 622 l 1,22,-1
 529 456 l 1,23,-1
 558 449 l 1,24,-1
 557 428 l 1,25,-1
 461 428 l 1,26,-1
 459 450 l 1,27,-1
 483 457 l 1,28,-1
 483 579 l 1,0,-1
231 650 m 1,29,-1
 231 591 l 1,30,-1
 210 588 l 1,31,-1
 193 619 l 1,32,-1
 161 619 l 1,33,-1
 161 456 l 1,34,-1
 190 449 l 1,35,-1
 187 428 l 1,36,-1
 87 428 l 1,37,-1
 85 449 l 1,38,-1
 115 456 l 1,39,-1
 115 619 l 1,40,-1
 80 619 l 1,41,42
 69 599 69 599 64 588 c 1,43,-1
 45 591 l 1,44,-1
 45 650 l 1,45,-1
 231 650 l 1,29,-1
EndSplineSet
EndChar

StartChar: minus
Encoding: 8722 8722 226
Width: 638
GlyphClass: 2
Flags: W
LayerCount: 2
Fore
SplineSet
115 309 m 1,0,-1
 127 354 l 1,1,-1
 512 356 l 1,2,-1
 523 344 l 1,3,-1
 512 295 l 1,4,5
 157 297 157 297 126 297 c 1,6,-1
 115 309 l 1,0,-1
EndSplineSet
EndChar

StartChar: ff
Encoding: 64256 64256 227
Width: 613
GlyphClass: 3
Flags: W
LayerCount: 2
Fore
SplineSet
629 610 m 1,0,1
 590 617 590 617 552 617 c 128,-1,2
 514 617 514 617 490 605 c 1,3,4
 476 575 476 575 476 480 c 2,5,-1
 476 450 l 1,6,-1
 585 450 l 1,7,-1
 596 438 l 1,8,-1
 586 400 l 1,9,-1
 476 404 l 1,10,-1
 476 61 l 1,11,-1
 570 22 l 1,12,-1
 564 0 l 1,13,-1
 325 0 l 1,14,-1
 319 22 l 1,15,-1
 364 41 l 2,16,17
 382 48 382 48 388.5 56 c 128,-1,18
 395 64 395 64 395 79 c 2,19,-1
 395 401 l 1,20,-1
 202 404 l 1,21,-1
 202 50 l 1,22,-1
 271 22 l 1,23,-1
 265 0 l 1,24,-1
 51 0 l 1,25,-1
 45 22 l 1,26,-1
 90 41 l 2,27,28
 108 48 108 48 114.5 56 c 128,-1,29
 121 64 121 64 121 79 c 2,30,-1
 121 403 l 1,31,-1
 51 402 l 1,32,-1
 45 424 l 1,33,-1
 121 458 l 1,34,35
 121 556 121 556 181 619 c 0,36,37
 246 688 246 688 352 688 c 0,38,39
 416 688 416 688 495 663 c 1,40,41
 539 686 539 686 594 686 c 0,42,43
 623 686 623 686 636 680 c 1,44,-1
 643 659 l 1,45,-1
 629 610 l 1,0,1
202 450 m 1,46,-1
 395 450 l 1,47,48
 395 548 395 548 435 608 c 1,49,50
 400 623 400 623 338 623 c 0,51,52
 258 623 258 623 221 596 c 1,53,54
 202 566 202 566 202 450 c 1,46,-1
EndSplineSet
Ligature2: "'liga' Standard Ligatures in Latin lookup 0 subtable" f f
EndChar

StartChar: fi
Encoding: 64257 64257 228
Width: 590
GlyphClass: 3
Flags: W
LayerCount: 2
Fore
SplineSet
121 79 m 2,0,-1
 121 403 l 1,1,-1
 51 402 l 1,2,-1
 45 424 l 1,3,-1
 121 458 l 1,4,5
 123 557 123 557 179 622.5 c 128,-1,6
 235 688 235 688 335 688 c 128,-1,7
 435 688 435 688 495 616 c 1,8,-1
 435 563 l 1,9,-1
 417 568 l 1,10,11
 404 588 404 588 375 605 c 0,12,13
 344 623 344 623 295.5 623 c 128,-1,14
 247 623 247 623 221 602 c 1,15,16
 202 572 202 572 202 450 c 1,17,-1
 466 458 l 1,18,-1
 486 450 l 1,19,-1
 486 54 l 1,20,-1
 565 22 l 1,21,-1
 559 0 l 1,22,-1
 335 0 l 1,23,-1
 329 22 l 1,24,-1
 374 41 l 2,25,26
 392 48 392 48 398.5 56 c 128,-1,27
 405 64 405 64 405 79 c 2,28,-1
 405 401 l 1,29,-1
 202 404 l 1,30,-1
 202 54 l 1,31,-1
 281 22 l 1,32,-1
 275 0 l 1,33,-1
 51 0 l 1,34,-1
 45 22 l 1,35,-1
 90 41 l 2,36,37
 108 48 108 48 114.5 56 c 128,-1,38
 121 64 121 64 121 79 c 2,0,-1
EndSplineSet
Ligature2: "'liga' Standard Ligatures in Latin lookup 0 subtable" f i
EndChar

StartChar: fl
Encoding: 64258 64258 229
Width: 590
GlyphClass: 3
Flags: W
LayerCount: 2
Fore
SplineSet
405 606 m 1,0,1
 359 618 359 618 327.5 618 c 128,-1,2
 296 618 296 618 266.5 614.5 c 128,-1,3
 237 611 237 611 221 596 c 1,4,5
 202 566 202 566 202 450 c 1,6,-1
 311 450 l 1,7,-1
 322 438 l 1,8,-1
 312 400 l 1,9,-1
 202 404 l 1,10,-1
 202 54 l 1,11,-1
 281 22 l 1,12,-1
 275 0 l 1,13,-1
 51 0 l 1,14,-1
 45 22 l 1,15,-1
 90 41 l 2,16,17
 108 48 108 48 114.5 56 c 128,-1,18
 121 64 121 64 121 79 c 2,19,-1
 121 403 l 1,20,-1
 51 402 l 1,21,-1
 45 424 l 1,22,-1
 121 458 l 1,23,24
 121 554 121 554 181.5 618.5 c 128,-1,25
 242 683 242 683 319 687 c 0,26,27
 329 688 329 688 357.5 688 c 128,-1,28
 386 688 386 688 430 676 c 1,29,-1
 466 688 l 1,30,-1
 486 680 l 1,31,-1
 486 54 l 1,32,-1
 565 22 l 1,33,-1
 559 0 l 1,34,-1
 335 0 l 1,35,-1
 329 22 l 1,36,-1
 374 41 l 2,37,38
 392 48 392 48 398.5 56 c 128,-1,39
 405 64 405 64 405 79 c 2,40,-1
 405 606 l 1,0,1
EndSplineSet
Ligature2: "'liga' Standard Ligatures in Latin lookup 0 subtable" f l
EndChar

StartChar: ffi
Encoding: 64259 64259 230
Width: 864
GlyphClass: 3
Flags: W
LayerCount: 2
Fore
SplineSet
121 79 m 2,0,-1
 121 403 l 1,1,-1
 51 402 l 1,2,-1
 45 424 l 1,3,-1
 121 458 l 1,4,5
 121 556 121 556 181 619 c 0,6,7
 246 688 246 688 352 688 c 0,8,9
 416 688 416 688 495 663 c 1,10,11
 543 688 543 688 605 688 c 0,12,13
 709 688 709 688 769 616 c 1,14,-1
 709 563 l 1,15,-1
 691 568 l 1,16,17
 678 588 678 588 649 605 c 0,18,19
 618 623 618 623 569.5 623 c 128,-1,20
 521 623 521 623 495 602 c 1,21,22
 476 572 476 572 476 450 c 1,23,-1
 740 458 l 1,24,-1
 760 450 l 1,25,-1
 760 54 l 1,26,-1
 839 22 l 1,27,-1
 833 0 l 1,28,-1
 609 0 l 1,29,-1
 603 22 l 1,30,-1
 648 41 l 2,31,32
 666 48 666 48 672.5 56 c 128,-1,33
 679 64 679 64 679 79 c 2,34,-1
 679 401 l 1,35,-1
 476 404 l 1,36,-1
 476 54 l 1,37,-1
 555 22 l 1,38,-1
 549 0 l 1,39,-1
 325 0 l 1,40,-1
 319 22 l 1,41,-1
 364 41 l 2,42,43
 382 48 382 48 388.5 56 c 128,-1,44
 395 64 395 64 395 79 c 2,45,-1
 395 401 l 1,46,-1
 202 404 l 1,47,-1
 202 50 l 1,48,-1
 271 22 l 1,49,-1
 265 0 l 1,50,-1
 51 0 l 1,51,-1
 45 22 l 1,52,-1
 90 41 l 2,53,54
 108 48 108 48 114.5 56 c 128,-1,55
 121 64 121 64 121 79 c 2,0,-1
202 450 m 1,57,-1
 395 450 l 1,58,59
 395 548 395 548 435 608 c 1,60,61
 399 623 399 623 338 623 c 0,62,63
 258 623 258 623 221 596 c 1,64,56
 202 566 202 566 202 450 c 1,57,-1
EndSplineSet
Ligature2: "'liga' Standard Ligatures in Latin lookup 0 subtable" f f i
EndChar

StartChar: ffl
Encoding: 64260 64260 231
Width: 864
GlyphClass: 3
Flags: W
LayerCount: 2
Fore
SplineSet
679 606 m 1,0,1
 633 618 633 618 601.5 618 c 128,-1,2
 570 618 570 618 540.5 614.5 c 128,-1,3
 511 611 511 611 495 596 c 1,4,5
 476 566 476 566 476 450 c 1,6,-1
 585 450 l 1,7,-1
 596 438 l 1,8,-1
 586 400 l 1,9,-1
 476 404 l 1,10,-1
 476 54 l 1,11,-1
 555 22 l 1,12,-1
 549 0 l 1,13,-1
 325 0 l 1,14,-1
 319 22 l 1,15,-1
 364 41 l 2,16,17
 382 48 382 48 388.5 56 c 128,-1,18
 395 64 395 64 395 79 c 2,19,-1
 395 401 l 1,20,-1
 202 404 l 1,21,-1
 202 50 l 1,22,-1
 271 22 l 1,23,-1
 265 0 l 1,24,-1
 51 0 l 1,25,-1
 45 22 l 1,26,-1
 90 41 l 2,27,28
 108 48 108 48 114.5 56 c 128,-1,29
 121 64 121 64 121 79 c 2,30,-1
 121 403 l 1,31,-1
 51 402 l 1,32,-1
 45 424 l 1,33,-1
 121 458 l 1,34,35
 121 556 121 556 181 619 c 0,36,37
 246 688 246 688 351 688 c 0,38,39
 419 688 419 688 504 660 c 1,40,41
 556 687 556 687 613 687 c 128,-1,42
 670 687 670 687 704 676 c 1,43,-1
 740 688 l 1,44,-1
 760 680 l 1,45,-1
 760 54 l 1,46,-1
 839 22 l 1,47,-1
 833 0 l 1,48,-1
 609 0 l 1,49,-1
 603 22 l 1,50,-1
 648 41 l 2,51,52
 666 48 666 48 672.5 56 c 128,-1,53
 679 64 679 64 679 79 c 2,54,-1
 679 606 l 1,0,1
202 450 m 1,55,-1
 395 450 l 1,56,57
 395 543 395 543 442 605 c 1,58,59
 396 622 396 622 326.5 622 c 128,-1,60
 257 622 257 622 221 596 c 1,61,62
 202 566 202 566 202 450 c 1,55,-1
EndSplineSet
Ligature2: "'liga' Standard Ligatures in Latin lookup 0 subtable" f f l
EndChar

StartChar: fj
Encoding: 65539 -1 232
Width: 565
GlyphClass: 3
Flags: W
LayerCount: 2
Fore
SplineSet
121 79 m 2,0,-1
 121 403 l 1,1,-1
 51 402 l 1,2,-1
 45 424 l 1,3,-1
 121 458 l 1,4,5
 123 557 123 557 179 622.5 c 128,-1,6
 235 688 235 688 335 688 c 128,-1,7
 435 688 435 688 495 616 c 1,8,-1
 435 563 l 1,9,-1
 417 568 l 1,10,11
 404 588 404 588 375 605 c 0,12,13
 344 623 344 623 295.5 623 c 128,-1,14
 247 623 247 623 221 602 c 1,15,16
 202 572 202 572 202 450 c 1,17,-1
 456 458 l 1,18,-1
 476 450 l 1,19,-1
 476 0 l 2,20,21
 476 -80 476 -80 437.5 -140.5 c 128,-1,22
 399 -201 399 -201 333 -238 c 1,23,-1
 319 -220 l 1,24,25
 395 -131 395 -131 395 -8 c 2,26,-1
 395 401 l 1,27,-1
 202 404 l 1,28,-1
 202 54 l 1,29,-1
 281 22 l 1,30,-1
 275 0 l 1,31,-1
 51 0 l 1,32,-1
 45 22 l 1,33,-1
 90 41 l 2,34,35
 108 48 108 48 114.5 56 c 128,-1,36
 121 64 121 64 121 79 c 2,0,-1
EndSplineSet
Ligature2: "'liga' Standard Ligatures in Latin lookup 0 subtable" f j
EndChar

StartChar: ffj
Encoding: 65540 -1 233
Width: 839
GlyphClass: 3
Flags: W
LayerCount: 2
Fore
SplineSet
121 79 m 2,0,-1
 121 403 l 1,1,-1
 51 402 l 1,2,-1
 45 424 l 1,3,-1
 121 458 l 1,4,5
 121 556 121 556 181 619 c 0,6,7
 246 688 246 688 352 688 c 0,8,9
 416 688 416 688 495 663 c 1,10,11
 543 688 543 688 605 688 c 0,12,13
 709 688 709 688 769 616 c 1,14,-1
 709 563 l 1,15,-1
 691 568 l 1,16,17
 678 588 678 588 649 605 c 0,18,19
 618 623 618 623 569.5 623 c 128,-1,20
 521 623 521 623 495 602 c 1,21,22
 476 572 476 572 476 450 c 1,23,-1
 730 458 l 1,24,-1
 750 450 l 1,25,-1
 750 0 l 2,26,27
 750 -80 750 -80 711.5 -140.5 c 128,-1,28
 673 -201 673 -201 607 -238 c 1,29,-1
 593 -220 l 1,30,31
 669 -131 669 -131 669 -8 c 2,32,-1
 669 401 l 1,33,-1
 476 404 l 1,34,-1
 476 54 l 1,35,-1
 555 22 l 1,36,-1
 549 0 l 1,37,-1
 325 0 l 1,38,-1
 319 22 l 1,39,-1
 364 41 l 2,40,41
 382 48 382 48 388.5 56 c 128,-1,42
 395 64 395 64 395 79 c 2,43,-1
 395 401 l 1,44,-1
 202 404 l 1,45,-1
 202 50 l 1,46,-1
 271 22 l 1,47,-1
 265 0 l 1,48,-1
 51 0 l 1,49,-1
 45 22 l 1,50,-1
 90 41 l 2,51,52
 108 48 108 48 114.5 56 c 128,-1,53
 121 64 121 64 121 79 c 2,0,-1
202 450 m 1,55,-1
 395 450 l 1,56,57
 395 548 395 548 435 608 c 1,58,59
 399 623 399 623 338 623 c 0,60,61
 258 623 258 623 221 596 c 1,62,54
 202 566 202 566 202 450 c 1,55,-1
EndSplineSet
Ligature2: "'liga' Standard Ligatures in Latin lookup 0 subtable" f f j
EndChar

